<svg width="16" height="16" viewBox="0 0 16 16" fill="none" xmlns="http://www.w3.org/2000/svg">
<path d="M4.21871 3.08238L2.90939 1.761L1.8185 2.86195L3.12783 4.18334L4.21871 3.08238ZM2.18176 7.2657H0V8.73321H2.18176V7.2657ZM8.72705 0H7.27293V2.12772H8.72705V0ZM14.1815 2.86195L13.0906 1.761L11.7813 3.08238L12.7998 4.11018L14.1815 2.86195ZM11.7813 12.9176L13.0906 14.2379L14.1101 13.2111L12.7998 11.8898L11.7813 12.9176ZM13.8182 8.73321H16V7.2657H13.8182V8.73321ZM8.00056 3.59521C5.60045 3.59521 3.63701 5.57776 3.63701 7.99897C3.63701 10.4211 5.60045 12.4026 8.00056 12.4026C10.4007 12.4026 12.364 10.4211 12.364 7.99897C12.364 5.57776 10.4007 3.59521 8.00056 3.59521ZM7.27293 16H8.72705V13.8713H7.27293V16ZM1.8185 13.1369L2.90939 14.2379L4.21871 12.9176L3.20131 11.8898L1.8185 13.1369Z" fill="white"/>
</svg>
