<?xml version="1.0" encoding="UTF-8"?>
<svg width="16px" height="16px" viewBox="0 0 16 16" version="1.1" xmlns="http://www.w3.org/2000/svg" xmlns:xlink="http://www.w3.org/1999/xlink">
    <title>icon/status/infor</title>
    <g id="icon/status/infor" stroke="none" stroke-width="1" fill="none" fill-rule="evenodd">
        <g id="形状结合-2" transform="translate(1.000000, 1.000000)" fill="#C0C4CC">
            <path d="M7,0 C10.8659932,0 14,3.13400675 14,7 C14,10.8659932 10.8659932,14 7,14 C3.13400675,14 0,10.8659932 0,7 C0,3.13400675 3.13400675,0 7,0 Z M7.27538384,5.56 L7.26526901,5.56 C6.98528193,5.56 6.6746189,5.65187101 6.31546848,5.84087983 C5.9801935,6.01736285 5.62785586,6.29769309 5.23821362,6.69793425 L5.23821362,6.69793425 L3.96,8.01103484 L5.69863519,7.2927716 C5.85394215,7.228597 6.02191721,7.16030056 6.1762176,7.09862195 C5.84641739,8.11472177 5.47695573,9.3479161 5.47695573,9.89002836 C5.47695573,10.17345 5.59542455,10.35141 5.69473164,10.4507003 C5.84463748,10.6007006 6.04918063,10.68 6.2863515,10.68 C6.50247025,10.68 6.74829519,10.6050056 7.03791836,10.4506316 C7.29287613,10.3147486 7.66851226,10.0277089 8.18618577,9.57308251 L8.18618577,9.57308251 L10.04,7.9451886 L7.73866554,8.96119683 C7.55356645,9.04291211 7.34676464,9.13132536 7.16915349,9.2044535 C7.23714631,8.91436825 7.3762499,8.40955856 7.65628607,7.53233006 C8.00920065,6.43048472 8.02028524,6.28307205 8.02061667,6.20260476 C8.02757676,6.0173972 7.97295172,5.86507268 7.85811639,5.74954694 C7.6815609,5.57194185 7.44613312,5.56523244 7.31963626,5.56161438 C7.30788881,5.56130525 7.29648506,5.56098466 7.28549868,5.56044653 L7.28549868,5.56044653 L7.27538384,5.56 Z M7.89097135,3.32 C7.60252764,3.32 7.34235221,3.43113553 7.13870139,3.64133896 C6.9432925,3.84286275 6.84,4.09914981 6.84,4.38242757 C6.84,4.62210322 6.92391024,4.83235197 7.08251075,4.9903643 C7.24614468,5.15369094 7.46047065,5.24 7.70232538,5.24 C7.8978774,5.24 8.18678629,5.18179209 8.45272271,4.90431587 C8.65661208,4.6915516 8.76,4.44057883 8.76,4.1583662 C8.76,3.92563652 8.67506399,3.71986355 8.51404219,3.56295034 C8.35050369,3.40400885 8.13506846,3.32 7.89097135,3.32 Z" id="形状结合"></path>
        </g>
    </g>
</svg>