<?xml version="1.0" encoding="utf-8"?>
<!-- Generator: Adobe Illustrator 22.1.0, SVG Export Plug-In . SVG Version: 6.00 Build 0)  -->
<svg version="1.1" id="图层_1" xmlns="http://www.w3.org/2000/svg" xmlns:xlink="http://www.w3.org/1999/xlink" x="0px" y="0px"
	 viewBox="0 0 449.2 449.3" style="enable-background:new 0 0 449.2 449.3;" xml:space="preserve">
<style type="text/css">
	.st0{fill:#FFFFFF;stroke:#8A8A8A;stroke-width:20;stroke-linecap:round;stroke-linejoin:round;}
	.st1{fill:none;stroke:#8A8A8A;stroke-width:22.341;stroke-linecap:round;stroke-linejoin:round;}
	.st2{fill:#FFFFFF;stroke:#C90000;stroke-width:25;stroke-linecap:round;stroke-linejoin:round;}
</style>
<g transform="translate(-175.202 -356.542)">
	<circle class="st0" cx="317.9" cy="499.2" r="132"/>
	<circle class="st1" cx="465.1" cy="646.4" r="147.4"/>
	<path class="st2" d="M317.9,367.2c-72.9,0-132,59.1-132,132c0,0,0,0,0,0c0,72.9,59.1,132,132,132l0,0c0.2,0,0.4,0,0.6,0
		c7.3-69.3,62.1-124,131.4-131.2c0-0.2,0-0.5,0-0.7C449.9,426.3,390.8,367.2,317.9,367.2C317.9,367.2,317.9,367.2,317.9,367.2
		L317.9,367.2z"/>
</g>
</svg>
