<?xml version="1.0" encoding="UTF-8"?>
<svg width="30px" height="31px" viewBox="0 0 30 31" version="1.1" xmlns="http://www.w3.org/2000/svg" xmlns:xlink="http://www.w3.org/1999/xlink">
    <!-- Generator: Sketch 59 (86127) - https://sketch.com -->
    <title>绘制</title>
    <desc>Created with Sketch.</desc>
    <g id="页面-1" stroke="none" stroke-width="1" fill="none" fill-rule="evenodd">
        <g id="首页1" transform="translate(-677.000000, -251.000000)" fill="#527AFF" fill-rule="nonzero">
            <g id="选择备份" transform="translate(658.000000, 156.000000)">
                <g id="编组-8" transform="translate(19.000000, 96.000000)">
                    <g id="绘制" transform="translate(1.000000, 2.000000)">
                        <path d="M2.63686031,2.63660462 L0,2.63660462 C0,4.09298675 1.18047992,5.27346809 2.63686031,5.27346809 C4.09294949,5.27346809 5.27346177,4.09298675 5.27346177,2.63660462 C5.27346177,1.18048134 4.09298184,0 2.63686031,0 C1.18047992,0 0,1.18048134 0,2.63660462 L2.63686031,2.63660462 L2.63686031,2.63660462 Z M0,24.3636542 C0,25.8191627 1.18047992,27 2.63686031,27 C4.09294949,27 5.27346177,25.8191951 5.27346177,24.3636542 C5.27346177,22.9070456 4.09298184,21.7268231 2.63686031,21.7268231 C1.18047992,21.7268231 0,22.9070456 0,24.3636542 Z M21.7267971,2.63660462 C21.7267971,4.09298675 22.9069858,5.27346809 24.363625,5.27346809 C25.8197789,5.27346809 27,4.09298675 27,2.63660462 C27,1.18048134 25.8197466,0 24.363625,0 C22.9069534,0 21.7267971,1.18048134 21.7267971,2.63660462 Z" id="形状"></path>
                        <path d="M2,1 L24,1 L24,3.70545121 L2,3.70545121 L2,1 Z M2,23.29425 L11.0882948,23.29425 L11.0882948,26 L2,26 L2,23.29425 Z" id="形状"></path>
                        <path d="M3.60055904,2.00049798 L3.60055904,24.2933413 L1,24.2933413 L1,2.00049798 L3.60055904,2.00049798 Z M25.0303106,2.00049798 L25.0303106,11.3562303 L22.4294963,11.3562303 L22.4294963,2 L25.0303106,2.00049798 Z M22.663613,13.6215784 L26.3286115,17.434319 L18.8056022,25.2642379 L15.1399654,21.4509661 L22.663613,13.6215784 L22.663613,13.6215784 Z M26.6760208,17.0727517 L23.0105435,13.261505 L24.0087627,12.2228166 C24.4404553,11.7739698 25.1405714,11.7739698 25.5718491,12.2228166 L25.5722959,12.2228166 L27.6764101,14.4116416 C28.1076239,14.8607871 28.1081026,15.5891007 27.6764101,16.0381135 L26.6782547,17.0765363 L26.6760208,17.0727517 L26.6760208,17.0727517 Z M13.514233,27 L18.4574908,25.6202278 L14.8377136,21.8541314 L13.514233,27 Z" id="形状"></path>
                    </g>
                </g>
            </g>
        </g>
    </g>
</svg>