<?xml version="1.0" encoding="utf-8"?>
<!-- Generator: Adobe Illustrator 22.1.0, SVG Export Plug-In . SVG Version: 6.00 Build 0)  -->
<svg version="1.1" id="图层_1" xmlns="http://www.w3.org/2000/svg" xmlns:xlink="http://www.w3.org/1999/xlink" x="0px" y="0px"
	 viewBox="0 0 572.5 556.1" style="enable-background:new 0 0 572.5 556.1;" xml:space="preserve">
<style type="text/css">
	.st0{fill:#FFFFFF;}
</style>
<g>
	<path class="st0" d="M157.9,43.1l281.5,263.7l-115,10.4l-20.9,1.9l8.7,19.1L382,491l-51.5,22.6L264,359.2l-8.4-19.5l-15.4,14.5
		l-81.7,76.6L157.9,43.1 M157.9,0.3c-5.8,0-11.5,1.2-17,3.6c-15.6,6.8-25.8,22.2-25.7,39.3l0.6,387.7c0,17,10.2,32.5,25.8,39.2
		c5.5,2.3,11.2,3.5,17,3.5c10.7,0,21.2-4,29.3-11.6l52.7-49.4l50.8,118c4.5,10.5,13,18.7,23.6,22.9c5,2,10.4,3,15.7,3
		c5.9,0,11.7-1.2,17.2-3.6l51.5-22.7c10.5-4.6,18.7-13.2,22.7-23.9c4.1-10.7,3.7-22.6-1.1-33l-53.4-117l75.8-6.9
		c16.8-1.5,31.1-12.7,36.6-28.7c5.5-15.9,1.1-33.6-11.2-45.1L187.2,11.8C179.1,4.3,168.6,0.3,157.9,0.3L157.9,0.3z"/>
</g>
</svg>
