<?xml version="1.0" standalone="no"?><!DOCTYPE svg PUBLIC "-//W3C//DTD SVG 1.1//EN" "http://www.w3.org/Graphics/SVG/1.1/DTD/svg11.dtd"><svg t="1590048068334" class="icon" viewBox="0 0 1024 1024" version="1.1" xmlns="http://www.w3.org/2000/svg" p-id="5134" xmlns:xlink="http://www.w3.org/1999/xlink" width="32" height="32"><defs><style type="text/css"></style></defs><path d="M512.000512 159.28375m-96.697319 0a94.495 94.495 0 1 0 193.394638 0 94.495 94.495 0 1 0-193.394638 0Z" p-id="5135" fill="#ffffff"></path><path d="M512.000512 864.71625m-96.697319 0a94.495 94.495 0 1 0 193.394638 0 94.495 94.495 0 1 0-193.394638 0Z" p-id="5136" fill="#ffffff"></path><path d="M866.280374 512m-96.697319 0a94.495 94.495 0 1 0 193.394638 0 94.495 94.495 0 1 0-193.394638 0Z" p-id="5137" fill="#ffffff"></path><path d="M866.280374 864.71625m-96.697319 0a94.495 94.495 0 1 0 193.394638 0 94.495 94.495 0 1 0-193.394638 0Z" p-id="5138" fill="#ffffff"></path><path d="M813.741787 240.470817c15.126512 9.809413 33.166377 15.510252 52.538587 15.510252 53.404304 0 96.696296-43.293015 96.696296-96.697319s-43.293015-96.697319-96.696296-96.697319-96.697319 43.293015-96.697319 96.697319c0 19.219737 5.607718 37.128619 15.275915 52.182476L564.539098 430.812933c-15.126512-9.809413-33.165354-15.510252-52.538587-15.510252-53.404304 0-96.698343 43.293015-96.698343 96.697319 0 19.219737 5.607718 37.128619 15.275915 52.182476L210.258213 783.529183c-9.643638-6.253424-20.470217-10.832719-32.072463-13.332656L178.18575 606.519724c43.573401-9.390881 76.231195-48.13837 76.231195-94.519724s-32.657794-85.128843-76.231195-94.519724L178.18575 253.804497c43.573401-9.390881 76.231195-48.13837 76.231195-94.519724 0-53.404304-43.293015-96.697319-96.697319-96.697319s-96.697319 43.293015-96.697319 96.697319c0 46.381353 32.657794 85.128843 76.231195 94.519724l0 163.67578c-43.573401 9.390881-76.231195 48.13837-76.231195 94.519724s32.657794 85.128843 76.231195 94.519724l0 163.67578c-43.573401 9.390881-76.231195 48.13837-76.231195 94.519724 0 53.404304 43.293015 96.697319 96.697319 96.697319s96.697319-43.293015 96.697319-96.697319c0-19.218714-5.607718-37.128619-15.275915-52.182476l220.319871-219.346707c15.127536 9.810437 33.166377 15.510252 52.53961 15.510252 53.404304 0 96.696296-43.293015 96.696296-96.697319 0-19.219737-5.607718-37.128619-15.275915-52.182476L813.741787 240.470817z" p-id="5139" fill="#ffffff"></path></svg>