<?xml version="1.0" encoding="utf-8"?>
<!-- Generator: Adobe Illustrator 22.1.0, SVG Export Plug-In . SVG Version: 6.00 Build 0)  -->
<svg version="1.1" id="图层_1" xmlns="http://www.w3.org/2000/svg" xmlns:xlink="http://www.w3.org/1999/xlink" x="0px" y="0px"
	 viewBox="0 0 453.5 454.6" style="enable-background:new 0 0 453.5 454.6;" xml:space="preserve">
<style type="text/css">
	.st0{fill:#FFFFFF;stroke:#8A8A8A;stroke-width:20;stroke-linecap:round;stroke-linejoin:round;}
	.st1{fill:none;stroke:#8A8A8A;stroke-width:22.341;stroke-linecap:round;stroke-linejoin:round;}
	.st2{fill:none;stroke:#C90000;stroke-width:25;stroke-linecap:round;stroke-linejoin:round;}
</style>
<g transform="translate(-171.22 -351.49)">
	<circle class="st0" cx="318.1" cy="499.5" r="132"/>
	<circle class="st1" cx="465.4" cy="646.8" r="147.4"/>
	<path class="st2" d="M316.5,364.8c-72.9,0-132,59.1-132,132c0,72.9,59.1,132,132,132c0.2,0,0.4,0,0.6,0c-0.5,5.1-0.8,10.2-0.8,15.3
		c0,81.4,66,147.4,147.4,147.4h0c81.4,0,147.4-66,147.4-147.4s-66-147.4-147.4-147.4c-5.1,0.1-10.2,0.4-15.3,1c0-0.2,0-0.5,0-0.7
		C448.5,423.9,389.4,364.8,316.5,364.8L316.5,364.8z"/>
</g>
</svg>
