<svg width="16" height="16" viewBox="0 0 16 16" fill="none" xmlns="http://www.w3.org/2000/svg">
<path d="M9.04738 15H6.95255C6.56731 15 6.19785 14.8473 5.92544 14.5754C5.65304 14.3035 5.5 13.9348 5.5 13.5503V11.4596C5.4987 11.2684 5.53531 11.0788 5.60772 10.9018C5.68013 10.7247 5.78692 10.5638 5.92193 10.4281C6.05694 10.2924 6.21751 10.1848 6.39439 10.1113C6.57127 10.0378 6.76096 10 6.95255 10H9.04738C9.23897 10 9.42866 10.0378 9.60554 10.1113C9.78242 10.1848 9.94299 10.2924 10.078 10.4281C10.213 10.5638 10.3198 10.7247 10.3922 10.9018C10.4646 11.0788 10.5012 11.2684 10.4999 11.4596V13.5503C10.4999 13.9348 10.3469 14.3035 10.0745 14.5754C9.80209 14.8473 9.43262 15 9.04738 15ZM6.95255 10.9763C6.82414 10.9763 6.70098 11.0272 6.61018 11.1179C6.51938 11.2085 6.46837 11.3314 6.46837 11.4596V13.5503C6.46837 13.6785 6.51938 13.8014 6.61018 13.892C6.70098 13.9826 6.82414 14.0335 6.95255 14.0335H9.04738C9.1758 14.0335 9.29895 13.9826 9.38975 13.892C9.48056 13.8014 9.53157 13.6785 9.53157 13.5503V11.4596C9.53157 11.3314 9.48056 11.2085 9.38975 11.1179C9.29895 11.0272 9.1758 10.9763 9.04738 10.9763H6.95255Z" fill="#00FFFF"/>
<path fill-rule="evenodd" clip-rule="evenodd" d="M14.42 9.00001H1.57999C1.39576 9.00003 1.21336 8.96342 1.0434 8.89232C0.873444 8.82122 0.719314 8.71704 0.589976 8.58584C0.460638 8.45464 0.358671 8.29904 0.290005 8.12808C0.221339 7.95713 0.187343 7.77422 0.189994 7.59001V2.65001C0.189994 2.28136 0.33644 1.92781 0.597115 1.66713C0.857791 1.40646 1.21134 1.26001 1.57999 1.26001H14.42C14.7886 1.26001 15.1422 1.40646 15.4029 1.66713C15.6635 1.92781 15.81 2.28136 15.81 2.65001V7.59001C15.8126 7.77422 15.7786 7.95713 15.71 8.12808C15.6413 8.29904 15.5393 8.45464 15.41 8.58584C15.2807 8.71704 15.1265 8.82122 14.9566 8.89232C14.7866 8.96342 14.6042 9.00003 14.42 9.00001ZM1.57999 2.08001C1.5043 2.07868 1.42911 2.09244 1.35879 2.12049C1.28848 2.14854 1.22446 2.19032 1.17046 2.24338C1.11647 2.29644 1.07359 2.35973 1.04432 2.42955C1.01505 2.49936 0.999982 2.57431 0.999994 2.65001V7.59001C0.999994 7.66486 1.01474 7.73898 1.04338 7.80814C1.07203 7.8773 1.11401 7.94013 1.16694 7.99306C1.21987 8.04599 1.28271 8.08798 1.35186 8.11662C1.42102 8.14527 1.49514 8.16001 1.56999 8.16001H14.42C14.4957 8.16134 14.5709 8.14757 14.6412 8.11952C14.7115 8.09148 14.7755 8.0497 14.8295 7.99664C14.8835 7.94357 14.9264 7.88029 14.9557 7.81047C14.9849 7.74066 15 7.66571 15 7.59001V2.65001C15 2.49884 14.9399 2.35385 14.833 2.24696C14.7261 2.14006 14.5812 2.08001 14.43 2.08001H1.57999ZM3.54742 15H1.45258C1.06734 15 0.697882 14.8473 0.425476 14.5754C0.15307 14.3035 3.36129e-05 13.9348 3.36129e-05 13.5503V11.4596C-0.00126969 11.2684 0.0353398 11.0788 0.107754 10.9018C0.180167 10.7247 0.286955 10.5638 0.421966 10.4281C0.556978 10.2924 0.717547 10.1848 0.894425 10.1113C1.0713 10.0378 1.261 10 1.45258 10H3.54742C3.739 10 3.9287 10.0378 4.10558 10.1113C4.28245 10.1848 4.44302 10.2924 4.57803 10.4281C4.71305 10.5638 4.81983 10.7247 4.89225 10.9018C4.96466 11.0788 5.00127 11.2684 4.99997 11.4596V13.5503C4.99997 13.9348 4.84693 14.3035 4.57452 14.5754C4.30212 14.8473 3.93266 15 3.54742 15ZM1.45258 10.9763C1.32417 10.9763 1.20102 11.0272 1.11021 11.1179C1.01941 11.2085 0.9684 11.3314 0.9684 11.4596V13.5503C0.9684 13.6785 1.01941 13.8014 1.11021 13.892C1.20102 13.9826 1.32417 14.0335 1.45258 14.0335H3.54742C3.67583 14.0335 3.79898 13.9826 3.88979 13.892C3.98059 13.8014 4.0316 13.6785 4.0316 13.5503V11.4596C4.0316 11.3314 3.98059 11.2085 3.88979 11.1179C3.79898 11.0272 3.67583 10.9763 3.54742 10.9763H1.45258ZM12.4526 15H14.5474C14.9327 15 15.3021 14.8473 15.5745 14.5754C15.8469 14.3035 16 13.9348 16 13.5503V11.4596C16.0013 11.2684 15.9647 11.0788 15.8922 10.9018C15.8198 10.7247 15.713 10.5638 15.578 10.4281C15.443 10.2924 15.2825 10.1848 15.1056 10.1113C14.9287 10.0378 14.739 10 14.5474 10H12.4526C12.261 10 12.0713 10.0378 11.8944 10.1113C11.7175 10.1848 11.557 10.2924 11.422 10.4281C11.287 10.5638 11.1802 10.7247 11.1078 10.9018C11.0353 11.0788 10.9987 11.2684 11 11.4596V13.5503C11 13.9348 11.1531 14.3035 11.4255 14.5754C11.6979 14.8473 12.0673 15 12.4526 15ZM12.1102 11.1179C12.201 11.0272 12.3242 10.9763 12.4526 10.9763H14.5474C14.6758 10.9763 14.799 11.0272 14.8898 11.1179C14.9806 11.2085 15.0316 11.3314 15.0316 11.4596V13.5503C15.0316 13.6785 14.9806 13.8014 14.8898 13.892C14.799 13.9826 14.6758 14.0335 14.5474 14.0335H12.4526C12.3242 14.0335 12.201 13.9826 12.1102 13.892C12.0194 13.8014 11.9684 13.6785 11.9684 13.5503V11.4596C11.9684 11.3314 12.0194 11.2085 12.1102 11.1179Z" fill="white"/>
</svg>
