<svg width="14" height="14" viewBox="0 0 14 14" fill="none" xmlns="http://www.w3.org/2000/svg">
<path d="M11.703 6.68286C11.4952 6.68286 11.328 6.85005 11.328 7.05786V12.9141C11.328 13.1219 11.4952 13.2891 11.703 13.2891C11.9109 13.2891 12.078 13.1219 12.078 12.9141V7.05786C12.078 6.85005 11.9109 6.68286 11.703 6.68286ZM11.703 2.37036C11.9109 2.37036 12.078 2.20317 12.078 1.99536V1.08911C12.078 0.881299 11.9109 0.714111 11.703 0.714111C11.4952 0.714111 11.328 0.881299 11.328 1.08911V1.99536C11.328 2.20161 11.4952 2.37036 11.703 2.37036ZM11.703 2.83286C10.8015 2.83286 10.0671 3.56724 10.0671 4.4688C10.0671 5.37036 10.8015 6.10474 11.703 6.10474C12.6046 6.10474 13.339 5.37036 13.339 4.4688C13.339 3.56724 12.6046 2.83286 11.703 2.83286ZM11.703 5.3563C11.214 5.3563 10.8171 4.95943 10.8171 4.47036C10.8171 3.9813 11.214 3.58443 11.703 3.58443C12.1921 3.58443 12.589 3.9813 12.589 4.47036C12.589 4.95943 12.1921 5.3563 11.703 5.3563ZM6.92648 7.22661C7.13429 7.22661 7.30148 7.05943 7.30148 6.85161V1.08911C7.30148 0.881299 7.13429 0.714111 6.92648 0.714111C6.71867 0.714111 6.55148 0.881299 6.55148 1.08911V6.85161C6.55148 7.05786 6.72023 7.22661 6.92648 7.22661ZM6.92648 11.6204C6.71867 11.6204 6.55148 11.7876 6.55148 11.9954V12.9141C6.55148 13.1219 6.71867 13.2891 6.92648 13.2891C7.13429 13.2891 7.30148 13.1219 7.30148 12.9141V11.9954C7.30148 11.7876 7.13429 11.6204 6.92648 11.6204ZM2.20304 4.79224C2.41086 4.79224 2.57804 4.62505 2.57804 4.41724V0.979737C2.57804 0.771924 2.41086 0.604736 2.20304 0.604736C1.99523 0.604736 1.82804 0.771924 1.82804 0.979737V4.41724C1.82804 4.62349 1.99523 4.79224 2.20304 4.79224ZM2.20304 9.14693C1.99523 9.14693 1.82804 9.31412 1.82804 9.52193V13.0219C1.82804 13.2297 1.99523 13.3969 2.20304 13.3969C2.41086 13.3969 2.57804 13.2297 2.57804 13.0219V9.52193C2.57804 9.31568 2.41086 9.14693 2.20304 9.14693ZM2.20304 5.37349C1.30148 5.37349 0.567108 6.10786 0.567108 7.00943C0.567108 7.91099 1.30148 8.64536 2.20304 8.64536C3.10461 8.64536 3.83898 7.91099 3.83898 7.00943C3.83898 6.10786 3.10461 5.37349 2.20304 5.37349ZM2.20304 7.89693C1.71398 7.89693 1.31711 7.50005 1.31711 7.01099C1.31711 6.52193 1.71398 6.12505 2.20304 6.12505C2.69211 6.12505 3.08898 6.52193 3.08898 7.01099C3.08898 7.49849 2.69211 7.89693 2.20304 7.89693Z" fill="white"/>
</svg>
