<svg width="46" height="46" viewBox="0 0 46 46" fill="none" xmlns="http://www.w3.org/2000/svg">
<path fill-rule="evenodd" clip-rule="evenodd" d="M9 17.2524C9 9.94616 15.0196 4 22.416 4C29.819 4 35.8386 9.94615 35.8386 17.259C35.8386 20.7566 33.0388 25.9254 27.5045 32.6164L23.3407 37.3255C23.1177 37.5846 22.7899 37.7399 22.4489 37.7399H22.4226C22.0882 37.7399 21.7669 37.6039 21.5374 37.3643C21.0259 36.8332 9 24.3061 9 17.2524ZM12.8341 16.6524C12.8341 21.9501 17.1216 26.2377 22.4192 26.2377C27.717 26.2377 32.0045 21.9501 32.0045 16.6524C32.0045 11.3548 27.717 7.06728 22.4192 7.06728C17.1216 7.06728 12.8341 11.3548 12.8341 16.6524Z" fill="white"/>
<path d="M22.37 12H22.825V13.8229H27.375V16.1016H22.825V17.4688H26.01V17.8188L27.375 18.6082L26.01 19.3975V19.7475H22.825V23.3934H22.37V19.7475H18.73V17.4688H22.37V16.1016H17.365V15.7516L16 14.9623L17.365 14.1729V13.8229H22.37V12Z" fill="#00FFFF"/>
<path d="M2 41.2542H44V39.2542H2V41.2542Z" fill="#00FFFF"/>
</svg>
