<?xml version="1.0" encoding="UTF-8"?>
<svg width="16px" height="16px" viewBox="0 0 16 16" version="1.1" xmlns="http://www.w3.org/2000/svg" xmlns:xlink="http://www.w3.org/1999/xlink">
    <g id="icon/map/dark/select/场景视廊" stroke="none" stroke-width="1" fill="none" fill-rule="evenodd">
        <g id="icon" transform="translate(1.000000, 1.000000)">
            <path d="M9.81922197,1.96825397 C10.2356979,1.96825397 10.537376,2.08730159 10.7242563,2.32539683 C10.9111365,2.56349206 11.0045767,2.87301587 11.0045767,3.25396825 L11.0045767,13.015873 C11.0045767,13.2592593 10.9031274,13.484127 10.7002288,13.6904762 C10.4973303,13.8968254 10.2463768,14 9.94736842,14 L0.993135011,14 C0.736842105,14 0.507246377,13.8941799 0.304347826,13.6825397 C0.101449275,13.4708995 5.47117907e-13,13.2222222 5.47117907e-13,12.9365079 L5.47117907e-13,3.01587302 C5.47117907e-13,2.70899471 0.0854309687,2.45767196 0.256292906,2.26190476 C0.427154844,2.06613757 0.651411137,1.96825397 0.929061785,1.96825397 L9.81922197,1.96825397 Z M9.5,3 L1.5,3 C1.25454011,3 1.05039163,3.17687516 1.00805567,3.41012437 L1,3.5 L1,12.5 C1,12.7454599 1.17687516,12.9496084 1.41012437,12.9919443 L1.5,13 L9.5,13 C9.74545989,13 9.94960837,12.8231248 9.99194433,12.5898756 L10,12.5 L10,3.5 C10,3.22385763 9.77614237,3 9.5,3 Z M12.5102975,2.13162821e-14 C12.9588101,2.13162821e-14 13.319222,0.148148148 13.5915332,0.444444444 C13.8638444,0.740740741 14,1.07936508 14,1.46031746 L14,10 C14,10.2433862 13.9118993,10.4497354 13.7356979,10.6190476 C13.5594966,10.7883598 13.3485889,10.8730159 13.1029748,10.8730159 L11.9977117,10.8730159 L11.9977117,8.95238095 L12.6864989,8.95238095 C12.8039664,8.95238095 12.9054157,8.91005291 12.9908467,8.82539683 C13.0762777,8.74074074 13.1189931,8.63492063 13.1189931,8.50793651 C13.1189931,8.39153439 13.0762777,8.29100529 12.9908467,8.20634921 C12.9054157,8.12169312 12.8039664,8.07936508 12.6864989,8.07936508 L11.9977117,8.07936508 L11.9977117,6.84126984 L12.6864989,6.84126984 C12.8039664,6.84126984 12.9054157,6.7989418 12.9908467,6.71428571 C13.0762777,6.62962963 13.1189931,6.52910053 13.1189931,6.41269841 C13.1189931,6.2962963 13.0762777,6.19312169 12.9908467,6.1031746 C12.9054157,6.01322751 12.8039664,5.96825397 12.6864989,5.96825397 L11.9977117,5.96825397 L11.9977117,4.84126984 L12.6864989,4.84126984 C12.8039664,4.84126984 12.9054157,4.7989418 12.9908467,4.71428571 C13.0762777,4.62962963 13.1189931,4.52380952 13.1189931,4.3968254 C13.1189931,4.28042328 13.0762777,4.17989418 12.9908467,4.0952381 C12.9054157,4.01058201 12.8039664,3.96825397 12.6864989,3.96825397 L11.9977117,3.96825397 L11.9977117,2.63492063 C11.9977117,2.04232804 11.8588863,1.62433862 11.5812357,1.38095238 C11.303585,1.13756614 10.8337147,1.01587302 10.1716247,1.01587302 L4.00457666,1.01587302 L4.00457666,0.873015873 C4.00457666,0.62962963 4.09267735,0.423280423 4.26887872,0.253968254 C4.44508009,0.0846560847 4.6559878,2.13162821e-14 4.90160183,2.13162821e-14 L12.5102975,2.13162821e-14 Z" id="color_w" fill="#FFFFFF"></path>
            <path d="M8.99954149,4.47839184 L9,11.5 C9,11.7761424 8.77614237,12 8.5,12 L2.5,12 C2.22385763,12 2,11.7761424 2,11.5 L1.99804926,8.19409421 C2.12949456,8.25281535 2.27022427,8.30540302 2.4202384,8.35185722 C2.64747654,8.42222504 2.8936512,8.45740895 3.15876236,8.45740895 C3.55642911,8.45740895 3.90438752,8.39407791 4.20263759,8.26741583 C4.50088765,8.14075376 4.77783414,7.98125336 5.03347705,7.78891465 C5.28911996,7.59657594 5.54002874,7.39016367 5.7862034,7.16967783 C6.03237805,6.94919199 6.30459041,6.74043412 6.60284048,6.54340422 C6.90109054,6.34637433 7.24194776,6.17983715 7.62541212,6.0437927 C8.00887649,5.90774824 8.46571984,5.83034364 8.99594218,5.81157889 L8.99954149,4.47839184 Z M3.04347826,3.80952381 C3.36384439,3.80952381 3.63882532,3.92328042 3.86842105,4.15079365 C4.09801678,4.37830688 4.21281465,4.65608466 4.21281465,4.98412698 C4.21281465,5.3015873 4.09801678,5.57407407 3.86842105,5.8015873 C3.63882532,6.02910053 3.36384439,6.14285714 3.04347826,6.14285714 C2.71243326,6.14285714 2.43478261,6.02910053 2.21052632,5.8015873 C1.98627002,5.57407407 1.87414188,5.3015873 1.87414188,4.98412698 C1.87414188,4.65608466 1.98627002,4.37830688 2.21052632,4.15079365 C2.43478261,3.92328042 2.71243326,3.80952381 3.04347826,3.80952381 Z" id="color_g" fill="#00FFFF"></path>
        </g>
    </g>
</svg>