<svg width="18" height="18" viewBox="0 0 18 18" fill="none" xmlns="http://www.w3.org/2000/svg">
<path fill-rule="evenodd" clip-rule="evenodd" d="M3.80067 10.6327H13.9096C14.6455 10.6327 15.3423 10.3431 15.8717 9.81708C16.4048 9.2875 16.6984 8.58581 16.6984 7.84122C16.6984 7.10752 16.4153 6.41445 15.9012 5.88973C15.468 5.44759 14.9114 5.16568 14.3075 5.07738C14.1821 2.80783 12.2953 1 9.99399 1C8.32456 1 6.82143 1.95922 6.10659 3.43373C5.78682 3.21352 5.40552 3.09295 5.00682 3.09295C3.93628 3.09295 3.06532 3.96394 3.06532 5.03452C3.06532 5.06735 3.06613 5.10021 3.06782 5.13302C1.86741 5.45761 1 6.56258 1 7.83453C1 9.37747 2.25636 10.6327 3.80067 10.6327ZM6 15.5644C6 15.7586 6.15748 15.9161 6.35172 15.9161C6.54595 15.9161 6.70343 15.7586 6.70343 15.5644V14.3517C6.70343 14.1575 6.54595 14 6.35172 14C6.15748 14 6 14.1575 6 14.3517V15.5644ZM8.35172 12.9161C8.15748 12.9161 8 12.7586 8 12.5644V11.3517C8 11.1575 8.15748 11 8.35172 11C8.54595 11 8.70343 11.1575 8.70343 11.3517V12.5644C8.70343 12.7586 8.54595 12.9161 8.35172 12.9161ZM8.46701 16.165C8.46701 16.3592 8.62449 16.5167 8.81872 16.5167C9.01295 16.5167 9.17044 16.3592 9.17044 16.165V14.2489C9.17044 14.0546 9.01295 13.8972 8.81872 13.8972C8.62449 13.8972 8.46701 14.0546 8.46701 14.2489V16.165ZM4.35171 14.6195C4.15748 14.6195 4 14.4621 4 14.2678V12.3517C4 12.1575 4.15748 12 4.35171 12C4.54594 12 4.70343 12.1575 4.70343 12.3517V14.2678C4.70343 14.4621 4.54594 14.6195 4.35171 14.6195ZM10.9757 14.0546C10.9757 14.2489 11.1332 14.4063 11.3274 14.4063C11.5217 14.4063 11.6791 14.2489 11.6791 14.0546V13.6931C11.6948 13.6532 11.7034 13.6098 11.7034 13.5644V12.3517C11.7034 12.1575 11.546 12 11.3517 12C11.1575 12 11 12.1575 11 12.3517V12.7133C10.9843 12.7531 10.9757 12.7965 10.9757 12.8419V14.0546ZM13 12.5644C13 12.7586 13.1575 12.9161 13.3517 12.9161C13.546 12.9161 13.7034 12.7586 13.7034 12.5644V11.3517C13.7034 11.1575 13.546 11 13.3517 11C13.1575 11 13 11.1575 13 11.3517V12.5644Z" fill="white"/>
</svg>
