<svg width="16" height="16" viewBox="0 0 16 16" fill="none" xmlns="http://www.w3.org/2000/svg">
<path d="M15.1975 8.79727C15.3827 8.79787 15.5623 8.73422 15.7058 8.61716C15.8493 8.5001 15.9477 8.3369 15.9842 8.15538C16.0208 7.97387 15.9933 7.78528 15.9063 7.62181C15.8194 7.45833 15.6784 7.33009 15.5074 7.25895C15.3365 7.18781 15.1462 7.17819 14.9689 7.23172C14.7916 7.28525 14.6385 7.39862 14.5355 7.55249C14.4325 7.70637 14.386 7.89121 14.4041 8.07548C14.4222 8.25976 14.5036 8.43206 14.6346 8.56299C14.7839 8.71239 14.9863 8.79661 15.1975 8.79727ZM0.802456 7.20272C0.617296 7.20212 0.437662 7.26578 0.294196 7.38284C0.15073 7.4999 0.0523205 7.6631 0.0157538 7.84462C-0.020813 8.02613 0.00672833 8.21471 0.0936798 8.37819C0.180631 8.54167 0.321606 8.66991 0.492557 8.74105C0.663508 8.81219 0.853845 8.82181 1.0311 8.76828C1.20835 8.71475 1.36155 8.60138 1.46454 8.4475C1.56754 8.29363 1.61396 8.10879 1.59589 7.92452C1.57782 7.74024 1.49638 7.56794 1.36545 7.437C1.2161 7.28761 1.0137 7.20338 0.802456 7.20272ZM8 14.4003C7.81484 14.3997 7.63521 14.4633 7.49174 14.5804C7.34827 14.6975 7.24986 14.8607 7.2133 15.0422C7.17673 15.2237 7.20427 15.4123 7.29122 15.5758C7.37818 15.7392 7.51915 15.8675 7.6901 15.9386C7.86105 16.0098 8.05139 16.0194 8.22864 15.9658C8.4059 15.9123 8.55909 15.7989 8.66209 15.6451C8.76509 15.4912 8.81151 15.3064 8.79344 15.1221C8.77537 14.9378 8.69392 14.7655 8.56299 14.6346C8.41364 14.4852 8.21124 14.4009 8 14.4003ZM8 1.59971C8.18516 1.60031 8.36479 1.53666 8.50826 1.4196C8.65173 1.30254 8.75014 1.13933 8.7867 0.957817C8.82327 0.776302 8.79573 0.587722 8.70878 0.424246C8.62183 0.26077 8.48085 0.132525 8.3099 0.061387C8.13895 -0.00975104 7.94861 -0.019375 7.77136 0.0341567C7.5941 0.0876883 7.44091 0.201059 7.33791 0.354931C7.23491 0.508802 7.18849 0.693643 7.20656 0.877921C7.22464 1.0622 7.30608 1.2345 7.43701 1.36543C7.58636 1.51483 7.78876 1.59905 8 1.59971ZM2.34607 3.47688L3.24503 4.37584L1.78049 4.37014C1.56755 4.37017 1.36334 4.45478 1.21279 4.60536C1.06223 4.75595 0.977668 4.96017 0.977691 5.17311C0.977714 5.38605 1.06232 5.59026 1.21291 5.74081C1.3635 5.89137 1.56772 5.97593 1.78066 5.97591L4.8394 5.97021L6.07191 7.20272L3.47672 7.1972C3.37129 7.1972 3.2669 7.21797 3.1695 7.25831C3.0721 7.29865 2.9836 7.35779 2.90906 7.43233C2.83451 7.50688 2.77538 7.59538 2.73503 7.69278C2.69469 7.79018 2.67392 7.89457 2.67392 8C2.67392 8.10542 2.69469 8.20982 2.73503 8.30722C2.77538 8.40462 2.83451 8.49312 2.90906 8.56766C2.9836 8.64221 3.0721 8.70134 3.1695 8.74169C3.2669 8.78203 3.37129 8.8028 3.47672 8.8028L6.07191 8.79727L4.8394 10.0298L1.78066 10.0241C1.67522 10.0241 1.57082 10.0448 1.4734 10.0852C1.37599 10.1255 1.28747 10.1846 1.21291 10.2592C1.13835 10.3337 1.0792 10.4222 1.03884 10.5196C0.99848 10.617 0.977702 10.7214 0.97769 10.8269C0.977679 10.9323 0.998435 11.0367 1.03877 11.1341C1.07911 11.2316 1.13824 11.3201 1.21279 11.3946C1.28734 11.4692 1.37584 11.5283 1.47324 11.5687C1.57065 11.6091 1.67505 11.6298 1.78049 11.6299L3.24503 11.6242L2.34607 12.5231C2.19611 12.6731 2.11187 12.8765 2.11187 13.0885C2.11187 13.3006 2.19611 13.504 2.34607 13.6539C2.49603 13.8039 2.69941 13.8881 2.91148 13.8881C3.12355 13.8881 3.32693 13.8039 3.47689 13.6539L4.37585 12.755L4.37015 14.2195C4.37018 14.4325 4.45479 14.6367 4.60537 14.7872C4.75596 14.9378 4.96018 15.0224 5.17312 15.0223C5.38606 15.0223 5.59027 14.9377 5.74082 14.7871C5.89137 14.6365 5.97594 14.4323 5.97592 14.2194L5.97022 11.1606L7.20273 9.9281L7.1972 12.5233C7.1972 12.6287 7.21797 12.7331 7.25831 12.8305C7.29866 12.9279 7.35779 13.0164 7.43234 13.091C7.50688 13.1655 7.59538 13.2246 7.69278 13.265C7.79018 13.3053 7.89458 13.3261 8 13.3261C8.10542 13.3261 8.20982 13.3053 8.30722 13.265C8.40462 13.2246 8.49312 13.1655 8.56766 13.091C8.64221 13.0164 8.70134 12.9279 8.74169 12.8305C8.78203 12.7331 8.8028 12.6287 8.8028 12.5233L8.79727 9.9281L10.0298 11.1606L10.0241 14.2194C10.0241 14.3248 10.0448 14.4292 10.0852 14.5266C10.1255 14.624 10.1846 14.7125 10.2592 14.7871C10.3337 14.8617 10.4222 14.9208 10.5196 14.9612C10.617 15.0015 10.7214 15.0223 10.8269 15.0223C10.9323 15.0223 11.0367 15.0016 11.1341 14.9612C11.2316 14.9209 11.3201 14.8618 11.3946 14.7872C11.4692 14.7127 11.5283 14.6242 11.5687 14.5268C11.6091 14.4294 11.6298 14.325 11.6298 14.2195L11.6242 12.755L12.5231 13.6539C12.6731 13.8039 12.8765 13.8881 13.0885 13.8881C13.3006 13.8881 13.504 13.8039 13.6539 13.6539C13.8039 13.504 13.8881 13.3006 13.8881 13.0885C13.8881 12.8765 13.8039 12.6731 13.6539 12.5231L12.755 11.6242L14.2195 11.6299C14.325 11.6298 14.4294 11.6091 14.5268 11.5687C14.6242 11.5283 14.7127 11.4692 14.7872 11.3946C14.8618 11.3201 14.9209 11.2316 14.9612 11.1341C15.0016 11.0367 15.0223 10.9323 15.0223 10.8269C15.0223 10.7214 15.0015 10.617 14.9612 10.5196C14.9208 10.4222 14.8617 10.3337 14.7871 10.2592C14.7125 10.1846 14.624 10.1255 14.5266 10.0852C14.4292 10.0448 14.3248 10.0241 14.2193 10.0241L11.1606 10.0298L9.92809 8.79727L12.5233 8.8028C12.7362 8.8028 12.9404 8.71822 13.0909 8.56766C13.2415 8.41711 13.3261 8.21291 13.3261 8C13.3261 7.78708 13.2415 7.58289 13.0909 7.43233C12.9404 7.28178 12.7362 7.1972 12.5233 7.1972L9.92809 7.20272L11.1606 5.97021L14.2193 5.97591C14.3248 5.97592 14.4292 5.95517 14.5266 5.91483C14.624 5.87449 14.7125 5.81536 14.7871 5.74081C14.8617 5.66627 14.9208 5.57776 14.9612 5.48036C15.0015 5.38295 15.0223 5.27855 15.0223 5.17311C15.0223 5.06768 15.0016 4.96327 14.9612 4.86586C14.9209 4.76844 14.8618 4.67993 14.7872 4.60536C14.7127 4.5308 14.6242 4.47165 14.5268 4.43129C14.4294 4.39093 14.325 4.37015 14.2195 4.37014L12.755 4.37584L13.6539 3.47688C13.7282 3.40263 13.7871 3.31448 13.8273 3.21746C13.8674 3.12045 13.8881 3.01647 13.8881 2.91147C13.8881 2.80646 13.8674 2.70248 13.8273 2.60547C13.7871 2.50845 13.7282 2.4203 13.6539 2.34605C13.5797 2.2718 13.4915 2.2129 13.3945 2.17272C13.2975 2.13254 13.1935 2.11185 13.0885 2.11185C12.9835 2.11185 12.8795 2.13254 12.7825 2.17272C12.6855 2.2129 12.5974 2.2718 12.5231 2.34605L11.6242 3.24502L11.6298 1.78047C11.6298 1.67503 11.6091 1.57063 11.5687 1.47323C11.5283 1.37582 11.4692 1.28732 11.3946 1.21277C11.3201 1.13822 11.2316 1.07909 11.1341 1.03875C11.0367 0.998416 10.9323 0.97766 10.8269 0.977671C10.7214 0.977682 10.617 0.998461 10.5196 1.03882C10.4222 1.07918 10.3337 1.13833 10.2592 1.21289C10.1846 1.28745 10.1255 1.37597 10.0852 1.47338C10.0448 1.5708 10.0241 1.67521 10.0241 1.78064L10.0298 4.83939L8.79727 6.0719L8.8028 3.47671C8.8028 3.26379 8.71822 3.05959 8.56766 2.90904C8.41711 2.75849 8.21291 2.67391 8 2.67391C7.78709 2.67391 7.58289 2.75849 7.43234 2.90904C7.28178 3.05959 7.1972 3.26379 7.1972 3.47671L7.20273 6.0719L5.97022 4.83939L5.97592 1.78064C5.97593 1.67521 5.95517 1.5708 5.91483 1.47338C5.8745 1.37597 5.81537 1.28745 5.74082 1.21289C5.66627 1.13833 5.57777 1.07918 5.48036 1.03882C5.38296 0.998461 5.27856 0.977683 5.17312 0.977671C5.06769 0.97766 4.96328 0.998416 4.86587 1.03875C4.76845 1.07909 4.67993 1.13822 4.60537 1.21277C4.53081 1.28732 4.47166 1.37582 4.4313 1.47323C4.39094 1.57063 4.37016 1.67503 4.37015 1.78047L4.37585 3.24502L3.47689 2.34605C3.40264 2.2718 3.31449 2.2129 3.21748 2.17272C3.12047 2.13254 3.01649 2.11185 2.91148 2.11185C2.80647 2.11185 2.7025 2.13254 2.60548 2.17272C2.50847 2.2129 2.42032 2.2718 2.34607 2.34605C2.27182 2.4203 2.21292 2.50845 2.17274 2.60547C2.13255 2.70248 2.11187 2.80646 2.11187 2.91147C2.11187 3.01647 2.13255 3.12045 2.17274 3.21746C2.21292 3.31448 2.27182 3.40263 2.34607 3.47688Z" fill="white"/>
</svg>
