<svg width="18" height="18" viewBox="0 0 18 18" fill="none" xmlns="http://www.w3.org/2000/svg">
<path d="M16.8736 4.56695C16.8823 4.43683 16.8494 4.30732 16.7797 4.19689C16.5871 3.88774 16.1655 3.78468 15.8384 3.96609L14.5179 4.6983V3.37246C14.5179 3.01388 14.2101 2.7234 13.8303 2.7234C13.4499 2.7234 13.1422 3.01388 13.1422 3.37187V5.46187L9.62276 7.41449L9.627 3.60087L11.5369 2.54381C11.8647 2.36302 11.9749 1.96526 11.7823 1.6555C11.5902 1.34633 11.1692 1.24209 10.8409 1.42407L9.62883 2.09483L9.63065 0.649668C9.63125 0.291084 9.32293 0.000609893 8.94373 0L8.93342 0.000609893L8.92313 0C8.90375 0 8.88557 0.006033 8.86619 0.0072363C8.84195 0.0096429 8.81652 0.0114561 8.79289 0.0168792C8.59662 0.0530277 8.42884 0.163913 8.3307 0.321826C8.26876 0.420275 8.23601 0.534116 8.2362 0.650261L8.23802 2.13642L7.00653 1.47049C6.67699 1.2921 6.2566 1.39877 6.06761 1.70974C5.94404 1.91223 5.94525 2.16113 6.07125 2.3618C6.12941 2.45642 6.2142 2.53778 6.32143 2.59564L8.23984 3.63523L8.24468 7.34156L4.85672 5.46187V3.37188C4.85672 3.01389 4.54899 2.72342 4.16918 2.72342C3.78877 2.72342 3.48105 3.01389 3.48105 3.37188V4.69832L2.16172 3.9661C1.83461 3.78409 1.4124 3.88776 1.22038 4.19692C1.15013 4.3084 1.11741 4.43798 1.12648 4.56695C1.1386 4.77728 1.25794 4.97796 1.46449 5.09187L2.82563 5.84698L1.58384 6.51654C1.25429 6.69493 1.13921 7.09149 1.32759 7.40245C1.4548 7.61217 1.68681 7.72969 1.92547 7.72969C2.04117 7.72969 2.15869 7.70257 2.26651 7.64412L4.1922 6.60574L7.63712 8.51735L4.3382 10.3476L2.4125 9.30924C2.30802 9.25272 2.19099 9.2231 2.07207 9.22307C1.83279 9.22307 1.60078 9.3406 1.47419 9.55093C1.28519 9.86189 1.40029 10.2584 1.72982 10.4368L2.97161 11.1058L1.60986 11.8615C1.40392 11.976 1.28398 12.1767 1.27247 12.387C1.264 12.5118 1.29306 12.6407 1.36636 12.7571C1.559 13.0656 1.9806 13.1693 2.3077 12.9879L3.62824 12.255V13.5815C3.62824 13.9401 3.93597 14.2305 4.31578 14.2305C4.69559 14.2305 5.0033 13.9401 5.0033 13.5815V11.4921L8.24408 9.69433L8.23923 13.2404L6.32082 14.2793C6.21833 14.3342 6.13207 14.4148 6.07064 14.5132C6.0093 14.6108 5.97647 14.7235 5.97582 14.8387C5.97518 14.9539 6.00675 15.0669 6.067 15.1653C6.25601 15.4762 6.67638 15.5835 7.00592 15.4051L8.23742 14.7386L8.2356 16.2247C8.23546 16.3409 8.26821 16.4547 8.33009 16.5532C8.42822 16.7111 8.59601 16.822 8.79228 16.8581C8.81652 16.8635 8.84074 16.8653 8.86558 16.8677C8.88496 16.8696 8.90314 16.875 8.92252 16.875L8.93283 16.8744L8.94312 16.875C9.32231 16.875 9.63065 16.5839 9.63004 16.2253L9.62821 14.7801L10.8403 15.4509C11.1674 15.6323 11.589 15.5292 11.7817 15.2195C11.9737 14.9103 11.8641 14.5126 11.5363 14.3312L9.62641 13.2741L9.62217 9.62082L12.9962 11.4927V13.5826C12.9962 13.9412 13.3033 14.2317 13.6837 14.2317C14.0635 14.2317 14.3713 13.9412 14.3713 13.5826V12.2568L15.6918 12.9884C16.0189 13.1704 16.4411 13.0668 16.6331 12.7576C16.7058 12.6413 16.7349 12.5129 16.7264 12.3876C16.7194 12.2788 16.6847 12.1735 16.6256 12.0817C16.5665 11.9899 16.4849 11.9145 16.3884 11.8627L15.0279 11.1076L16.2697 10.438C16.5992 10.2596 16.7143 9.86306 16.5253 9.5521C16.4624 9.45095 16.3743 9.36767 16.2696 9.31034C16.1648 9.25301 16.047 9.22356 15.9274 9.22485C15.8117 9.22485 15.6942 9.25196 15.5864 9.31043L13.6613 10.3488L10.3624 8.51856L13.8073 6.60696L15.7336 7.64592C15.8382 7.7022 15.9552 7.73161 16.074 7.7315C16.3127 7.7315 16.5447 7.61397 16.6719 7.40364C16.8603 7.09268 16.7458 6.69613 16.4163 6.51775L15.1745 5.84879L16.5356 5.09246C16.7416 4.97735 16.8615 4.77726 16.8736 4.56695Z" fill="white"/>
</svg>
