<svg width="16" height="15" viewBox="0 0 16 15" fill="none" xmlns="http://www.w3.org/2000/svg">
<path fill-rule="evenodd" clip-rule="evenodd" d="M2.95841 9.64637H13.0674C13.8032 9.64637 14.5001 9.35673 15.0295 8.83075C15.5626 8.30117 15.8561 7.59948 15.8561 6.8549C15.8561 6.12119 15.573 5.42812 15.059 4.9034C14.6258 4.46126 14.0692 4.17936 13.4653 4.09105C13.3398 1.8215 11.453 0.0136719 9.15174 0.0136719C7.48231 0.0136719 5.97917 0.972889 5.26434 2.4474C4.94457 2.2272 4.56326 2.10662 4.16456 2.10662C3.09402 2.10662 2.22307 2.97761 2.22307 4.04819C2.22307 4.08102 2.22388 4.11388 2.22557 4.14669C1.02515 4.47128 0.157745 5.57625 0.157745 6.84821C0.157745 8.39114 1.4141 9.64637 2.95841 9.64637ZM4.95834 12.0547C4.95834 12.2489 5.11583 12.4064 5.31006 12.4064C5.50429 12.4064 5.66178 12.2489 5.66178 12.0547V10.842C5.66178 10.6478 5.50429 10.4903 5.31006 10.4903C5.11583 10.4903 4.95834 10.6478 4.95834 10.842V12.0547ZM7.81872 14.5168C7.62449 14.5168 7.46701 14.3593 7.46701 14.165V12.2489C7.46701 12.0547 7.62449 11.8972 7.81872 11.8972C8.01295 11.8972 8.17044 12.0547 8.17044 12.2489V14.165C8.17044 14.3593 8.01295 14.5168 7.81872 14.5168ZM9.97571 12.0547C9.97571 12.2489 10.1332 12.4064 10.3274 12.4064C10.5217 12.4064 10.6791 12.2489 10.6791 12.0547V10.842C10.6791 10.6478 10.5217 10.4903 10.3274 10.4903C10.1332 10.4903 9.97571 10.6478 9.97571 10.842V12.0547Z" fill="white"/>
</svg>
