<svg width="18" height="18" viewBox="0 0 18 18" fill="none" xmlns="http://www.w3.org/2000/svg">
<path fill-rule="evenodd" clip-rule="evenodd" d="M8.62379 16.9124C8.73634 17.025 8.88899 17.0882 9.04817 17.0882C9.20631 17.0882 9.35806 17.0258 9.47044 16.9145C9.58282 16.8033 9.64675 16.6522 9.64833 16.494V14.4771L11.3427 15.4377C11.4331 15.4857 11.5345 15.5092 11.6368 15.5057L11.6468 15.5157C11.7762 15.5122 11.901 15.4669 12.0026 15.3866C12.1042 15.3063 12.177 15.1953 12.2103 15.0702C12.2436 14.9451 12.2356 14.8125 12.1874 14.6924C12.1392 14.5722 12.0534 14.4708 11.9429 14.4034L9.64833 13.1026V10.4885L11.5588 12.399C11.6703 12.5106 11.8212 12.5738 11.9789 12.575C12.0956 12.5726 12.209 12.5363 12.3054 12.4705C12.4017 12.4046 12.4767 12.3121 12.5213 12.2043C12.5659 12.0964 12.5781 11.9779 12.5563 11.8633C12.5346 11.7486 12.48 11.6428 12.399 11.5587L10.4765 9.63622L13.0893 9.63623L14.3936 11.9369C14.4461 12.0279 14.5216 12.1035 14.6125 12.1561C14.7035 12.2088 14.8066 12.2367 14.9117 12.2369C15.0187 12.238 15.1239 12.2096 15.2158 12.1549C15.3514 12.0741 15.4497 11.9431 15.4893 11.7903C15.529 11.6376 15.5069 11.4753 15.4279 11.3387L14.4603 9.63623L16.4941 9.63623L16.4947 9.63622C16.6537 9.63608 16.8061 9.57286 16.9185 9.46044C17.0311 9.34789 17.0943 9.19524 17.0943 9.03607C17.0943 8.87689 17.0311 8.72424 16.9185 8.61169C16.806 8.49914 16.6533 8.4359 16.4941 8.4359H14.4697L15.4278 6.74344C15.4824 6.60862 15.4862 6.45857 15.4384 6.32118C15.3907 6.1838 15.2947 6.06843 15.1682 5.99653C15.0418 5.92463 14.8935 5.9011 14.7511 5.9303C14.6086 5.9595 14.4815 6.03945 14.3936 6.15528L13.0956 8.4359H10.4985L12.399 6.5354C12.4857 6.41983 12.5278 6.27687 12.5175 6.13276C12.5073 5.98866 12.4454 5.85309 12.3433 5.75093C12.2411 5.64878 12.1055 5.5869 11.9614 5.57666C11.8173 5.56642 11.6744 5.6085 11.5588 5.69518L9.64833 7.60565V5.00707L11.9529 3.70055C12.0282 3.6652 12.0954 3.61456 12.1501 3.55187C12.2048 3.48918 12.2458 3.4158 12.2707 3.33639C12.2955 3.25697 12.3036 3.17326 12.2943 3.09058C12.2851 3.00789 12.2587 2.92802 12.217 2.85606C12.1752 2.78409 12.1189 2.7216 12.0517 2.67254C11.9845 2.62348 11.9079 2.58893 11.8266 2.57108C11.7453 2.55324 11.6612 2.55248 11.5797 2.56887C11.4981 2.58526 11.4208 2.61843 11.3527 2.66628L9.64833 3.63255V1.60005C9.6483 1.4409 9.58506 1.28827 9.47251 1.17574C9.35996 1.06322 9.20732 1 9.04817 1C8.88901 1 8.73637 1.06322 8.62383 1.17574C8.51128 1.28827 8.44803 1.4409 8.448 1.60005V3.62922L6.74949 2.6663C6.61467 2.61172 6.46462 2.60796 6.32723 2.65572C6.18985 2.70347 6.07448 2.79949 6.00258 2.92593C5.93068 3.05236 5.90715 3.2006 5.93635 3.34309C5.96555 3.48558 6.0455 3.61261 6.16133 3.70057L8.448 5.00194V7.60771L6.53547 5.69518C6.4199 5.6085 6.27693 5.56642 6.13283 5.57666C5.98872 5.5869 5.85315 5.64878 5.751 5.75093C5.64884 5.85309 5.58696 5.98866 5.57672 6.13276C5.56648 6.27687 5.60856 6.41983 5.69524 6.5354L7.59575 8.4359H4.99441L3.7007 6.1473C3.61274 6.03147 3.48571 5.95152 3.34322 5.92232C3.20073 5.89312 3.05249 5.91665 2.92606 5.98855C2.79962 6.06045 2.7036 6.17582 2.65585 6.3132C2.60809 6.45059 2.61185 6.60064 2.66643 6.73546L3.62914 8.4359H1.60016C1.44099 8.4359 1.28833 8.49914 1.17578 8.61169C1.06323 8.72424 1 8.87689 1 9.03607C1 9.19524 1.06323 9.34789 1.17578 9.46044C1.28831 9.57297 1.44091 9.63619 1.60004 9.63622L1.60015 9.63623L3.63596 9.63623L2.66644 11.3487C2.59008 11.486 2.57056 11.6477 2.61207 11.7991C2.65359 11.9506 2.75283 12.0798 2.8885 12.1589C2.97791 12.2104 3.07938 12.2374 3.18258 12.2369C3.2865 12.2379 3.38888 12.2118 3.4797 12.1613C3.57053 12.1108 3.64668 12.0376 3.70072 11.9489L5.01002 9.63623L7.61776 9.63622L5.69523 11.5587C5.61431 11.6428 5.55964 11.7486 5.53793 11.8633C5.51621 11.9779 5.52838 12.0964 5.57296 12.2043C5.61754 12.3121 5.69259 12.4046 5.78892 12.4705C5.88525 12.5363 5.99869 12.5726 6.11535 12.575C6.27308 12.5738 6.424 12.5106 6.53546 12.399L8.448 10.4864V13.0921L6.16138 14.3935C6.05085 14.4609 5.96509 14.5623 5.91689 14.6824C5.86869 14.8026 5.86065 14.9351 5.89395 15.0602C5.92725 15.1853 6.00012 15.2963 6.10168 15.3766C6.20324 15.4569 6.32804 15.5022 6.45746 15.5058C6.55912 15.5093 6.65989 15.4858 6.74954 15.4378L8.448 14.4646V16.488C8.448 16.6472 8.51123 16.7999 8.62379 16.9124Z" fill="white"/>
</svg>
