<svg width="18" height="18" viewBox="0 0 18 18" fill="none" xmlns="http://www.w3.org/2000/svg">
<path fill-rule="evenodd" clip-rule="evenodd" d="M14.0673 11.6464H3.95838C2.41407 11.6464 1.15771 10.3911 1.15771 8.84821C1.15771 7.57625 2.02512 6.47128 3.22554 6.14669C3.22385 6.11388 3.22304 6.08102 3.22304 6.04819C3.22304 4.97761 4.09399 4.10662 5.16453 4.10662C5.56323 4.10662 5.94454 4.2272 6.26431 4.4474C6.97914 2.97289 8.48228 2.01367 10.1517 2.01367C12.453 2.01367 14.3398 3.8215 14.4652 6.09105C15.0691 6.17936 15.6258 6.46126 16.0589 6.9034C16.573 7.42812 16.8561 8.12119 16.8561 8.8549C16.8561 9.59948 16.5625 10.3012 16.0294 10.8307C15.5 11.3567 14.8032 11.6464 14.0673 11.6464ZM7.35169 15.9162C7.15745 15.9162 6.99997 15.7587 6.99997 15.5645V14.3518C6.99997 14.1575 7.15745 14.0001 7.35169 14.0001C7.54592 14.0001 7.7034 14.1575 7.7034 14.3518V15.5645C7.7034 15.7587 7.54592 15.9162 7.35169 15.9162ZM9.99997 13.5645C9.99997 13.7587 10.1575 13.9162 10.3517 13.9162C10.5459 13.9162 10.7034 13.7587 10.7034 13.5645V12.3518C10.7034 12.1575 10.5459 12.0001 10.3517 12.0001C10.1575 12.0001 9.99997 12.1575 9.99997 12.3518V13.5645Z" fill="white"/>
</svg>
