<svg width="18" height="18" viewBox="0 0 18 18" fill="none" xmlns="http://www.w3.org/2000/svg">
<g clip-path="url(#clip0_185_233)">
<path fill-rule="evenodd" clip-rule="evenodd" d="M13.9096 10.6327H3.80067C2.25636 10.6327 1 9.37747 1 7.83453C1 6.56258 1.86741 5.45761 3.06782 5.13302C3.06613 5.10021 3.06532 5.06735 3.06532 5.03452C3.06532 3.96394 3.93628 3.09295 5.00682 3.09295C5.40552 3.09295 5.78682 3.21352 6.10659 3.43373C6.82143 1.95922 8.32456 1 9.99399 1C12.2953 1 14.1821 2.80783 14.3075 5.07738C14.9114 5.16568 15.468 5.44759 15.9012 5.88973C16.4153 6.41445 16.6984 7.10752 16.6984 7.84122C16.6984 8.58581 16.4048 9.2875 15.8717 9.81708C15.3423 10.3431 14.6455 10.6327 13.9096 10.6327ZM5.23327 15.1046L6.83026 10.9181L7.20399 11.0607L5.607 15.2472L5.23327 15.1046ZM10.597 11L8.99999 15.1865L9.37373 15.3291L10.9707 11.1426L10.597 11ZM13 15.1865L14.597 11L14.9707 11.1426L13.3737 15.3291L13 15.1865ZM4.59698 12L2.99999 16.1865L3.37373 16.3291L4.97072 12.1426L4.59698 12ZM5.9367 17.9766L8.19034 12.0688L8.56407 12.2113L6.31044 18.1192L5.9367 17.9766ZM11.9571 12.1506L9.70343 18.0585L10.0772 18.2011L12.3308 12.2932L11.9571 12.1506Z" fill="white"/>
</g>
<defs>
<clipPath id="clip0_185_233">
<rect width="18" height="18" fill="white"/>
</clipPath>
</defs>
</svg>
