<svg width="18" height="18" viewBox="0 0 18 18" fill="none" xmlns="http://www.w3.org/2000/svg">
<path fill-rule="evenodd" clip-rule="evenodd" d="M11.7977 6.9243C11.6991 7.00478 11.5756 7.04854 11.4483 7.04813C11.3031 7.04767 11.1639 6.98977 11.0613 6.88706C10.9712 6.79704 10.9152 6.67859 10.9028 6.5519C10.8904 6.4252 10.9223 6.29813 10.9931 6.19234C11.0639 6.08655 11.1693 6.00861 11.2911 5.97181C11.413 5.935 11.5438 5.94162 11.6614 5.99053C11.7546 6.02932 11.8348 6.09281 11.8939 6.1735C11.899 6.11839 11.9123 6.06426 11.9336 6.01295C11.9613 5.94598 12.0019 5.88512 12.0532 5.83386C12.1044 5.7826 12.1653 5.74194 12.2322 5.71419C12.2992 5.68644 12.371 5.67216 12.4435 5.67215C12.516 5.67214 12.5877 5.68641 12.6547 5.71414C12.7217 5.74188 12.7825 5.78253 12.8338 5.83378C12.8851 5.88503 12.9257 5.94588 12.9535 6.01284C12.9812 6.07981 12.9955 6.15159 12.9955 6.22407L12.9916 7.23095L13.6096 6.61291C13.6607 6.56186 13.7213 6.52137 13.788 6.49374C13.8547 6.46612 13.9262 6.4519 13.9984 6.4519C14.0705 6.4519 14.142 6.46612 14.2087 6.49374C14.2754 6.52137 14.336 6.56186 14.3871 6.61291C14.4381 6.66396 14.4786 6.72456 14.5062 6.79126C14.5339 6.85796 14.5481 6.92944 14.5481 7.00163C14.5481 7.07382 14.5339 7.14531 14.5062 7.21201C14.4786 7.2787 14.4381 7.33931 14.3871 7.39035L13.769 8.00839L14.7759 8.00447C14.8484 8.00448 14.9202 8.01877 14.9871 8.04651C15.0541 8.07426 15.115 8.11493 15.1662 8.16619C15.2175 8.21745 15.2581 8.2783 15.2858 8.34528C15.3136 8.41225 15.3278 8.48403 15.3278 8.55652C15.3278 8.629 15.3135 8.70078 15.2858 8.76775C15.2581 8.83471 15.2174 8.89556 15.1661 8.94681C15.1149 8.99806 15.054 9.03871 14.987 9.06645C14.9201 9.09418 14.8483 9.10845 14.7758 9.10844L12.6729 9.10452L11.8256 9.95187L13.6098 9.94808C13.7561 9.94808 13.8965 10.0062 14 10.1097C14.1035 10.2132 14.1617 10.3536 14.1617 10.5C14.1617 10.6464 14.1035 10.7868 14 10.8903C13.8965 10.9938 13.7561 11.0519 13.6098 11.0519L11.8256 11.0481L12.6729 11.8955L14.7758 11.8916C14.8483 11.8916 14.9201 11.9058 14.987 11.9336C15.054 11.9613 15.1149 12.0019 15.1661 12.0532C15.2174 12.1044 15.2581 12.1653 15.2858 12.2323C15.3135 12.2992 15.3278 12.371 15.3278 12.4435C15.3278 12.516 15.3136 12.5878 15.2858 12.6547C15.2581 12.7217 15.2175 12.7826 15.1662 12.8338C15.115 12.8851 15.0541 12.9257 14.9871 12.9535C14.9202 12.9812 14.8484 12.9955 14.7759 12.9955L13.769 12.9916L14.3871 13.6096C14.4902 13.7127 14.5481 13.8526 14.5481 13.9984C14.5481 14.1442 14.4902 14.284 14.3871 14.3871C14.284 14.4902 14.1442 14.5481 13.9984 14.5481C13.8526 14.5481 13.7127 14.4902 13.6096 14.3871L12.9916 13.7691L12.9955 14.7759C12.9955 14.8484 12.9812 14.9202 12.9535 14.9872C12.9257 15.0541 12.8851 15.115 12.8338 15.1662C12.7825 15.2175 12.7217 15.2581 12.6547 15.2859C12.5877 15.3136 12.516 15.3279 12.4435 15.3279C12.371 15.3278 12.2992 15.3136 12.2322 15.2858C12.1653 15.2581 12.1044 15.2174 12.0532 15.1661C12.0019 15.1149 11.9613 15.054 11.9336 14.987C11.9058 14.9201 11.8915 14.8483 11.8916 14.7758L11.8955 12.6729L11.0481 11.8256L11.0519 13.6098C11.0519 13.6822 11.0376 13.754 11.0099 13.821C10.9822 13.8879 10.9415 13.9488 10.8903 14C10.839 14.0513 10.7782 14.0919 10.7112 14.1197C10.6442 14.1474 10.5725 14.1617 10.5 14.1617C10.4275 14.1617 10.3558 14.1474 10.2888 14.1197C10.2218 14.0919 10.161 14.0513 10.1097 14C10.0585 13.9488 10.0178 13.8879 9.99009 13.821C9.96235 13.754 9.94808 13.6822 9.94808 13.6098L9.95188 11.8256L9.10453 12.6729L9.10844 14.7758C9.10846 14.9222 9.05032 15.0626 8.94681 15.1661C8.84331 15.2697 8.70292 15.3278 8.55652 15.3279C8.41013 15.3279 8.26972 15.2697 8.16619 15.1662C8.06267 15.0627 8.0045 14.9223 8.00448 14.7759L8.0084 13.7691L7.39036 14.3871C7.28727 14.4902 7.14744 14.5481 7.00164 14.5481C6.85584 14.5481 6.71602 14.4902 6.61292 14.3871C6.50983 14.284 6.45191 14.1442 6.45191 13.9984C6.45191 13.8526 6.50983 13.7127 6.61292 13.6096L7.23096 12.9916L6.22408 12.9955C6.1516 12.9955 6.07982 12.9812 6.01286 12.9535C5.94589 12.9257 5.88504 12.8851 5.83379 12.8338C5.78254 12.7826 5.74189 12.7217 5.71416 12.6547C5.68642 12.5878 5.67215 12.516 5.67216 12.4435C5.67217 12.371 5.68645 12.2992 5.7142 12.2323C5.74195 12.1653 5.78261 12.1044 5.83388 12.0532C5.88514 12.0019 5.94599 11.9613 6.01296 11.9336C6.06427 11.9123 6.11839 11.899 6.17349 11.8939C6.10705 11.8453 6.0519 11.782 6.01272 11.7083C5.95294 11.5959 5.934 11.4663 5.95914 11.3415C5.98428 11.2167 6.05194 11.1045 6.15057 11.024C6.2492 10.9436 6.3727 10.8998 6.5 10.9002C6.64523 10.9007 6.78438 10.9586 6.88706 11.0613C6.97707 11.1513 7.03306 11.2697 7.04549 11.3964C7.05791 11.5231 7.026 11.6502 6.95518 11.756C6.9196 11.8091 6.87531 11.8553 6.82458 11.8927L8.32709 11.8955L9.17444 11.0481L8.9234 11.0487C8.89899 11.0916 8.86888 11.1312 8.83381 11.1662C8.78254 11.2175 8.72169 11.2581 8.65472 11.2859C8.58774 11.3136 8.51597 11.3279 8.44348 11.3279C8.37099 11.3278 8.29922 11.3136 8.23225 11.2858C8.16528 11.2581 8.10444 11.2174 8.05319 11.1661C8.0187 11.1316 7.98902 11.0928 7.96484 11.0507L7.39024 11.0519C7.31776 11.0519 7.24599 11.0376 7.17903 11.0099C7.11207 10.9822 7.05123 10.9415 6.99998 10.8903C6.94872 10.839 6.90807 10.7782 6.88033 10.7112C6.8526 10.6442 6.83832 10.5725 6.83832 10.5C6.83832 10.4275 6.8526 10.3558 6.88033 10.2888C6.90807 10.2218 6.94872 10.161 6.99998 10.1097C7.05123 10.0585 7.11207 10.0178 7.17903 9.99009C7.24599 9.96235 7.31776 9.94808 7.39024 9.94808L7.8931 9.94915L7.89467 9.10533L7.05085 9.1069L7.05192 9.60977C7.05192 9.68224 7.03765 9.75401 7.00991 9.82098C6.98217 9.88794 6.94152 9.94878 6.89027 10C6.83902 10.0513 6.77817 10.0919 6.71121 10.1197C6.64425 10.1474 6.57248 10.1617 6.5 10.1617C6.42752 10.1617 6.35575 10.1474 6.28879 10.1197C6.22183 10.0919 6.16098 10.0513 6.10973 10C6.05848 9.94878 6.01783 9.88794 5.99009 9.82098C5.96235 9.75401 5.94808 9.68224 5.94808 9.60977L5.9493 9.03515C5.90745 9.01113 5.86859 8.98152 5.83388 8.94681C5.73035 8.8433 5.67218 8.70291 5.67216 8.55652C5.67215 8.41012 5.73029 8.26972 5.83379 8.16619C5.86909 8.13088 5.90868 8.10085 5.95134 8.0766L5.95188 7.82557L5.10453 8.67292L5.10732 10.1754C5.13448 10.1386 5.16631 10.105 5.20226 10.0757C5.30089 9.99522 5.42439 9.95146 5.55169 9.95187C5.69692 9.95233 5.83607 10.0102 5.93875 10.1129C6.02876 10.203 6.08475 10.3214 6.09718 10.4481C6.1096 10.5748 6.07768 10.7019 6.00687 10.8077C5.93606 10.9134 5.83074 10.9914 5.70888 11.0282C5.58702 11.065 5.45616 11.0584 5.33863 11.0095C5.24541 10.9707 5.16516 10.9072 5.10612 10.8265C5.09435 10.9543 5.0383 11.0746 4.94681 11.1661C4.84331 11.2697 4.70291 11.3278 4.55652 11.3279C4.41013 11.3279 4.26972 11.2697 4.16619 11.1662C4.06267 11.0627 4.0045 10.9223 4.00448 10.7759L4.0084 9.76905L3.39036 10.3871C3.28727 10.4902 3.14744 10.5481 3.00164 10.5481C2.85584 10.5481 2.71602 10.4902 2.61292 10.3871C2.50983 10.284 2.45191 10.1442 2.45191 9.99837C2.45191 9.85257 2.50983 9.71274 2.61292 9.60965L3.23096 8.99161L2.22408 8.99553C2.1516 8.99552 2.07982 8.98123 2.01285 8.95349C1.94589 8.92574 1.88504 8.88508 1.83379 8.83381C1.78254 8.78255 1.74189 8.7217 1.71416 8.65472C1.68642 8.58775 1.67215 8.51597 1.67216 8.44348C1.67217 8.371 1.68646 8.29922 1.7142 8.23225C1.74195 8.16529 1.78261 8.10444 1.83388 8.05319C1.88514 8.00194 1.94599 7.96129 2.01296 7.93356C2.07994 7.90582 2.15172 7.89155 2.2242 7.89156L4.32709 7.89548L5.17444 7.04813L3.39024 7.05192C3.31776 7.05192 3.24599 7.03765 3.17903 7.00991C3.11207 6.98217 3.05123 6.94152 2.99998 6.89027C2.94872 6.83902 2.90807 6.77817 2.88033 6.71121C2.8526 6.64425 2.83832 6.57248 2.83832 6.5C2.83832 6.42752 2.8526 6.35575 2.88033 6.28879C2.90807 6.22183 2.94872 6.16098 2.99998 6.10973C3.05123 6.05848 3.11207 6.01783 3.17903 5.99009C3.24599 5.96235 3.31776 5.94808 3.39024 5.94808L5.17444 5.95187L4.32709 5.10452L2.2242 5.10844C2.07781 5.10846 1.9374 5.05031 1.83388 4.94681C1.73035 4.8433 1.67218 4.70291 1.67216 4.55652C1.67215 4.41012 1.73029 4.26972 1.83379 4.16619C1.9373 4.06266 2.07769 4.00449 2.22408 4.00447L3.23096 4.00839L2.61292 3.39035C2.56188 3.33931 2.52138 3.2787 2.49376 3.21201C2.46613 3.14531 2.45191 3.07382 2.45191 3.00163C2.45191 2.92944 2.46613 2.85796 2.49376 2.79126C2.52138 2.72456 2.56188 2.66396 2.61292 2.61291C2.66397 2.56186 2.72457 2.52137 2.79127 2.49374C2.85797 2.46612 2.92945 2.4519 3.00164 2.4519C3.07383 2.4519 3.14532 2.46612 3.21202 2.49374C3.27871 2.52137 3.33931 2.56186 3.39036 2.61291L4.0084 3.23095L4.00448 2.22407C4.00449 2.15159 4.01877 2.07981 4.04652 2.01284C4.07427 1.94588 4.11493 1.88503 4.16619 1.83378C4.21745 1.78253 4.27831 1.74188 4.34528 1.71414C4.41225 1.68641 4.48403 1.67214 4.55652 1.67215C4.62901 1.67216 4.70078 1.68644 4.76775 1.71419C4.83472 1.74194 4.89556 1.7826 4.94681 1.83386C4.99806 1.88512 5.03872 1.94598 5.06645 2.01295C5.09418 2.07992 5.10845 2.1517 5.10844 2.22419L5.10453 4.32708L5.95188 5.17443L5.94808 3.39024C5.94808 3.24386 6.00623 3.10347 6.10973 2.99997C6.21324 2.89646 6.35362 2.83831 6.5 2.83831C6.64638 2.83831 6.78676 2.89646 6.89027 2.99997C6.99377 3.10347 7.05192 3.24386 7.05192 3.39024L7.04812 5.17443L7.89547 4.32708L7.89156 2.22419C7.89155 2.1517 7.90582 2.07992 7.93355 2.01295C7.96128 1.94598 8.00194 1.88512 8.05319 1.83386C8.10444 1.7826 8.16528 1.74194 8.23225 1.71419C8.29922 1.68644 8.37099 1.67216 8.44348 1.67215C8.51597 1.67214 8.58774 1.68641 8.65472 1.71414C8.72169 1.74188 8.78254 1.78253 8.83381 1.83378C8.88507 1.88503 8.92573 1.94588 8.95348 2.01284C8.98123 2.07981 8.99551 2.15159 8.99552 2.22407L8.9916 3.23095L9.60964 2.61291C9.66068 2.56186 9.72129 2.52137 9.78798 2.49374C9.85468 2.46612 9.92617 2.4519 9.99836 2.4519C10.0705 2.4519 10.142 2.46612 10.2087 2.49374C10.2754 2.52137 10.336 2.56186 10.3871 2.61291C10.4381 2.66396 10.4786 2.72456 10.5062 2.79126C10.5339 2.85796 10.5481 2.92944 10.5481 3.00163C10.5481 3.07382 10.5339 3.14531 10.5062 3.21201C10.4786 3.2787 10.4381 3.33931 10.3871 3.39035L9.76904 4.00839L10.7759 4.00447C10.8484 4.00448 10.9202 4.01877 10.9871 4.04651C11.0541 4.07426 11.115 4.11493 11.1662 4.16619C11.2175 4.21745 11.2581 4.2783 11.2858 4.34528C11.3136 4.41225 11.3278 4.48403 11.3278 4.55652C11.3278 4.629 11.3135 4.70078 11.2858 4.76775C11.2581 4.83471 11.2174 4.89556 11.1661 4.94681C11.1149 4.99806 11.054 5.03871 10.987 5.06645C10.9357 5.08769 10.8816 5.10103 10.8265 5.10611C10.893 5.15473 10.9481 5.218 10.9873 5.29167C11.0471 5.40406 11.066 5.53371 11.0409 5.6585C11.0157 5.78329 10.9481 5.8955 10.8494 5.97597C10.7508 6.05645 10.6273 6.10021 10.5 6.0998C10.3548 6.09935 10.2156 6.04144 10.1129 5.93873C10.0229 5.84872 9.96694 5.73026 9.95451 5.60357C9.94209 5.47688 9.974 5.3498 10.0448 5.24401C10.0804 5.19086 10.1247 5.14473 10.1754 5.10732L8.67291 5.10452L7.82556 5.95187L8.0766 5.95134C8.10101 5.9084 8.13112 5.86885 8.16619 5.83378C8.21745 5.78253 8.27831 5.74188 8.34528 5.71414C8.41225 5.68641 8.48403 5.67214 8.55652 5.67215C8.62901 5.67216 8.70078 5.68644 8.76775 5.71419C8.83472 5.74194 8.89556 5.7826 8.94681 5.83386C8.98129 5.86835 9.01098 5.90718 9.03516 5.9493L9.60976 5.94808C9.75613 5.94808 9.89652 6.00622 10 6.10973C10.1035 6.21324 10.1617 6.35362 10.1617 6.5C10.1617 6.64638 10.1035 6.78676 10 6.89027C9.89652 6.99377 9.75613 7.05192 9.60976 7.05192L9.1069 7.05085L9.10533 7.89467L9.94915 7.8931L9.94808 7.39023C9.94808 7.24386 10.0062 7.10347 10.1097 6.99997C10.2132 6.89646 10.3536 6.83831 10.5 6.83831C10.6464 6.83831 10.7868 6.89646 10.8903 6.99997C10.9938 7.10347 11.0519 7.24386 11.0519 7.39023L11.0507 7.96485C11.0928 7.98903 11.1316 8.01871 11.1661 8.05319C11.2174 8.10444 11.2581 8.16529 11.2858 8.23225C11.3135 8.29922 11.3278 8.371 11.3278 8.44348C11.3278 8.51597 11.3136 8.58775 11.2858 8.65472C11.2581 8.7217 11.2175 8.78255 11.1662 8.83381C11.1311 8.86888 11.0916 8.89899 11.0487 8.9234L11.0481 9.17443L11.8955 8.32708L11.8927 6.8246C11.8655 6.86143 11.8337 6.89497 11.7977 6.9243ZM9.95149 8.99232L9.76904 8.99161L9.95188 9.17443L9.95149 8.99232ZM9.17444 9.95187L8.9916 9.76905L8.99231 9.95149L9.17444 9.95187ZM7.82557 7.04813L8.0084 7.23095L8.00769 7.04851L7.82557 7.04813ZM7.04851 8.00768L7.23095 8.00839L7.04812 7.82557L7.04851 8.00768ZM1.20226 6.0757C1.30089 5.99522 1.42439 5.95146 1.55169 5.95187C1.69692 5.95233 1.83607 6.01023 1.93875 6.11294C2.02876 6.20296 2.08475 6.32141 2.09718 6.4481C2.1096 6.5748 2.07768 6.70187 2.00687 6.80766C1.93606 6.91345 1.83074 6.99139 1.70888 7.02819C1.58702 7.065 1.45616 7.05838 1.33863 7.00947C1.2211 6.96056 1.12418 6.8724 1.0644 6.76001C1.00463 6.64762 0.985691 6.51797 1.01083 6.39318C1.03597 6.26838 1.10363 6.15618 1.20226 6.0757ZM6.84943 1.97597C6.7508 2.05645 6.6273 2.10021 6.5 2.0998C6.35477 2.09935 6.21562 2.04144 6.11294 1.93873C6.02293 1.84872 5.96694 1.73026 5.95451 1.60357C5.94209 1.47688 5.974 1.3498 6.04481 1.24401C6.11563 1.13823 6.22094 1.06029 6.34281 1.02348C6.46467 0.98668 6.59553 0.993296 6.71306 1.0422C6.83058 1.09111 6.92751 1.17928 6.98728 1.29167C7.04706 1.40406 7.066 1.53371 7.04086 1.6585C7.01572 1.78329 6.94806 1.8955 6.84943 1.97597ZM15.7977 10.9243C15.6991 11.0048 15.5756 11.0485 15.4483 11.0481C15.3031 11.0477 15.1639 10.9898 15.0613 10.8871C14.9712 10.797 14.9152 10.6786 14.9028 10.5519C14.8904 10.4252 14.9223 10.2981 14.9931 10.1923C15.0639 10.0866 15.1693 10.0086 15.2911 9.97181C15.413 9.93501 15.5438 9.94162 15.6614 9.99053C15.7789 10.0394 15.8758 10.1276 15.9356 10.24C15.9954 10.3524 16.0143 10.482 15.9892 10.6068C15.964 10.7316 15.8964 10.8438 15.7977 10.9243ZM10.1506 15.024C10.2492 14.9436 10.3727 14.8998 10.5 14.9002C10.6452 14.9007 10.7844 14.9586 10.8871 15.0613C10.9771 15.1513 11.0331 15.2697 11.0455 15.3964C11.0579 15.5231 11.026 15.6502 10.9552 15.756C10.8844 15.8618 10.7791 15.9397 10.6572 15.9765C10.5353 16.0133 10.4045 16.0067 10.2869 15.9578C10.1694 15.9089 10.0725 15.8207 10.0127 15.7083C9.95294 15.5959 9.934 15.4663 9.95914 15.3415C9.98428 15.2167 10.0519 15.1045 10.1506 15.024Z" fill="white"/>
</svg>
