<svg xmlns="http://www.w3.org/2000/svg" fill="none" viewBox="0 0 16 16" class="design-iconfont">
  <path fill-rule="evenodd" clip-rule="evenodd" d="M11 10C11.0155 10 11.0309 9.99965 11.0463 9.99895C11.5089 10.1331 12.0149 9.91597 12.2278 9.4649L14.914 3.77353C15.1468 3.28028 14.9413 2.69147 14.4522 2.45013C13.9509 2.20278 13.3442 2.41449 13.1056 2.92001L10.708 8H4.99999C4.9752 8 4.95062 8.0009 4.92628 8.00267C4.46844 7.90207 3.98535 8.13661 3.79375 8.58863L1.86785 13.1322C1.66136 13.6193 1.87079 14.183 2.34528 14.4171C2.85995 14.671 3.48224 14.4398 3.70622 13.9114L5.36417 10H11Z" fill="#1DB28E"/>
  <path fill-rule="evenodd" clip-rule="evenodd" d="M8.75 6.49998C8.82976 6.49998 8.9008 6.46262 8.94658 6.40446C9.01744 6.38995 9.0815 6.34495 9.11783 6.27584L11.1254 2.4568C11.189 2.33571 11.1435 2.18594 11.0233 2.12073C10.9008 2.05432 10.7477 2.10085 10.6828 2.22417L8.69802 5.99998H3.55525C3.45582 5.99998 3.36994 6.05802 3.32967 6.14208C3.30347 6.16258 3.28095 6.18867 3.26408 6.21978L1.11917 10.1757C1.05336 10.2971 1.09841 10.4488 1.21978 10.5146C1.34116 10.5805 1.49291 10.5354 1.55872 10.414L3.68093 6.49998H8.75Z" fill="#467CF3"/>
</svg>
