<svg xmlns="http://www.w3.org/2000/svg" fill="none" viewBox="0 0 16 16" class="design-iconfont">
  <path d="M14.552 7.55166H10.7832V5.66541C10.7832 5.41775 10.5825 5.21707 10.3348 5.21707H8.44853V1.44834C8.44853 1.20068 8.24785 1 8.00018 1C7.75251 1 7.55183 1.20068 7.55183 1.44834V5.21689H5.66535C5.41768 5.21689 5.217 5.41757 5.217 5.66523V7.55166H1.44835C1.20068 7.55166 1 7.75234 1 8C1 8.24766 1.20068 8.44834 1.44835 8.44834H5.217V10.3348C5.217 10.5824 5.41768 10.7831 5.66535 10.7831H7.55219C7.55201 10.7894 7.55165 10.7957 7.55165 10.8021V14.5517C7.55165 14.7993 7.75233 15 8 15C8.24767 15 8.44835 14.7993 8.44835 14.5517V10.8021C8.44835 10.7958 8.44817 10.7894 8.44781 10.7831H10.3346C10.5823 10.7831 10.783 10.5824 10.783 10.3348V8.44834H14.5516C14.7993 8.44834 15 8.24766 15 8C15 7.75234 14.7995 7.55166 14.552 7.55166V7.55166ZM9.88648 9.88643H6.1137V6.11375H9.88648V9.88643Z" fill="#1DB28E"/>
   <path d="M7 8.03438C7 8.30871 7.10898 8.57181 7.30296 8.76579C7.49695 8.95978 7.76004 9.06875 8.03438 9.06875C8.30871 9.06875 8.57181 8.95978 8.76579 8.76579C8.95978 8.57181 9.06875 8.30871 9.06875 8.03438C9.06875 7.89854 9.042 7.76403 8.99002 7.63854C8.93803 7.51304 8.86184 7.39901 8.76579 7.30296C8.66974 7.20691 8.55571 7.13072 8.43022 7.07874C8.30472 7.02676 8.17021 7 8.03438 7C7.89854 7 7.76403 7.02676 7.63854 7.07874C7.51304 7.13072 7.39901 7.20691 7.30296 7.30296C7.20691 7.39901 7.13072 7.51304 7.07874 7.63854C7.02676 7.76403 7 7.89854 7 8.03438Z" fill="#467CF3"/>
</svg>
