<svg width="46" height="46" viewBox="0 0 46 46" fill="none" xmlns="http://www.w3.org/2000/svg">
<path d="M25.4263 44.5847C35.4344 44.5847 43.5476 36.4715 43.5476 26.4634C43.5476 16.4553 35.4344 8.34207 25.4263 8.34207C15.4182 8.34207 7.30498 16.4553 7.30498 26.4634C7.30498 36.4715 15.4182 44.5847 25.4263 44.5847Z" fill="#00FFFF"/>
<path fill-rule="evenodd" clip-rule="evenodd" d="M29.957 3.81303C29.957 5.48089 28.6049 6.83296 26.937 6.83296C25.4561 6.83296 24.2241 5.76693 23.9666 4.36035C12.4139 5.11193 3.27586 14.7207 3.27586 26.4634H2.27586C2.27586 14.1735 11.8529 4.12013 23.951 3.35927C24.1698 1.90668 25.4234 0.793091 26.937 0.793091C28.6049 0.793091 29.957 2.14516 29.957 3.81303Z" fill="white"/>
</svg>
