<?xml version="1.0" encoding="UTF-8"?>
<svg width="34px" height="34px" viewBox="0 0 34 34" version="1.1" xmlns="http://www.w3.org/2000/svg" xmlns:xlink="http://www.w3.org/1999/xlink">
    <title>icon/map/dark/贴地距离</title>
    <g id="icon/map/dark/贴地距离" stroke="none" stroke-width="1" fill="none" fill-rule="evenodd">
        <g id="icon" fill-rule="nonzero">
            <path d="M28,0 C31.3137085,0 34,2.6862915 34,6 L34,28 C34,31.3137085 31.3137085,34 28,34 L6,34 C2.6862915,34 0,31.3137085 0,28 L0,6 C0,2.6862915 2.6862915,0 6,0 L28,0 Z M28,1 L6,1 C3.3112453,1 1.11818189,3.12230671 1.00461951,5.78311038 L1,6 L1,17.755 L8.79310345,25.5498276 L20.1422361,14.1995665 C20.274701,14.5954261 20.4658659,14.9643904 20.7053952,15.2961239 L8.79310345,27.2083321 L1,19.413 L1,28 C1,30.6887547 3.12230671,32.8818181 5.78311038,32.9953805 L6,33 L28,33 C30.6887547,33 32.8818181,30.8776933 32.9953805,28.2168896 L33,28 L33,6 C33,3.3112453 30.8776933,1.11818189 28.2168896,1.00461951 L28,1 Z M32.9994891,8.379 L32.9994891,10.036 L27.5517241,15.4841942 L27.3635703,15.2961239 C27.7847623,14.7127987 28.0564103,14.0143547 28.1223192,13.2569872 L32.9994891,8.379 Z" id="color_w" fill="#FFFFFF"></path>
            <path d="M25.0344828,17 L25.0344828,31.6551724 L23.0344828,31.6551724 L23.0344828,17 L25.0344828,17 Z M24.0344828,9.96551724 C25.6532484,9.96551724 26.9655172,11.2777861 26.9655172,12.8965517 C26.9655172,14.5153174 25.6532484,15.8275862 24.0344828,15.8275862 C22.4157171,15.8275862 21.1034483,14.5153174 21.1034483,12.8965517 C21.1034483,11.2777861 22.4157171,9.96551724 24.0344828,9.96551724 Z M25.0344828,2.34482759 L25.0344828,8.79310345 L23.0344828,8.79310345 L23.0344828,2.34482759 L25.0344828,2.34482759 Z" id="color_g" fill="#00FFFF"></path>
        </g>
    </g>
</svg>