<svg xmlns="http://www.w3.org/2000/svg" fill="none" viewBox="0 0 16 16" class="design-iconfont">
  <path fill-rule="evenodd" clip-rule="evenodd" d="M10.9285 4H14C14.2652 4 14.5196 4.10316 14.7071 4.28679C14.8946 4.47042 15 4.71947 15 4.97917V6.16812C15 6.42781 14.8946 6.67686 14.7071 6.86049C14.5196 7.04412 14.2652 7.14728 14 7.14728H13.75V14.2112C13.75 14.4709 13.6446 14.72 13.4571 14.9036C13.2696 15.0872 13.0152 15.1904 12.75 15.1904H3.25C2.98478 15.1904 2.73043 15.0872 2.54289 14.9036C2.35536 14.72 2.25 14.4709 2.25 14.2112V7.14728H2C1.73478 7.14728 1.48043 7.04412 1.29289 6.86049C1.10536 6.67686 1 6.42781 1 6.16812V4.97917C1 4.71947 1.10536 4.47042 1.29289 4.28679C1.48043 4.10316 1.73478 4 2 4H10.9285ZM4.75 11C4.49112 11 4.28125 11.2055 4.28125 11.459V13.7539C4.28125 14.0074 4.49112 14.2129 4.75 14.2129C5.00888 14.2129 5.21875 14.0074 5.21875 13.7539V11.459C5.21875 11.2055 5.00888 11 4.75 11ZM11.3125 11C11.0536 11 10.8438 11.2055 10.8438 11.459V13.7539C10.8438 14.0074 11.0536 14.2129 11.3125 14.2129C11.5714 14.2129 11.7813 14.0074 11.7813 13.7539V11.459C11.7813 11.2055 11.5714 11 11.3125 11ZM6.625 12.377C6.625 12.1235 6.83487 11.918 7.09375 11.918C7.35263 11.918 7.5625 12.1235 7.5625 12.377V13.7539C7.5625 14.0074 7.35263 14.2129 7.09375 14.2129C6.83487 14.2129 6.625 14.0074 6.625 13.7539V12.377ZM9.4375 11.918C9.17862 11.918 8.96875 12.1235 8.96875 12.377V13.7539C8.96875 14.0074 9.17862 14.2129 9.4375 14.2129C9.69639 14.2129 9.90625 14.0074 9.90625 13.7539V12.377C9.90625 12.1235 9.69639 11.918 9.4375 11.918ZM3.5 5C3.22386 5 3 5.22386 3 5.5C3 5.77614 3.22386 6 3.5 6H12.5C12.7761 6 13 5.77614 13 5.5C13 5.22386 12.7761 5 12.5 5H3.5Z" fill="#1DB28E"/>
  <path d="M6 2C6 1.44772 6.44772 1 7 1H9C9.55228 1 10 1.44772 10 2V4H6V2Z" fill="#467CF3"/>
</svg>
