<?xml version="1.0" encoding="UTF-8"?>
<svg width="34px" height="34px" viewBox="0 0 34 34" version="1.1" xmlns="http://www.w3.org/2000/svg" xmlns:xlink="http://www.w3.org/1999/xlink">
    <g id="icon/map/dark/剖面分析" stroke="none" stroke-width="1" fill="none" fill-rule="evenodd">
        <g id="icon" fill-rule="nonzero">
            <path d="M1,0 L1,33 L34,33 L34,34 L0,34 L0,0 L1,0 Z M11,4 C13.6785714,4 15.161352,5.99298469 16.3380671,8.19950346 L16.6150579,8.73225674 L16.8830289,9.26774326 L17.4028448,10.3250501 L17.6601562,10.8359375 C18.5625,12.59375 19.5,14 21,14 C22.5111111,14 23.451358,13.1437037 24.2520604,12.1320055 L24.5295693,11.7696241 L25.2002963,10.8521481 C26.1377778,9.59111111 27.1333333,8.53333333 29,9 C29.7111111,9.17777778 30.3511111,9.82962963 30.92,10.9555556 L31.0885333,11.3075556 C31.1162667,11.3685926 31.1438222,11.4308148 31.1712,11.4942222 L31.3333333,11.8888889 L31.4912,12.312 C31.5171556,12.3848889 31.5429333,12.458963 31.5685333,12.5342222 L31.72,13 C31.7697778,13.16 31.8188444,13.3247407 31.8672,13.4942222 L32.0101333,14.0168889 L32.08,14.2888889 L32.08,14.2888889 L32.2165333,14.8542222 C32.2389333,14.9508148 32.2611556,15.0485926 32.2832,15.1475556 L32.4133333,15.7555556 L32.5392,16.392 L32.6608,17.0568889 L32.7781333,17.7502222 L32.8912,18.472 C32.9096889,18.5946667 32.928,18.7185185 32.9461333,18.8435556 L33.0528,19.608 L33.1552,20.4008889 L33.2533333,21.2222222 L33.3472,22.072 L33.4368,22.9502222 L33.5221333,23.8568889 L33.6032,24.792 L33.7168,26.248 L33.7872,27.2542222 L33.8533333,28.2888889 L33.9152,29.352 L34,31 L3,31 L3.00151971,15.7143097 L3.0138214,15.143505 C3.02001224,14.9534607 3.02831468,14.7637044 3.03879271,14.574428 L3.07681756,14.0082305 C3.49382716,8.74074074 5.66666667,4 11,4 Z M11,5 C6.45823337,5 4.08409929,9.13001712 4.00219424,15.6485195 L4,16 L4,30 L32.948,30 L32.8874239,28.9028545 L32.8230629,27.8578678 L32.7543114,26.841704 L32.681256,25.8544343 L32.5637929,24.4278622 L32.4803575,23.5131397 L32.3477309,22.1957226 L32.2544576,21.353993 L32.1574009,20.5415853 L32.0566476,19.7585709 L31.9522845,19.0050209 L31.8443983,18.2810068 L31.7330758,17.5865998 L31.6184037,16.9218712 L31.5004688,16.2868923 L31.3793578,15.6817344 L31.2551575,15.1064689 L31.1279547,14.5611669 C31.1065088,14.4727842 31.0849415,14.3856529 31.0632544,14.2997746 L30.9317104,13.7995517 L30.7973807,13.3294708 C30.7521495,13.1778087 30.7064685,13.0311821 30.6603521,12.889603 L30.5207113,12.4800196 L30.3785451,12.100792 C29.9005451,10.8873722 29.3819007,10.18107 28.8370706,9.99376863 L28.7574644,9.9701425 C27.7323518,9.71386436 27.1582999,9.98282078 26.2304123,11.1546033 L25.954978,11.5142912 L25.5778106,12.0315475 C24.0571139,14.1247417 22.9698985,15 21,15 C19.1495208,15 18.0819353,13.8528276 16.7314039,11.2155019 L15.8555728,9.4472136 L15.7032242,9.1462933 L15.4041711,8.57942286 C14.0239827,6.04166418 12.8390665,5 11,5 Z" id="color_w" fill="#FFFFFF"></path>
            <path d="M18.1469208,14.9909092 C18.4139501,15.2213343 18.6930495,15.411159 18.9904216,15.5615434 L5.54992283,29 L5,29 L4.99992283,28.136 Z M20.0488608,15.9166634 C20.3459852,15.9724677 20.6617131,16 21,16 C21.1353878,16 21.2684844,15.9942719 21.3993285,15.9832035 L8.37792283,29 L6.96492283,29 Z M28,11 C28.2530636,11 28.5010077,11.1775658 28.7363703,11.4699004 L11.2059228,29 L9.79192283,29 L23.4812857,15.3130908 C25.2538303,14.2992635 26.457055,12.4246976 27.2738183,11.5179805 L27.5827888,11.2091509 C27.7382992,11.0759584 27.8767454,11 28,11 Z M29.2690617,12.3510219 C29.4180804,12.6586132 29.5578446,12.9986918 29.6857142,13.3490425 L14.0349228,29 L12.6199228,29 Z M30.0336471,14.4178031 C30.1391734,14.7812151 30.2288672,15.1314272 30.2997343,15.4432422 L30.2997343,15.4432422 L30.3209228,15.542 L16.8629228,29 L15.4489228,29 Z M30.5643103,16.7124454 C30.6039292,16.9193454 30.6429001,17.1309727 30.6812213,17.3473225 L30.6812213,17.3473225 L30.7769228,17.915 L19.6919228,29 L18.2769228,29 Z M30.9659228,19.14 L31.0265136,19.5506863 L31.1359228,20.384 L22.5199228,29 L21.1059228,29 L30.9659228,19.14 Z M31.2886677,21.6459322 C31.3033086,21.7758002 31.3177984,21.9067413 31.3321369,22.0387547 L31.3321369,22.0387547 L31.4239228,22.924 L25.3479228,29 L23.9339228,29 Z M31.5459228,24.216 L31.5478275,24.2335788 L31.6460056,25.3989521 C31.6492868,25.4400089 31.6525564,25.4811467 31.6558144,25.5223656 L28.1769228,29 L26.7619228,29 L31.5459228,24.216 Z M31.7529228,26.838 L31.7811227,27.2317982 L31.8399228,28.165 L31.0049228,29 L29.5909228,29 L31.7529228,26.838 Z M16.8561752,13.4533565 C17.0529029,13.753545 17.250606,14.0260341 17.4525393,14.2714325 L4.99992283,26.722 L4.99992283,25.308 Z M15.8309228,11.648 L15.9856544,11.9500521 C16.099305,12.166649 16.2117383,12.3740935 16.3235435,12.5724959 L4.99992283,23.893 L4.99992283,22.479 L15.8309228,11.648 Z M14.8919228,9.759 L14.9611456,9.89442719 L15.3599228,10.705 L4.99992283,21.065 L4.99992283,19.651 L14.8919228,9.759 Z M13.8713016,7.95165169 C14.0045513,8.15413657 14.1396562,8.37440686 14.2777288,8.61337725 L14.2777288,8.61337725 L14.4019228,8.835 L4.99992283,18.237 L4.99992283,16.822 Z M12.5297769,6.46509584 C12.7796474,6.63707008 13.0227382,6.86041262 13.2663406,7.1411176 L5.00654085,15.4022241 C5.01798692,14.8857344 5.04443496,14.3874702 5.08572391,13.9082116 Z M11,6 C11.1850893,6 11.3624387,6.01514777 11.533741,6.04683507 L5.29490648,12.2849674 C5.41370347,11.6102526 5.56805646,10.9839108 5.75735644,10.408892 L10.0931783,6.07199055 C10.3836015,6.02421638 10.6859207,6 11,6 Z" id="color_g" fill="#00FFFF"></path>
        </g>
    </g>
</svg>