<?xml version="1.0" encoding="UTF-8"?>
<svg width="34px" height="34px" viewBox="0 0 34 34" version="1.1" xmlns="http://www.w3.org/2000/svg" xmlns:xlink="http://www.w3.org/1999/xlink">
    <g id="icon/map/dark/地形剖面" stroke="none" stroke-width="1" fill="none" fill-rule="evenodd">
        <g id="编组">
            <path d="M20.6706756,15.33 L4.0006756,31.999 L3.1716756,31.999 L18.7346756,16.436 L20.6706756,15.33 Z M24.9326756,13.999 L6.9316756,31.999 L6.1016756,31.999 L24.1026756,13.999 L24.9326756,13.999 Z M27.8636756,13.999 L9.8626756,31.999 L9.0326756,31.999 L27.0336756,13.999 L27.8636756,13.999 Z M30.7946756,13.999 L12.7936756,31.999 L11.9636756,31.999 L29.9646756,13.999 L30.7946756,13.999 Z M31.9996756,14.896 L31.9996756,15.726 L15.7246756,31.999 L14.8946756,31.999 L31.9996756,14.896 Z M31.9996756,17.826 L31.9996756,18.656 L18.6556756,31.999 L17.8256756,31.999 L31.9996756,17.826 Z M31.9996756,20.757 L31.9996756,21.587 L21.5866756,31.999 L20.7566756,31.999 L31.9996756,20.757 Z M31.9996756,23.688 L31.9996756,24.518 L24.5176756,31.999 L23.6876756,31.999 L31.9996756,23.688 Z M31.9996756,26.619 L31.9996756,27.449 L27.4486756,31.999 L26.6186756,31.999 L31.9996756,26.619 Z M31.9996756,29.55 L31.9996756,30.38 L30.3796756,31.999 L29.5496756,31.999 L31.9996756,29.55 Z M15.0396756,17.199 L15.4926756,17.577 L1.9996756,31.07 L1.9996756,30.24 L15.0396756,17.199 Z M13.4416756,15.867 L13.8936756,16.245 L1.9996756,28.139 L1.9996756,27.309 L13.4416756,15.867 Z M11.8426756,14.535 L12.2946756,14.913 L1.9996756,25.208 L1.9996756,24.378 L11.8426756,14.535 Z M10.2436756,13.203 L10.6966756,13.581 L1.9996756,22.277 L1.9996756,21.447 L10.2436756,13.203 Z" id="color_g" fill="#00FFFF"></path>
            <path d="M11,0 L17,6 L22,3 L34,3 L34,34 L0,34 L0,12 L11,0 Z M10.061,11.353 L1,20.414 L1,33 L33,33 L33,13 L22.235,13 L15.8622443,16.1869118 L10.061,11.353 Z M11.031,1.446 L1,12.388 L1,19 L10,10 L16,15 L22,12 L33,12 L33,4 L22.276,4 L17.5144958,6.85749293 C17.1567905,7.07211607 16.7080253,7.04038496 16.3856099,6.789064 L16.2928932,6.70710678 L11.031,1.446 Z" id="color_w" fill="#FFFFFF" fill-rule="nonzero"></path>
        </g>
    </g>
</svg>