<svg width="46" height="46" viewBox="0 0 46 46" fill="none" xmlns="http://www.w3.org/2000/svg">
<g clip-path="url(#clip0_1714_33906)">
<path d="M30.4555 14.6133C26.7495 14.5787 23.3849 16.0086 20.8961 18.3688C20.8516 18.4133 20.7823 18.4182 20.7279 18.3885C18.8872 17.3297 16.7547 16.7211 14.4787 16.7112C7.52188 16.6865 1.88126 22.2331 1.79219 29.1898C1.69818 36.2505 7.39323 42 14.4341 42H30.3169C37.8724 42 43.9979 35.8794 44.0128 28.3289C44.0227 20.8378 37.9516 14.6875 30.4555 14.6133Z" fill="white"/>
<path d="M8.62524 15.6078C10.4659 14.831 12.4203 14.4352 14.4341 14.4352C16.5023 14.4352 18.5409 14.8656 20.4161 15.687C20.4607 15.7068 20.5151 15.7018 20.5596 15.6672C23.3453 13.5099 26.7495 12.3372 30.3169 12.3372C31.0591 12.3372 31.7963 12.3867 32.5237 12.4857C32.6078 12.3867 32.5929 12.4016 32.6771 12.2977C30.9008 7.45859 26.2448 4 20.7872 4C14.1669 4 8.71925 9.09635 8.17003 15.5781C8.16014 15.687 8.26899 15.7612 8.36795 15.7167C8.45206 15.682 8.54112 15.6424 8.62524 15.6078Z" fill="#00FFFF"/>
</g>
<defs>
<clipPath id="clip0_1714_33906">
<rect width="46" height="46" fill="white"/>
</clipPath>
</defs>
</svg>
