<?xml version="1.0" encoding="UTF-8"?>
<svg width="16px" height="16px" viewBox="0 0 16 16" version="1.1" xmlns="http://www.w3.org/2000/svg" xmlns:xlink="http://www.w3.org/1999/xlink">
    <g id="icon/map/dark/sideToolBar/toolbar/哥伦布视图" stroke="none" stroke-width="1" fill="none" fill-rule="evenodd">
        <g id="icon" transform="translate(1.000000, 3.001475)">
            <path d="M4.44773304,7.14539119 C4.60438953,7.14539119 4.71120077,7.23383064 4.68983852,7.34149608 L4.68983852,7.34149608 L4.2127483,9.70629037 C4.1842653,9.86394332 3.99912581,9.99852511 3.79974481,9.99852511 L3.79974481,9.99852511 L0.239369949,9.99852511 C0.0328681954,9.99852511 -0.0525808014,9.86394332 0.0328681954,9.70629037 L0.0328681954,9.70629037 L1.21491266,7.34149608 C1.25811587,7.24023377 1.409749,7.1629011 1.59943314,7.14539119 L1.59943314,7.14539119 Z M12.4016105,7.14539119 C12.5885506,7.16429512 12.7368414,7.24135014 12.7790102,7.34149608 L12.7790102,7.34149608 L13.9681754,9.70629037 C14.0536244,9.86394332 13.9610547,9.99852511 13.7616737,9.99852511 L13.7616737,9.99852511 L10.2012988,9.99852511 C10.0019178,9.99852511 9.78829535,9.86394332 9.78829535,9.70629037 L9.78829535,9.70629037 L9.31120511,7.34149608 C9.28984286,7.23383064 9.39665411,7.14539119 9.55331061,7.14539119 L9.55331061,7.14539119 Z M4.99629485,5.00000789 C5.03838088,5.00375258 5.07784771,5.01449747 5.10875438,5.03118702 C5.15511439,5.05622136 5.17670489,5.09165625 5.16692876,5.12666435 L5.16692876,5.12666435 L4.86785727,6.60706402 C4.85676327,6.70300347 4.71116245,6.77828198 4.53318204,6.78009775 L4.53318204,6.78009775 L1.82017639,6.78009775 C1.63503689,6.78009775 1.58519163,6.69934868 1.63503689,6.60706402 L1.63503689,6.60706402 L2.34711187,5.12666435 C2.38370326,5.05484184 2.50131037,5.00372592 2.6390626,4.99977295 L2.6390626,4.99977295 Z M11.3691018,4.99976784 C11.506854,5.00372592 11.6244611,5.05484184 11.6610525,5.12666435 L11.6610525,5.12666435 L12.3802482,6.60706402 C12.4300935,6.69934868 12.3446445,6.78009775 12.1951088,6.78009775 L12.1951088,6.78009775 L9.44649936,6.78009775 C9.27963043,6.77081015 9.14990764,6.69750189 9.14030712,6.60706402 L9.14030712,6.60706402 L8.86971863,5.12666435 C8.86142864,5.09453022 8.8794671,5.0620398 8.91912842,5.03766868 C8.95878973,5.01329755 9.01614065,4.99946263 9.07622037,4.99976784 L9.07622037,4.99976784 Z" id="color_w" fill="#FFFFFF"></path>
            <path d="M8.36556646,7.14497539 C8.50499058,7.15910391 8.61219883,7.21913243 8.64252046,7.2943797 L8.65112967,7.34110886 L8.99788501,9.70624778 C9.01573271,9.84421422 8.91905767,9.96451422 8.76707334,9.99243349 L8.69872355,9.99852511 L5.29916147,9.99852511 C5.13598249,9.99852511 5.0327468,9.89963429 5.00658108,9.7720853 L5,9.70624778 L5.34675533,7.34110886 C5.34538099,7.25892215 5.4341027,7.18690729 5.5636694,7.1573538 L5.64591681,7.14497539 L8.36556646,7.14497539 Z M8.10040062,4.99904447 C8.16536736,4.99585372 8.22989933,5.00745835 8.27968066,5.03128398 C8.31286822,5.04716773 8.33767058,5.0676075 8.35205571,5.0903634 L8.36556646,5.12595436 L8.55594194,6.60656978 C8.56754419,6.64760803 8.54852176,6.68952954 8.50341208,6.72233475 C8.47333896,6.74420489 8.43346905,6.7607161 8.38854839,6.77040205 L8.3179726,6.77962872 L5.69351066,6.77962872 C5.62033333,6.7758876 5.55318086,6.75513995 5.50807119,6.72233475 C5.47799807,6.70046461 5.45951928,6.67454278 5.45397925,6.6475321 L5.45554132,6.60656978 L5.67311329,5.12595436 C5.68141841,5.06957789 5.74874618,5.02328229 5.83933672,5.00613843 L5.91108265,4.99904447 L8.10040062,4.99904447 Z M4.20124788,2.523399e-05 C4.59177143,0.000286382184 4.90833514,0.0308324631 5.15298238,0.0916073225 C5.40127634,0.152218437 5.58858056,0.21386904 5.71339293,0.27625298 C5.80357321,0.320368144 5.88281632,0.364475272 5.95055759,0.408574623 C6.01893866,0.452672124 6.07517955,0.505884557 6.11841474,0.568366255 C6.19775182,0.689455998 6.22900814,0.869272755 6.21143181,1.10797601 L6.19953438,1.23509151 L6.18357862,1.34520019 L6.16324995,1.43819932 C6.14097065,1.5226098 6.09494925,1.59233116 6.02488496,1.64736425 C5.94322685,1.70610904 5.83159122,1.75557756 5.68936411,1.79592477 C5.54615935,1.83627481 5.3490057,1.88033729 5.096173,1.92811449 C5.35643194,1.98316759 5.55466568,2.03450304 5.69027638,2.08227851 C5.82706001,2.12989602 5.9268454,2.18493308 5.99027272,2.24739058 C6.05366038,2.31340188 6.08806246,2.39147258 6.09355382,2.48129469 L6.09564084,2.60113993 L6.09069569,2.74473212 C6.08926777,2.77064309 6.08753035,2.79754353 6.08547788,2.82543347 L6.07048739,2.96893344 C6.06736903,2.99109981 6.06394004,3.01238939 6.06019914,3.0327997 L6.03390819,3.14469091 C6.00919264,3.22910843 5.97539334,3.29884232 5.93350212,3.35389243 C5.8909759,3.412654 5.83613805,3.46214429 5.768922,3.50267262 C5.49863109,3.66068851 5.06754236,3.79390084 4.52820533,3.88582006 C4.12877519,3.95371834 3.61163973,3.98796034 2.97976906,3.9882345 C2.664388,3.98836213 2.3341017,3.97380584 1.9900622,3.94455615 C1.64912801,3.9155628 1.34240586,3.86695933 1.08913621,3.80164508 C0.834314792,3.73566762 0.640197578,3.64938797 0.506305715,3.54296074 C0.376017801,3.43636988 0.351616391,3.30605921 0.431018778,3.15172564 L0.595557726,2.83191303 L2.4374001,2.83155451 L2.33027988,3.12368802 C2.29793956,3.2118851 2.35547717,3.28427522 2.50389315,3.3411646 C2.65432455,3.39804953 2.87489692,3.42644437 3.16502417,3.42635217 C3.45515143,3.42625998 3.69300258,3.39772532 3.87640096,3.34075175 C4.05831413,3.28378249 4.15927431,3.20766209 4.18046401,3.11207801 L4.30499636,2.5503282 C4.33918104,2.3961254 4.26937176,2.29513473 4.09712468,2.24750761 C4.00114788,2.2181246 3.8662192,2.19972458 3.69111468,2.19246293 C3.46327275,2.18423307 3.23293266,2.18057542 3.00113577,2.18151157 L3.16929619,1.68563596 C3.67206599,1.68567567 4.02406449,1.66559391 4.22480788,1.62508431 C4.42456503,1.58488806 4.54024993,1.49117003 4.5728171,1.34423659 L4.68512243,0.837548223 C4.70301723,0.756812166 4.65051549,0.690590187 4.52855359,0.639188721 C4.40751596,0.587783213 4.23410697,0.562032823 4.00814774,0.561940798 C3.7419719,0.561832395 3.54190564,0.593008528 3.40654521,0.655317314 C3.26974131,0.717784846 3.19024874,0.778419222 3.16874526,0.837062548 L3.05152578,1.15673829 L1.45759528,1.15637979 L1.62492168,0.831149259 C1.68361732,0.717063156 1.79851583,0.608727756 1.96832541,0.505993596 C2.12837852,0.406300556 2.33398567,0.316293986 2.57175884,0.241545059 C2.80795951,0.167233437 3.06765754,0.107710458 3.33912072,0.0658148392 C3.6211551,0.0215086967 3.91393472,-0.000859099093 4.20124788,2.523399e-05 Z M7.18194717,0.0233485003 L9.36703693,0.0246429462 C10.2159783,0.0251458586 10.8992176,0.121433305 11.4278787,0.313466128 C11.9325786,0.490435606 12.2862648,0.735287457 12.4810268,1.048261 L12.5264342,1.12792364 L13.3974804,2.81592837 C13.6035255,3.21522421 13.4362086,3.50964772 12.883644,3.69950614 C12.3523019,3.8758517 11.5278384,3.97056633 10.4199118,3.98362023 L10.159178,3.98518314 L7.25688853,3.98641418 L7.18194717,0.0233485003 Z M8.75748673,0.599769461 L9.24202425,3.40998367 L10.1615308,3.4096941 C10.7218975,3.40951763 11.1071491,3.36651874 11.312257,3.280705 C11.4918929,3.20419548 11.5645223,3.0891882 11.531575,2.93567903 L11.5142573,2.87630835 L10.8808425,1.12753869 C10.8200934,0.959818852 10.6848831,0.830115578 10.4760162,0.738153673 C10.2702885,0.646182688 9.93875593,0.60023682 9.47898049,0.600054914 L8.75748673,0.599769461 Z" id="color_g" fill="#00FFFF"></path>
        </g>
    </g>
</svg>