<?xml version="1.0" encoding="utf-8"?>
<!-- Generator: Adobe Illustrator 22.1.0, SVG Export Plug-In . SVG Version: 6.00 Build 0)  -->
<svg version="1.1" id="图层_1" xmlns="http://www.w3.org/2000/svg" xmlns:xlink="http://www.w3.org/1999/xlink" x="0px"
	y="0px" viewBox="0 0 202 202" style="enable-background:new 0 0 202 202;" xml:space="preserve">
	<style type="text/css">
		.st0 {
			opacity: 0;
			fill: #3F4854;
			stroke: #FFFFFF;
			enable-background: new;
		}

		.st1 {
			fill: #AC2622;
		}

		.st2 {
			fill: #FFDD36;
		}

		.st3 {
			fill: none;
			stroke: #FFFFFF;
			stroke-width: 0.837;
		}

		.st4 {
			fill: none;
			stroke: #FFFFFF;
		}

		.st5 {
			font-family: 'BanglaMN-Bold';
		}

		.st6 {
			font-size: 30px;
		}

		.st7 {
			fill: #DDDDDD;
		}

		.st8 {
			fill: #3F4854;
			stroke: #FFFFFF;
		}

		.st9 {
			fill: #B1B1B1;
		}

		.st10 {
			font-size: 19.9868px;
		}

		.st11 {
			fill: none;
			stroke: var(--fl1Color);
			stroke-width: 2;
		}

		.st12 {
			fill: none;
			stroke: #000000;
			stroke-miterlimit: 10;
		}
	</style>
	<path class="st0" d="M101,200.4c55.1,0,99.8-44.7,99.8-99.8S156.1,0.8,101,0.8S1.2,45.5,1.2,100.6S45.9,200.4,101,200.4L101,200.4
	L101,200.4L101,200.4L101,200.4z M101.4,167c36.4,0,66-29.5,66-66c0-36.4-29.5-66-66-66c-36.4,0-66,29.5-66,66
	C35.4,137.5,65,167,101.4,167L101.4,167L101.4,167L101.4,167L101.4,167z" />
	<path class="st1" d="M100.4,1.4c-30.6,0-54.5,11.4-72.8,32.3l24.2,23C63.2,43.2,82,34.5,101.1,34.5c19.1,0,38.9,9.2,49.1,21.5
	l24.1-22.6C156,12.4,131.1,1.4,100.4,1.4z" />
	<path class="st2"
		d="M163,158.8c0,1.1-0.9,1.9-1.9,1.9s-1.9-0.8-1.9-1.9c0-1.1,0.9-1.9,1.9-1.9C162.1,156.9,163,157.7,163,158.8z" />
	<path class="st2" d="M163,44.6c0,1-0.9,1.9-1.9,1.9s-1.9-0.9-1.9-1.9s0.9-1.9,1.9-1.9C162.1,42.7,163,43.5,163,44.6z" />
	<path class="st2" d="M41.2,158.8c0,1.1-0.9,1.9-1.9,1.9c-1.1,0-1.9-0.8-1.9-1.9c0-1.1,0.8-1.9,1.9-1.9
	C40.3,156.9,41.2,157.7,41.2,158.8z" />
	<path class="st2"
		d="M41.2,44.6c0,1-0.9,1.9-1.9,1.9c-1.1,0-1.9-0.9-1.9-1.9s0.8-1.9,1.9-1.9C40.3,42.7,41.2,43.5,41.2,44.6z" />
	<path class="st3" d="M174.9,101.7" />
	<path class="st3" d="M166.9,101.7" />
	<path class="st3" d="M35.9,101.7" />
	<path class="st3" d="M27.9,101.7" />
	<path class="st4" d="M102.1,178.7" />
	<path class="st4" d="M102.1,167.3" />
	<g>
		<text transform="matrix(1 0 0 1 172.6101 114.594)" class="st2 st5 st6">E</text>
	</g>
	<text transform="matrix(1 0 0 1 2.9351 112.3273)" class="st2 st5 st6">W</text>
	<text transform="matrix(1 0 0 1 90.2768 195.2223)" class="st2 st5 st6">S</text>
	<g>
		<polygon class="st7" points="121.3,36 101.1,29.3 80.9,36 101.1,1.9 101.1,1.8 	" />
	</g>
	<path class="st8" d="M489.3-203.3L489.3-203.3C489.3-203.2,489.3-203.2,489.3-203.3L489.3-203.3z" />
	<g>
		<polyline class="st9" points="101.1,1.9 101.1,1.9 121.3,36 101.1,29.4 	" />
	</g>
	<text transform="matrix(1 0 0 1 92.6101 28.594)" class="st1 st5 st10">N</text>
	<ellipse class="st11" cx="100.8" cy="100.9" rx="99.8" ry="99.8" />
	<path class="st12" d="M91.5,94.1" />
	<path class="st12" d="M1.5,9" />
	<path class="st12" d="M106.7,93.6" />
	<path class="st12" d="M196.7,8.5" />
</svg>