<?xml version="1.0" encoding="utf-8"?>
<!-- Generator: Adobe Illustrator 22.1.0, SVG Export Plug-In . SVG Version: 6.00 Build 0)  -->
<svg version="1.1" id="图层_1" xmlns:sketch="http://www.bohemiancoding.com/sketch/ns"
	 xmlns="http://www.w3.org/2000/svg" xmlns:xlink="http://www.w3.org/1999/xlink" x="0px" y="0px" viewBox="0 0 27 27"
	 style="enable-background:new 0 0 27 27;" xml:space="preserve">
<style type="text/css">
	.st0{fill:#AFD2D8;}
	.st1{fill:#5CAAD6;}
	.st2{fill:none;}
	.st3{fill:#7C90A6;}
	.st4{fill:#D13313;}
	.st5{fill:#2B5CAB;}
	.st6{fill:#FFFFFF;}
</style>
<title>terria-compass</title>
<desc>Created with Sketch.</desc>
<g>
	<g>
		<g>
			<polygon class="st0" points="8.2,18.7 12.2,12.3 18.3,8.7 14.2,14.5 			"/>
		</g>
		<polygon class="st1" points="8.2,18.7 13.2,13.4 18.3,8.7 14.2,14.5 		"/>
	</g>
	<g>
		<g>
			<polygon class="st0" points="12.1,14.5 8.1,8.7 14.2,12.3 18.1,18.7 			"/>
		</g>
		<polygon class="st1" points="12.1,14.5 8.1,8.7 13.1,13.4 18.1,18.7 		"/>
	</g>
	<g>
		<g>
			<polygon class="st0" points="13.3,15.5 3.9,13.8 13.3,12 22.5,13.7 			"/>
		</g>
		<polygon class="st1" points="13.3,15.5 4,13.8 13,13.6 22.6,13.7 		"/>
	</g>
	<path class="st0" d="M13.5,24.5c-1.5,0-3-0.3-4.3-0.9c-1.3-0.6-2.5-1.4-3.5-2.4c-1-1-1.8-2.2-2.4-3.5c-0.6-1.4-0.9-2.8-0.9-4.3
		s0.3-3,0.9-4.3c0.5-1.4,1.3-2.6,2.4-3.6s2.2-1.8,3.5-2.4c1.4-0.6,2.8-0.9,4.3-0.9s3,0.3,4.3,0.9s2.5,1.4,3.5,2.4
		c1,1,1.8,2.2,2.4,3.5c0.6,1.4,0.9,2.8,0.9,4.3s-0.3,3-0.9,4.3c-0.6,1.3-1.4,2.5-2.4,3.5c-1,1-2.2,1.8-3.5,2.4
		C16.4,24.2,15,24.5,13.5,24.5z M13.5,3.4c-2.7,0-5.3,1.1-7.1,3s-3,4.5-3,7.1s1.1,5.3,3,7.1c1.9,1.9,4.5,3,7.1,3s5.3-1.1,7.1-3
		c1.9-1.9,3-4.5,3-7.1s-1-5.3-2.9-7.1C18.7,4.3,16.2,3.4,13.5,3.4L13.5,3.4z"/>
	<line class="st2" x1="14.3" y1="14.5" x2="8.5" y2="19"/>
	<path class="st3" d="M18,8.5"/>
	<polygon class="st4" points="13.3,4.3 11.5,13.1 14.9,13.1 	"/>
	<polygon class="st5" points="13.2,22.7 14.9,14 11.5,14 	"/>
	<path class="st6" d="M11.4,13.7c0,1.1,0.9,1.8,1.8,1.8s1.8-0.9,1.8-1.8c0-1.1-0.9-1.8-1.8-1.8C12.2,11.8,11.4,12.7,11.4,13.7
		L11.4,13.7z"/>
	<path d="M12.2,13.6c0,0.6,0.5,1.1,1.1,1.1c0.5,0,1.1-0.5,1.1-1.1s-0.5-1.1-1.1-1.1C12.6,12.6,12.2,13.1,12.2,13.6L12.2,13.6z"/>
</g>
</svg>
