<?xml version="1.0" encoding="UTF-8"?>
<svg width="34px" height="34px" viewBox="0 0 34 34" version="1.1" xmlns="http://www.w3.org/2000/svg" xmlns:xlink="http://www.w3.org/1999/xlink">
    <g id="icon/map/dark/控高分析" stroke="none" stroke-width="1" fill="none" fill-rule="evenodd">
        <g id="icon" fill-rule="nonzero">
            <path d="M6,0 L22,5 L22,34 L6,34 L6,0 Z M34,0 L34,1 L29.547619,1 L29.547619,2.5 L32,2.5 L32,3.5 L29.547619,3.5 L29.547619,4.5 L32,4.5 L32,5.5 L29.547619,5.5 L29.547619,6.5 L32,6.5 L32,7.5 L29.547619,7.5 L29.547619,8.5 L32,8.5 L32,9.5 L29.547619,9.5 L29.547619,10.5 L32,10.5 L32,11.5 L29.547619,11.5 L29.547619,12.5 L34,12.5 L34,13.5 L29.547619,13.5 L29.547619,14.5 L32,14.5 L32,15.5 L29.547619,15.5 L29.547619,16.5 L32,16.5 L32,17.5 L29.547619,17.5 L29.547619,18.5 L32,18.5 L32,19.5 L29.547619,19.5 L29.547619,20.5 L32,20.5 L32,21.5 L29.547619,21.5 L29.547619,22.5 L34,22.5 L34,23.5 L29.547619,23.5 L29.547619,24.5 L32,24.5 L32,25.5 L29.547619,25.5 L29.547619,26.5 L32,26.5 L32,27.5 L29.547619,27.5 L29.547619,28.5 L32,28.5 L32,29.5 L29.547619,29.5 L29.547619,30.5 L32,30.5 L32,31.5 L29.547619,31.5 L29.547619,33 L34,33 L34,34 L28.547619,34 L28.547619,0 L34,0 Z M21,14 L7,14 L7,33 L11,33 L11,23 L17,23 L17,33 L21,33 L21,14 Z M16,24 L12,24 L12,33 L16,33 L16,24 Z M24,13 L24,14 L23,14 L23,13 L24,13 Z M26,13 L26,14 L25,14 L25,13 L26,13 Z M28,13 L28,14 L27,14 L27,13 L28,13 Z M1,13 L1,14 L0,14 L0,13 L1,13 Z M3,13 L3,14 L2,14 L2,13 L3,13 Z M5,13 L5,14 L4,14 L4,13 L5,13 Z M7,1.36 L7,13 L21,13 L21,5.735 L7,1.36 Z" id="color_w" fill="#FFFFFF"></path>
            <path d="M14.5966313,4.78163133 L15.6746313,5.11763133 L8.79263133,11.9996313 L8,12 L7.99963133,11.3786313 L14.5966313,4.78163133 Z M16.7516313,5.45463133 L17.8296313,5.79163133 L11.6216313,11.9996313 L10.2066313,11.9996313 L16.7516313,5.45463133 Z M18.9076313,6.12863133 L19.9846313,6.46463133 L14.4496313,11.9996313 L13.0356313,11.9996313 L18.9076313,6.12863133 Z M19.9996313,7.86363133 L19.9996313,9.27763133 L17.2776313,11.9996313 L15.8636313,11.9996313 L19.9996313,7.86363133 Z M19.9996313,10.6916313 L20,12 L18.6916313,11.9996313 L19.9996313,10.6916313 Z M12.4426313,4.10763133 L13.5196313,4.44463133 L7.99963133,9.96463133 L7.99963133,8.55063133 L12.4426313,4.10763133 Z M10.2876313,3.43463133 L11.3646313,3.77163133 L7.99963133,7.13663133 L7.99963133,5.72263133 L10.2876313,3.43463133 Z M8.13263133,2.76163133 L9.21063133,3.09763133 L7.99963133,4.30863133 L7.99963133,2.89463133 L8.13263133,2.76163133 Z" id="color_g" fill="#00FFFF"></path>
        </g>
    </g>
</svg>