<?xml version="1.0" encoding="UTF-8"?>
<svg width="16px" height="16px" viewBox="0 0 16 16" version="1.1" xmlns="http://www.w3.org/2000/svg" xmlns:xlink="http://www.w3.org/1999/xlink">
    <g id="icon/map/dark/select/坐标定位" stroke="none" stroke-width="1" fill="none" fill-rule="evenodd">
        <g id="icon" transform="translate(2.000000, 1.000000)">
            <path d="M8.0012076,8.17091919 C10.3309615,8.58292603 12,9.69400681 12,11 C12,12.6568542 9.3137085,14 6,14 C2.6862915,14 0,12.6568542 0,11 C0,9.69382048 1.66951477,8.58260899 3.99978962,8.17074289 L4.00054312,9.18819559 C2.20883534,9.53819162 1,10.3158594 1,11 C1,11.9161423 3.16771547,13 6,13 C8.83228453,13 11,11.9161423 11,11 C11,10.3159884 9.79162035,9.5384848 8.00047003,9.18839356 L8.0012076,8.17091919 Z M6,4.5 C6.24545989,4.5 6.44960837,4.67687516 6.49194433,4.91012437 L6.5,5 L6.5,11 C6.5,11.2761424 6.27614237,11.5 6,11.5 C5.75454011,11.5 5.55039163,11.3231248 5.50805567,11.0898756 L5.5,11 L5.5,5 C5.5,4.72385763 5.72385763,4.5 6,4.5 Z" id="color_w" fill="#FFFFFF" fill-rule="nonzero"></path>
            <circle id="color_g" fill="#00FFFF" cx="6" cy="3" r="3"></circle>
        </g>
    </g>
</svg>