<svg width="16" height="16" viewBox="0 0 16 16" fill="none" xmlns="http://www.w3.org/2000/svg">
<path fill-rule="evenodd" clip-rule="evenodd" d="M2.4739 1C1.66286 1 1 1.66286 1 2.4739V11.3153C1 12.1263 1.66286 12.7892 2.4739 12.7892H3.21085V13.5261C3.21085 14.3372 3.87369 15 4.68475 15H13.5261C14.3366 15 15 14.3372 15 13.5261V4.68475C15 3.8737 14.3366 3.21085 13.5261 3.21085H12.7896V2.4739C12.7896 1.66286 12.1263 1 11.3158 1H2.4739ZM1.73695 11.3153V2.4739C1.73695 2.03132 2.03132 1.73695 2.4739 1.73695H11.3158C11.7578 1.73695 12.0527 2.03132 12.0527 2.4739V3.21085H4.68475C3.87369 3.21085 3.21085 3.8737 3.21085 4.68475V12.0522H2.4739C2.03132 12.0522 1.73695 11.7578 1.73695 11.3153ZM8.49615 8.43956V6.9016C8.49615 6.61723 8.72543 6.38894 9.0088 6.38894C9.29167 6.38894 9.52146 6.61723 9.52146 6.9016V8.43956H11.0594C11.3423 8.43956 11.5721 8.66787 11.5721 8.95223C11.5721 9.2346 11.3423 9.4649 11.0594 9.4649H9.52146V11.0029C9.52146 11.2853 9.29167 11.5155 9.0088 11.5155C8.72543 11.5155 8.49615 11.2853 8.49615 11.0029V9.4649H6.95765C6.6753 9.4649 6.44501 9.2346 6.44501 8.95223C6.44501 8.66787 6.6753 8.43956 6.95765 8.43956H8.49615Z" fill="#909399"/>
</svg>
