<svg width="46" height="46" viewBox="0 0 46 46" fill="none" xmlns="http://www.w3.org/2000/svg">
<path fill-rule="evenodd" clip-rule="evenodd" d="M1.39909 19.0633C4.42315 13.8732 15.7291 6.3178 24.6363 18.7743C27.5229 22.7062 35.381 32.5122 40.8355 19.1446V28.5813H40.8258V34.7322C40.8258 36.5372 39.1338 38 37.046 38H5.14678C3.05898 38 1.36699 36.5372 1.36699 34.7322V26.7957H1.39909V19.0633Z" fill="#8FD3F4"/>
<path fill-rule="evenodd" clip-rule="evenodd" d="M4.1154 9.13875C4.1154 7.3271 5.58354 5.85895 7.39519 5.85895H39.2945C41.1061 5.85895 42.5742 7.3271 42.5742 9.13875V18.3186H43.5742V9.13875C43.5742 6.77482 41.6584 4.85895 39.2945 4.85895H7.39519C5.03125 4.85895 3.1154 6.77482 3.1154 9.13875V18.3186H4.1154V9.13875ZM3.1154 28.0772V37.257C3.1154 39.621 5.03125 41.5368 7.39519 41.5368H39.2945C41.6584 41.5368 43.5742 39.621 43.5742 37.257V28.0772H42.5742V37.257C42.5742 39.0687 41.1061 40.5368 39.2945 40.5368H7.39519C5.58354 40.5368 4.1154 39.0687 4.1154 37.257V28.0772H3.1154Z" fill="white"/>
<path fill-rule="evenodd" clip-rule="evenodd" d="M5.05341 20.5569C4.55266 21.0735 4.14102 21.5474 3.83058 21.9252C3.74447 21.9055 3.65483 21.8951 3.56275 21.8951C2.90235 21.8951 2.36699 22.4305 2.36699 23.0909C2.36699 23.7513 2.90235 24.2866 3.56275 24.2866C4.22315 24.2866 4.75851 23.7513 4.75851 23.0909C4.75851 22.8908 4.70939 22.7023 4.62255 22.5366C4.91589 22.1807 5.30267 21.7366 5.77148 21.2529C6.92636 20.0613 8.56083 18.6485 10.5058 17.7121C12.4447 16.7785 14.6704 16.3274 17.0444 17.0132C19.4222 17.7002 22.0262 19.5499 24.6734 23.3727L24.6782 23.3798L24.6966 23.4065C24.7123 23.4292 24.735 23.4615 24.7647 23.5024C24.8239 23.5842 24.9107 23.7005 25.0243 23.8434C25.2513 24.129 25.5862 24.5219 26.022 24.9578C26.8914 25.8272 28.176 26.8807 29.822 27.5861C31.4746 28.2944 33.4888 28.6499 35.7925 28.1182C37.6833 27.6819 39.7409 26.6546 41.9355 24.7801C42.0849 24.8472 42.2505 24.8845 42.4249 24.8845C43.0853 24.8845 43.6207 24.3492 43.6207 23.6888C43.6207 23.0284 43.0853 22.493 42.4249 22.493C41.7645 22.493 41.2292 23.0284 41.2292 23.6888C41.2292 23.8062 41.2461 23.9197 41.2777 24.027C39.1842 25.8132 37.2701 26.751 35.5677 27.1438C33.4994 27.6211 31.7021 27.304 30.2159 26.667C28.723 26.0272 27.5414 25.0629 26.7292 24.2507C26.3243 23.8458 26.0145 23.482 25.8071 23.2212C25.7035 23.0908 25.6257 22.9865 25.5746 22.9159C25.549 22.8806 25.5302 22.8537 25.5181 22.8364L25.5051 22.8175L25.5025 22.8136L25.5024 22.8135L25.5025 22.8135L25.4975 22.8063C22.7645 18.8585 19.9882 16.8228 17.322 16.0525C14.6513 15.281 12.1687 15.8015 10.072 16.8111C7.98129 17.8177 6.25269 19.3196 5.05341 20.5569Z" fill="#00FFFF"/>
</svg>
