<svg xmlns="http://www.w3.org/2000/svg" fill="none" viewBox="0 0 16 16" class="design-iconfont">
    <path fill-rule="evenodd" clip-rule="evenodd" d="M3.08929 3.68793V1H4.78101V10.8132C4.78101 10.9099 4.81666 11.0026 4.88011 11.0709C4.94357 11.1393 5.02963 11.1777 5.11936 11.1777H10V13H5.11936C4.58164 12.9976 4.06657 12.7664 3.68634 12.3569C3.30611 11.9473 3.09151 11.3924 3.08929 10.8132V5.51025H1V3.68793H3.08929ZM12.9107 10.4897H15V12.3121H12.9107V15H11.219V5.18679C11.219 5.13815 11.21 5.09 11.1924 5.04518C11.1749 5.00035 11.1492 4.95976 11.1169 4.9258C11.0846 4.89183 11.0463 4.86518 11.0043 4.84741C10.9622 4.82964 10.9173 4.82111 10.8722 4.82232H6V3H10.8722C11.4114 2.99999 11.9286 3.2301 12.3107 3.63994C12.6927 4.04978 12.9085 4.60598 12.9107 5.18679V10.4897Z" fill="#1DB28E"/>
    <path d="M5.70711 10.2929L10 6" stroke="#467CF3" stroke-width=".5" stroke-linecap="round" stroke-dasharray="1 1"/>
</svg>
