<svg width="46" height="46" viewBox="0 0 46 46" fill="none" xmlns="http://www.w3.org/2000/svg">
<path opacity="0.7" d="M42.0345 12.1741V34.1666C42.0345 34.2842 42.0272 34.4002 42.0142 34.5105C41.6152 39.0938 33.1551 42.7573 22.7914 42.7573C12.4278 42.7573 3.96766 39.0938 3.56867 34.5105C3.55561 34.4002 3.54835 34.2827 3.54835 34.1666V12.1741C3.54835 16.9156 12.1666 20.7648 22.7914 20.7648C33.4162 20.7648 42.0345 16.9156 42.0345 12.1741Z" fill="#01FFFF"/>
<path d="M42.0345 12.1741C42.0345 16.9156 33.4162 20.7648 22.7914 20.7648C12.1666 20.7648 3.54835 16.9156 3.54835 12.1741C3.54835 12.0566 3.55561 11.9405 3.56867 11.8303C3.96766 7.24691 12.4278 3.58344 22.7914 3.58344C33.1551 3.58344 41.6152 7.24691 42.0142 11.8303C42.0287 11.9405 42.0345 12.058 42.0345 12.1741Z" fill="#01FFFF"/>
</svg>
