<svg width="16" height="16" viewBox="0 0 16 16" fill="none" xmlns="http://www.w3.org/2000/svg">
<path fill-rule="evenodd" clip-rule="evenodd" d="M12.922 3.08584L3.26042 5.30255C3.2056 5.31487 3.15215 5.28066 3.13982 5.22729L3.01922 4.70048C2.92603 4.29682 3.18093 3.89042 3.58521 3.79738L11.9723 1.87212C12.3766 1.77907 12.7836 2.03358 12.8768 2.43724L12.9974 2.96405C13.0097 3.01879 12.9769 3.07352 12.922 3.08584ZM6.30554 2.73144C6.21646 2.34967 6.45629 1.9638 6.84001 1.87485L8.18579 1.56287C8.56814 1.47393 8.95461 1.71339 9.04369 2.09653L9.09576 2.3182L9.70287 2.17726L9.66039 1.99527C9.50004 1.30562 8.80386 0.873226 8.11453 1.03332L6.67693 1.3672C5.98623 1.52729 5.55317 2.22241 5.71351 2.91069L5.75462 3.08994L6.35625 2.95037L6.30554 2.73144Z" fill="#467CF3"/>
<path fill-rule="evenodd" clip-rule="evenodd" d="M12.7041 5.55298H3.74693C3.69348 5.55298 3.651 5.5995 3.65648 5.65287L4.48012 14.2734C4.48012 14.6744 4.80628 15 5.20782 15H11.246C11.6475 15 11.9737 14.6744 11.9737 14.2734L12.7973 5.65287C12.8001 5.5995 12.759 5.55298 12.7041 5.55298ZM6.33707 13.1801H6.06983C5.89168 13.1801 5.74641 13.0351 5.74641 12.8572L5.41339 7.71222C5.41339 7.53434 5.55866 7.3893 5.73682 7.3893H6.00405C6.18221 7.3893 6.32748 7.53434 6.32748 7.71222L6.66049 12.8572C6.66049 13.0351 6.51523 13.1801 6.33707 13.1801ZM8.68464 12.8572C8.68464 13.0351 8.53937 13.1801 8.36121 13.1801H8.09398C7.91582 13.1801 7.77055 13.0351 7.77055 12.8572V7.71222C7.77055 7.53434 7.91582 7.3893 8.09398 7.3893H8.36121C8.53937 7.3893 8.68464 7.53434 8.68464 7.71222V12.8572ZM10.717 12.8572C10.717 13.0351 10.5717 13.1801 10.3936 13.1801H10.1263C9.94819 13.1801 9.80292 13.0351 9.80292 12.8572L10.1359 7.71222C10.1359 7.53434 10.2812 7.3893 10.4594 7.3893H10.7266C10.9048 7.3893 11.05 7.53434 11.05 7.71222L10.717 12.8572Z" fill="#1DB28E"/>
</svg>
