<?xml version="1.0" encoding="UTF-8"?>
<svg width="16px" height="16px" viewBox="0 0 16 16" version="1.1" xmlns="http://www.w3.org/2000/svg" xmlns:xlink="http://www.w3.org/1999/xlink">
    <g id="Symbols" stroke="none" stroke-width="1" fill="none" fill-rule="evenodd">
        <g id="icon" transform="translate(-13.000000, -536.000000)" fill-rule="nonzero">
            <g id="dark-&lt;v10&gt;" transform="translate(10.000000, 45.000000)">
                <g id="编组" transform="translate(0.000000, 456.000000)">
                    <g id="编组-46" transform="translate(0.000000, 32.000000)">
                        <g id="-mockplus-" transform="translate(3.000000, 3.000000)">
                            <g id="icon" transform="translate(1.000000, 3.635938)">
                                <path d="M7,-1.0658141e-14 C10.8682812,-1.0658141e-14 14,3.9453125 14,4.3646875 C14,4.7828125 10.8682812,8.728125 7,8.728125 C3.13171875,8.728125 0,4.84484375 0,4.36453125 C0,3.88421875 3.13171875,-1.0658141e-14 7,-1.0658141e-14 Z M7,0.80359375 C5.00875,0.80359375 3.40390625,2.4015625 3.40390625,4.37265625 C3.40390625,6.34578125 5.0178125,7.94265625 7,7.94265625 C8.983125,7.94265625 10.5970312,6.345625 10.5970312,4.37265625 C10.5970312,2.40046875 8.99125,0.80359375 7,0.80359375 Z" id="color_w" fill="#FFFFFF"></path>
                                <path d="M7,2.32140625 C6.771875,2.32140625 6.5528125,2.35640625 6.34265625,2.42640625 C6.6665625,2.77578125 6.64578125,3.32140625 6.2965625,3.6453125 C6.13511766,3.7950311 5.92251655,3.87732109 5.70234375,3.8753125 C5.46796875,3.8740625 5.24375,3.7796875 5.0790625,3.613125 C4.65515625,4.674375 5.17203125,5.87828125 6.23328125,6.3021875 C6.47721789,6.39963245 6.73747661,6.44974339 7.00015625,6.44984375 C8.14078125,6.44984375 9.07140625,5.5253125 9.07140625,4.390625 C9.07015625,3.2475 8.143125,2.32140625 7,2.32140625 L7,2.32140625 Z" id="color_g" fill="#00FFFF"></path>
                            </g>
                        </g>
                    </g>
                </g>
            </g>
        </g>
    </g>
</svg>