<?xml version="1.0" encoding="UTF-8"?>
<svg width="16px" height="16px" viewBox="0 0 16 16" version="1.1" xmlns="http://www.w3.org/2000/svg" xmlns:xlink="http://www.w3.org/1999/xlink">
    <g id="icon/map/dark/select/图上标绘" stroke="none" stroke-width="1" fill="none" fill-rule="evenodd">
        <g id="icon" transform="translate(1.000000, 1.000000)">
            <path d="M11.0034671,10.888 L11,11 C11,11.3116894 11.0713001,11.6067258 11.1984798,11.8696888 L4.99546708,13.11 L5,13 C5,12.6879089 4.92851605,12.3925138 4.80102825,12.1292947 L11.0034671,10.888 Z M1.81146776,2.82852896 L3.17536345,11.0075821 C3.11757748,11.0025624 3.05908798,11 3,11 C2.71111259,11 2.43653079,11.0612496 2.18853224,11.171471 L0.825467081,2.99248988 C0.882982928,2.99746211 0.941195086,3 1,3 C1.28888741,3 1.56346921,2.93875043 1.81146776,2.82852896 Z M11.9118427,5.37543749 L12.9485989,9.00064766 C12.5980515,9.0094909 12.2699137,9.10853139 11.9865243,9.27543003 L11.1068427,6.19243749 L11.9118427,5.37543749 Z M5.52532335,7.14720305 L6.86542195,8.45034436 C6.91270244,8.49889004 6.92918307,8.56952941 6.90824699,8.63390136 C6.88731092,8.69827332 6.83239165,8.74582088 6.76553882,8.75745409 L5.20902679,8.99816173 C5.15326524,9.00610834 5.09693882,8.98802175 5.05630445,8.94912209 C5.01567008,8.91022243 4.99524966,8.85483859 5.00093694,8.79895542 L5.22567398,7.28830752 C5.22557902,7.21757291 5.26645836,7.15314617 5.33059989,7.12294202 C5.39474141,7.09273787 5.47060606,7.10219002 5.52532335,7.14720305 Z M10.3363605,1.90143674 L12.0510209,3.56148937 C12.1165722,3.63162216 12.1165722,3.74036447 12.0510209,3.81049726 L7.88922398,8.03533121 C7.82167879,8.09962551 7.71538494,8.09962551 7.64783976,8.03533121 L5.79167835,6.25077463 L8.29946708,3.71 L8.2988427,3.71043749 L9.0928427,2.90543749 L9.09446708,2.906 L10.0866527,1.90143674 C10.1569827,1.83606915 10.2660306,1.83606915 10.3363605,1.90143674 Z M3,1 L2.99646708,1.077 L8.0108427,2.58143749 L7.2158427,3.38543749 L2.71169451,2.03502721 C2.89466873,1.73307847 3,1.37883995 3,1 Z M12.7502027,0.15008121 L13.7989756,1.14611279 C13.9272801,1.26685818 14,1.43500323 14,1.61092753 C14,1.78685183 13.9272801,1.95499688 13.7989756,2.07574227 L12.9666162,2.90576859 C12.8962863,2.97113617 12.7872383,2.97113617 12.7169084,2.90576859 L10.9689537,1.32041832 C10.9353986,1.28763338 10.9164896,1.24275976 10.9164896,1.19591437 C10.9164896,1.14906898 10.9353986,1.10419537 10.9689537,1.07141042 L11.8013131,0.241384107 C12.0403652,-0.0407658488 12.4614616,-0.0812840604 12.7502027,0.15008121 Z" id="color_w" fill="#FFFFFF" fill-rule="nonzero"></path>
            <path d="M3,12 C3.55228475,12 4,12.4477153 4,13 C4,13.5522847 3.55228475,14 3,14 C2.44771525,14 2,13.5522847 2,13 C2,12.4477153 2.44771525,12 3,12 Z M13,10 C13.5522847,10 14,10.4477153 14,11 C14,11.5522847 13.5522847,12 13,12 C12.4477153,12 12,11.5522847 12,11 C12,10.4477153 12.4477153,10 13,10 Z M1,0 C1.55228475,0 2,0.44771525 2,1 C2,1.55228475 1.55228475,2 1,2 C0.44771525,2 0,1.55228475 0,1 C0,0.44771525 0.44771525,0 1,0 Z" id="color_g" fill="#00FFFF"></path>
        </g>
    </g>
</svg>