<svg xmlns="http://www.w3.org/2000/svg" fill="none" viewBox="0 0 16 16" class="design-iconfont">
  <path fill-rule="evenodd" clip-rule="evenodd" d="M2.43468 2.78496C2.57989 2.70096 2.70096 2.57989 2.78496 2.43468H12.6054C12.6894 2.57989 12.8105 2.70096 12.9557 2.78496V6.73874H13.9122V2.78496C14.198 2.61958 14.3904 2.31048 14.3904 1.95646C14.3904 1.42822 13.9622 1 13.4339 1C13.0799 1 12.7708 1.19234 12.6054 1.47823H2.78496C2.61958 1.19234 2.31048 1 1.95646 1C1.42822 1 1 1.42822 1 1.95646C1 2.31048 1.19235 2.61958 1.47823 2.78496V13.215C1.19235 13.3804 1 13.6895 1 14.0435C1 14.5717 1.42822 15 1.95646 15C2.31048 15 2.61958 14.8076 2.78496 14.5217H6.73874V13.5653H2.78496C2.70096 13.4201 2.57989 13.299 2.43468 13.215V2.78496ZM10.5096 14.3333L8.67395 12.5129L8.00325 15L10.5096 14.3333ZM14.4993 10.3768L12.6415 8.53385L8.82746 12.3184L10.6853 14.1613L14.4993 10.3768ZM14.1156 7.85729C14.0108 7.75369 13.8681 7.69519 13.7196 7.69519C13.6458 7.69518 13.5728 7.70956 13.5047 7.73751C13.4366 7.76545 13.3748 7.80641 13.3229 7.85799L12.8172 8.35978L14.6758 10.202L14.6765 10.2041L15.1822 9.70164C15.2877 9.59711 15.3468 9.4559 15.3468 9.30873C15.3468 9.16157 15.2877 9.02036 15.1822 8.91583L14.1156 7.85729Z" fill="#1DB28E"/>
  <path d="M4.00648 4C4.30576 4 4.55899 4.23054 4.55899 4.55331L9.41655 5.93657C9.60072 5.68297 9.94605 5.61381 10.1993 5.79824C10.4525 5.98268 10.5216 6.32849 10.3374 6.58209C10.2453 6.69736 10.1302 6.78958 9.96907 6.81264V7.89619L10.0151 7.9423L9.96907 7.96536V9.07197C10.2684 9.11808 10.4755 9.41778 10.4295 9.71749C10.3835 10.0172 10.0842 10.2247 9.7849 10.1786C9.66979 10.1555 9.5777 10.1094 9.50864 10.0403L5.11151 10.5705C5.04245 10.8702 4.74317 11.0546 4.44389 10.9855C4.1446 10.9163 3.96043 10.6166 4.0295 10.3169C4.05252 10.1786 4.1446 10.0633 4.25971 9.97109L3.75324 5.0605C3.47698 4.92218 3.36187 4.59941 3.5 4.32276C3.59209 4.11527 3.79928 4 4.00648 4ZM8.77195 6.14406L4.85827 9.97109C4.95036 10.0172 5.01943 10.0864 5.06547 10.1786L5.57194 10.1094L9.37051 6.44377C9.34749 6.39766 9.32447 6.32849 9.32447 6.28238L8.77195 6.14406ZM9.60072 6.78958L6.21655 10.0403L7.2295 9.92498L9.5777 7.80398L9.60072 6.78958ZM9.60072 8.31117L7.92015 9.83276L9.34749 9.64833C9.32447 9.44084 9.43957 9.23335 9.60072 9.14113V8.31117ZM7.71295 5.84435L4.53597 8.88753L4.60504 9.64833L8.33454 6.00573L7.71295 5.84435ZM6.60792 5.52159L4.42086 7.66565L4.48993 8.40339L7.27554 5.70603L6.60792 5.52159ZM5.38777 5.17577L4.25971 6.25933L4.3518 7.15845L6.14748 5.40632L5.38777 5.17577ZM4.1446 5.10661L4.21367 5.77519L4.95036 5.08356L4.44389 4.92218C4.37482 5.01439 4.25971 5.0605 4.1446 5.10661Z" fill="#467CF3"/>
</svg>
