<svg xmlns="http://www.w3.org/2000/svg" fill="none" viewBox="0 0 16 16" class="design-iconfont">
  <path fill-rule="evenodd" clip-rule="evenodd" d="M2.43468 2.78496C2.57989 2.70096 2.70096 2.57989 2.78496 2.43468H12.6054C12.6894 2.57989 12.8105 2.70096 12.9557 2.78496V6.73874H13.9122V2.78496C14.198 2.61958 14.3904 2.31048 14.3904 1.95646C14.3904 1.42822 13.9622 1 13.4339 1C13.0799 1 12.7708 1.19234 12.6054 1.47823H2.78496C2.61958 1.19234 2.31048 1 1.95646 1C1.42822 1 1 1.42822 1 1.95646C1 2.31048 1.19235 2.61958 1.47823 2.78496V13.215C1.19235 13.3804 1 13.6895 1 14.0435C1 14.5717 1.42822 15 1.95646 15C2.31048 15 2.61958 14.8076 2.78496 14.5217H6.73874V13.5653H2.78496C2.70096 13.4201 2.57989 13.299 2.43468 13.215V2.78496ZM10.5096 14.3333L8.67395 12.5129L8.00325 15L10.5096 14.3333ZM14.4993 10.3768L12.6415 8.53385L8.82746 12.3184L10.6853 14.1613L14.4993 10.3768ZM14.1156 7.85729C14.0108 7.75369 13.8681 7.69519 13.7196 7.69519C13.6458 7.69518 13.5728 7.70956 13.5047 7.73751C13.4366 7.76545 13.3748 7.80641 13.3229 7.85799L12.8172 8.35978L14.6758 10.202L14.6765 10.2041L15.1822 9.70164C15.2877 9.59711 15.3468 9.4559 15.3468 9.30873C15.3468 9.16157 15.2877 9.02036 15.1822 8.91583L14.1156 7.85729Z" fill="#1DB28E"/>
  <path d="M3.675 9L6.375 6.6849L8.175 8.22573L12 4.54314L11.3655 4L8.175 7.07011L6.375 5.52928L3 8.42219L3.675 9Z" fill="#467CF3"/>
</svg>
