<svg width="16" height="16" viewBox="0 0 16 16" fill="none" xmlns="http://www.w3.org/2000/svg">
<path fill-rule="evenodd" clip-rule="evenodd" d="M13.2005 12.2898C13.2005 13.0385 12.5949 13.6441 11.8446 13.6441H3.71193C2.96315 13.6441 2.35596 13.0385 2.35596 12.2898V4.15786C2.35596 3.40916 2.96315 2.80202 3.71193 2.80202H9.13264L10.4886 1.44617H3.25889C2.01146 1.44617 1 2.45912 1 3.70644V12.7413C1 13.9886 2.01146 15 3.25889 15H12.2976C13.545 15 14.5565 13.9886 14.5565 12.7413V5.51214L13.2006 6.86799V12.2898H13.2005Z" fill="#1DB28E"/>
<path fill-rule="evenodd" clip-rule="evenodd" d="M13.4853 1.15994L14.8396 2.50635C15.063 2.72813 15.052 3.10249 14.8129 3.34157L14.1616 3.98647L11.9955 1.83314L12.6452 1.18511C12.8843 0.949169 13.2603 0.936592 13.4853 1.15994ZM13.8313 4.31361L11.6652 2.16187L6.89734 6.8979L9.06501 9.05123L13.8313 4.31361ZM5.72858 10.2136L8.76142 9.35326L6.59533 7.19836L5.72858 10.2136Z" fill="#467CF3"/>
</svg>
