<svg width="46" height="46" viewBox="0 0 46 46" fill="none" xmlns="http://www.w3.org/2000/svg">
<path opacity="0.7" d="M42.0345 19.9084V33.3424C42.0345 33.4142 42.028 33.4838 42.0138 33.5479C41.6201 36.2661 33.2514 36.7566 23 34.6171C12.7486 32.4777 4.37994 28.4935 3.9862 25.6111C3.97206 25.5415 3.96553 25.4686 3.96553 25.3968V11.9628C3.96553 14.8593 12.4897 18.9893 23 21.1831C33.5103 23.377 42.0345 22.8049 42.0345 19.9084Z" fill="#01FFFF"/>
<path d="M42.0345 19.9084C42.0345 22.8049 33.5103 23.377 23 21.1831C12.4897 18.9893 3.96553 14.8604 3.96553 11.9628C3.96553 11.891 3.97206 11.8214 3.9862 11.7573C4.37994 9.03913 12.7486 8.54858 23 10.6881C33.2514 12.8275 41.6201 16.8117 42.0138 19.6941C42.028 19.7637 42.0345 19.8366 42.0345 19.9084Z" fill="#01FFFF"/>
</svg>
