<svg width="46" height="46" viewBox="0 0 46 46" fill="none" xmlns="http://www.w3.org/2000/svg">
<ellipse cx="24" cy="22.5" rx="21" ry="11.5" fill="#8FD3F4"/>
<path fill-rule="evenodd" clip-rule="evenodd" d="M1.88428 23.282C1.88428 20.3126 3.98173 17.5282 7.58185 15.4581C11.1684 13.3958 16.1564 12.1044 21.6932 12.1044C27.2299 12.1044 32.2179 13.3958 35.8045 15.4581C39.4046 17.5282 41.5021 20.3126 41.5021 23.282C41.5021 26.2514 39.4046 29.0358 35.8045 31.1058C32.2179 33.1681 27.2299 34.4596 21.6932 34.4596C16.1564 34.4596 11.1684 33.1681 7.58185 31.1058C3.98173 29.0358 1.88428 26.2514 1.88428 23.282ZM21.6932 11.1044C16.0136 11.1044 10.8472 12.427 7.08338 14.5912C3.33312 16.7476 0.884277 19.802 0.884277 23.282C0.884277 26.7619 3.33312 29.8164 7.08338 31.9727C10.8472 34.1369 16.0136 35.4596 21.6932 35.4596C27.3727 35.4596 32.5391 34.1369 36.303 31.9727C40.0532 29.8164 42.5021 26.7619 42.5021 23.282C42.5021 19.802 40.0532 16.7476 36.303 14.5912C32.5391 12.427 27.3727 11.1044 21.6932 11.1044ZM16.4832 23.282C16.4832 22.5868 16.9765 21.8854 17.9309 21.3367C18.8751 20.7938 20.2045 20.4461 21.6932 20.4461C23.1819 20.4461 24.5112 20.7938 25.4554 21.3367C26.4098 21.8854 26.9031 22.5868 26.9031 23.282C26.9031 23.9771 26.4098 24.6786 25.4554 25.2273C24.5112 25.7701 23.1819 26.1178 21.6932 26.1178C20.2045 26.1178 18.8751 25.7701 17.9309 25.2273C16.9765 24.6786 16.4832 23.9771 16.4832 23.282ZM21.6932 19.6961C20.0974 19.6961 18.6343 20.0672 17.5571 20.6865C16.4902 21.2999 15.7332 22.2038 15.7332 23.282C15.7332 24.3601 16.4902 25.2641 17.5571 25.8775C18.6343 26.4967 20.0974 26.8678 21.6932 26.8678C23.289 26.8678 24.7521 26.4967 25.8292 25.8775C26.8962 25.2641 27.6531 24.3601 27.6531 23.282C27.6531 22.2038 26.8962 21.2999 25.8292 20.6865C24.7521 20.0672 23.289 19.6961 21.6932 19.6961Z" fill="white"/>
<path fill-rule="evenodd" clip-rule="evenodd" d="M6.32878 23.282C6.32878 20.9741 7.95871 18.8127 10.7507 17.2073C13.5325 15.6076 17.4004 14.6063 21.6932 14.6063C25.9859 14.6063 29.8539 15.6076 32.6357 17.2073C35.4276 18.8127 37.0576 20.9741 37.0576 23.282C37.0576 25.5898 35.4276 27.7512 32.6357 29.3567C29.8539 30.9563 25.9859 31.9576 21.6932 31.9576C17.4004 31.9576 13.5325 30.9563 10.7507 29.3567C7.95871 27.7512 6.32878 25.5898 6.32878 23.282ZM21.6932 13.8563C17.2933 13.8563 13.2916 14.881 10.3768 16.5571C7.47223 18.2273 5.57878 20.5912 5.57878 23.282C5.57878 25.9727 7.47223 28.3366 10.3768 30.0068C13.2916 31.6829 17.2933 32.7076 21.6932 32.7076C26.0931 32.7076 30.0948 31.6829 33.0095 30.0068C35.9141 28.3366 37.8076 25.9727 37.8076 23.282C37.8076 20.5912 35.9141 18.2273 33.0095 16.5571C30.0948 14.881 26.0931 13.8563 21.6932 13.8563ZM10.8983 23.282C10.8983 21.6999 12.0167 20.1954 13.9818 19.0655C15.9367 17.9415 18.6623 17.2343 21.6932 17.2343C24.7241 17.2343 27.4497 17.9415 29.4046 19.0655C31.3696 20.1954 32.4881 21.6999 32.4881 23.282C32.4881 24.8641 31.3696 26.3685 29.4046 27.4984C27.4497 28.6225 24.7241 29.3297 21.6932 29.3297C18.6623 29.3297 15.9367 28.6225 13.9818 27.4984C12.0167 26.3685 10.8983 24.8641 10.8983 23.282ZM21.6932 16.4843C18.5551 16.4843 15.6958 17.2148 13.6079 18.4153C11.5303 19.61 10.1483 21.3169 10.1483 23.282C10.1483 25.247 11.5303 26.9539 13.6079 28.1486C15.6958 29.3491 18.5551 30.0797 21.6932 30.0797C24.8312 30.0797 27.6906 29.3491 29.7784 28.1486C31.8561 26.9539 33.2381 25.247 33.2381 23.282C33.2381 21.3169 31.8561 19.61 29.7784 18.4153C27.6906 17.2148 24.8312 16.4843 21.6932 16.4843Z" fill="#00FFFF"/>
</svg>
