<?xml version="1.0" encoding="UTF-8"?>
<svg width="16px" height="16px" viewBox="0 0 16 16" version="1.1" xmlns="http://www.w3.org/2000/svg" xmlns:xlink="http://www.w3.org/1999/xlink">
    <g id="icon/map/dark/sideToolBar/toolbar/退出全屏" stroke="none" stroke-width="1" fill="none" fill-rule="evenodd">
        <g id="icon" transform="translate(1.000000, 1.000000)">
            <path d="M12.5344059,8.55610828 L12.6198418,8.56197163 C12.9308483,8.60466517 13.1625978,8.87039037 13.1626111,9.18431349 L13.1567478,9.26974939 C13.1140543,9.5807558 12.8483291,9.81250537 12.5344059,9.81251861 L10.700047,9.81251861 L13.8159444,12.928416 L13.8770897,12.998775 C14.0618175,13.2488611 14.0358192,13.5964554 13.8159444,13.8162792 C13.5706784,14.0612402 13.1733471,14.0612402 12.9280811,13.8162792 L9.81218371,10.7020571 L9.81218371,12.5347408 L9.80632045,12.6201767 C9.76130451,12.9473494 9.47064719,13.1838025 9.14116013,13.1612924 C8.81167306,13.1387822 8.5558747,12.8649959 8.55577345,12.5347408 L8.55577345,8.97491178 L8.5624743,8.89952716 C8.5988839,8.70055539 8.77230125,8.55604093 8.97457686,8.55610828 L12.5344059,8.55610828 Z M5.02542314,8.55610828 C5.22769875,8.55604091 5.4011161,8.70055537 5.4375257,8.89952714 L5.44422655,8.97491175 L5.44422655,12.5347408 C5.4441253,12.8649959 5.18832694,13.1387822 4.85883987,13.1612924 C4.52935281,13.1838025 4.23869549,12.9473494 4.19367955,12.6201767 L4.18781629,12.5347408 L4.18781629,10.702057 L1.07191886,13.8162792 C0.826652877,14.0612402 0.429321583,14.0612402 0.184055603,13.8162792 C-0.0358191811,13.5964554 -0.061817518,13.2488611 0.122910317,12.9987749 L0.184055603,12.928416 L3.29995304,9.81251859 L1.46559406,9.81251859 C1.15167094,9.81250534 0.885945736,9.58075578 0.84325219,9.26974936 L0.837388936,9.18431347 C0.837402178,8.87039034 1.06915175,8.60466515 1.38015817,8.5619716 L1.46559406,8.55610828 L5.02542314,8.55610828 Z M13.7817808,0.152247871 C14.0302235,0.366263816 14.0722644,0.735367585 13.8783137,0.999772079 L13.8171684,1.07013105 L10.701271,4.18602844 L12.5356299,4.18602844 C12.8495531,4.18604168 13.1152783,4.41779125 13.1579718,4.72879766 L13.1638351,4.81423356 C13.1638218,5.12815668 12.9320723,5.39388188 12.6210658,5.43657543 L12.5356299,5.4424388 L8.97580088,5.4424388 C8.77352527,5.44250612 8.60010791,5.29799166 8.56369831,5.09901989 L8.55699746,5.02363527 L8.55699746,1.46380625 C8.55709871,1.13355117 8.81289708,0.859764845 9.14238414,0.837254677 C9.4718712,0.81474451 9.76252852,1.05119763 9.80754447,1.37837036 L9.81340772,1.46380625 L9.81340772,3.29648999 L12.9293052,0.182267811 C13.1620779,-0.048694144 13.5333381,-0.0617680749 13.7817808,0.152247871 Z M1.07069484,0.182267858 L4.18659228,3.29649004 L4.18659228,1.4638063 L4.19245553,1.3783704 C4.23747148,1.05119768 4.5281288,0.814744557 4.85761586,0.837254724 C5.18710292,0.859764892 5.44290129,1.13355122 5.44300254,1.4638063 L5.44300254,5.02363532 L5.43630169,5.09901994 C5.39989209,5.29799171 5.22647473,5.44250617 5.02419912,5.4424388 L1.46437005,5.4424388 L1.37893415,5.43657547 C1.06792774,5.39388193 0.836178164,5.12815673 0.836164923,4.81423361 L0.842028177,4.72879771 C0.884721722,4.4177913 1.15044692,4.18604173 1.46437005,4.18602849 L3.29872903,4.18602849 L0.182831589,1.0701311 L0.121686303,0.999772126 C-0.0722643575,0.735367632 -0.0302234828,0.366263863 0.218219208,0.152247918 C0.466661899,-0.0617680278 0.837922055,-0.0486940969 1.07069484,0.182267858 Z" id="color_g" fill="#00FFFF"></path>
            <path d="M12.5344059,8.55610825 L12.6198418,8.56197163 C12.9308483,8.60466517 13.1626111,8.87039037 13.1626111,9.18431349 L13.1567478,9.26974939 C13.1140543,9.5807558 12.8483291,9.81250537 12.5344059,9.81251861 L10.700047,9.81251861 L9.81218371,10.7020571 L9.81218371,12.5347408 L9.80632045,12.6201767 C9.76130451,12.9473494 9.47064719,13.1838025 9.14116013,13.1612924 C8.81167306,13.1387822 8.5558747,12.8649959 8.55577345,12.5347408 L8.55577345,8.97491178 L8.5624743,8.89952716 C8.5988839,8.70055539 8.77230125,8.55604093 8.97457686,8.55610825 L12.5344059,8.55610825 Z M5.02542314,8.55610825 C5.22769875,8.55604091 5.4011161,8.70055537 5.4375257,8.89952714 L5.44422655,8.97491175 L5.44422655,12.5347408 C5.4441253,12.8649959 5.18832694,13.1387822 4.85883987,13.1612924 C4.52935281,13.1838025 4.23869549,12.9473494 4.19367955,12.6201767 L4.18781629,12.5347408 L4.18781629,10.702057 L3.29995304,9.81251859 L1.46559406,9.81251859 C1.15167094,9.81250534 0.885945736,9.58075578 0.84325219,9.26974936 L0.837388936,9.18431347 C0.837388936,8.87039034 1.06915175,8.60466515 1.38015817,8.5619716 L1.46559406,8.55610825 L5.02542314,8.55610825 Z M10.701271,4.18602844 L12.5356299,4.18602844 C12.8495531,4.18604168 13.1152783,4.41779125 13.1579718,4.72879766 L13.1638351,4.81423356 C13.1638351,5.12815668 12.9320723,5.39388188 12.6210658,5.43657543 L12.5356299,5.44243882 L8.97580088,5.44243882 C8.77352527,5.44250612 8.60010791,5.29799166 8.56369831,5.09901989 L8.55699746,5.02363527 L8.55699746,1.46380625 C8.55709871,1.13355117 8.81289708,0.859764845 9.14238414,0.837254677 C9.4718712,0.81474451 9.76252852,1.05119763 9.80754447,1.37837036 L9.81340772,1.46380625 L9.81340772,3.29648999 L10.701271,4.18602844 Z M4.18659228,3.29649004 L4.18659228,1.4638063 L4.19245553,1.3783704 C4.23747148,1.05119768 4.5281288,0.814744557 4.85761586,0.837254724 C5.18710292,0.859764892 5.44290129,1.13355122 5.44300254,1.4638063 L5.44300254,5.02363532 L5.43630169,5.09901994 C5.39989209,5.29799171 5.22647473,5.44250617 5.02419912,5.44243882 L1.46437005,5.44243882 L1.37893415,5.43657547 C1.06792774,5.39388193 0.836164923,5.12815673 0.836164923,4.81423361 L0.842028177,4.72879771 C0.884721722,4.4177913 1.15044692,4.18604173 1.46437005,4.18602849 L3.29872903,4.18602849 L4.18659228,3.29649004 Z" id="color_w" fill="#FFFFFF"></path>
        </g>
    </g>
</svg>