<?xml version="1.0" encoding="UTF-8"?>
<svg width="16px" height="16px" viewBox="0 0 16 16" version="1.1" xmlns="http://www.w3.org/2000/svg" xmlns:xlink="http://www.w3.org/1999/xlink">
    <g id="icon/map/dark/select/地图打印" stroke="none" stroke-width="1" fill="none" fill-rule="evenodd">
        <g id="icon" transform="translate(1.000000, 1.000000)" fill-rule="nonzero">
            <path d="M10.5175155,-7.10542736e-15 C11.1958787,-7.10542736e-15 11.7473064,0.555785987 11.7473064,1.23766073 L11.747,2.748 L12.7693847,2.74823725 C13.4485723,2.74823725 14,3.30402324 14,3.98589798 L14,10.1036914 C14,10.7863957 13.447748,11.3413521 12.770209,11.3413521 L11.714,11.341 L11.7143362,12.7623393 C11.7143362,13.444214 11.1620842,14 10.4845452,14 L3.53193995,14 C2.85357668,14 2.30214895,13.444214 2.30214895,12.7623393 L2.302,11.341 L1.23061526,11.3413521 C0.552251993,11.3413521 0,10.7855661 0,10.1036914 L0,3.98589798 C0,3.3031937 0.552251993,2.74823725 1.229791,2.74823725 L2.293,2.748 L2.2939064,1.23766073 C2.2939064,0.555785987 2.84615839,-7.10542736e-15 3.52369738,-7.10542736e-15 L10.5175155,-7.10542736e-15 Z M10.73,8.588 L3.285,8.588 L3.2854872,12.7623393 C3.28639049,12.8988093 3.39633539,13.0090877 3.53193995,13.0095396 L10.4845452,13.0095396 C10.6201497,13.0090877 10.7300947,12.8988093 10.7309979,12.7623393 L10.73,8.588 Z M2.774,3.737 L1.229791,3.7378681 C1.0938667,3.73832333 0.983790575,3.84910387 0.983338252,3.98589798 L0.983338252,10.1036914 C0.983792398,10.2408086 1.09436918,10.351722 1.23061526,10.3517213 L2.302,10.351 L2.302,8.588 L2.14059465,8.58896723 C1.87687937,8.57809815 1.66864881,8.35977713 1.66864881,8.09415181 C1.66864881,7.82852648 1.87687937,7.61020547 2.14059465,7.59933638 L11.8585811,7.59933638 C11.9889414,7.60064118 12.1133822,7.65430181 12.2042404,7.74838957 C12.2950985,7.84247733 12.3448445,7.96919497 12.3425044,8.10037328 C12.3406278,8.36914281 12.124814,8.58670705 11.8577568,8.58896723 L11.714,8.588 L11.714,10.351 L12.770209,10.3517213 C12.9061333,10.3512661 13.0162094,10.2404855 13.0166617,10.1036914 L13.0166617,3.98589798 C13.0162076,3.84878079 12.9056308,3.73786734 12.7693847,3.7378681 L2.78598765,3.7378681 L2.78598765,3.7378681 L2.78598765,3.73869764 L2.774,3.737 Z M10.5175155,0.989630871 L3.52369738,0.989630871 C3.38745206,0.990087934 3.27724387,1.10137232 3.27724463,1.23849026 L3.277,2.748 L10.763,2.748 L10.7639682,1.23766073 C10.7635159,1.10086663 10.6534397,0.9900861 10.5175155,0.989630871 Z" id="color_w" fill="#FFFFFF"></path>
            <path d="M9.37591993,10.4039818 C9.61138295,10.4142437 9.79703011,10.6093448 9.79703011,10.8465367 C9.79703011,11.0837286 9.61138295,11.2788297 9.37591993,11.2890917 L4.62408007,11.2890917 C4.38861705,11.2788297 4.20296989,11.0837286 4.20296989,10.8465367 C4.20296989,10.6093448 4.38861705,10.4142437 4.62408007,10.4039818 L9.37591993,10.4039818 Z M11.1192228,4.91995022 C11.4558451,4.9372552 11.7199584,5.21698271 11.7199584,5.55620074 C11.7199584,5.89541878 11.4558451,6.17514629 11.1192228,6.19245127 C10.7826006,6.17514629 10.5184873,5.89541878 10.5184873,5.55620074 C10.5184873,5.21698271 10.7826006,4.9372552 11.1192228,4.91995022 Z" id="color_g" fill="#00FFFF"></path>
        </g>
    </g>
</svg>