<svg width="46" height="46" viewBox="0 0 46 46" fill="none" xmlns="http://www.w3.org/2000/svg">
<path d="M42.763 19.4802L25.4546 29.4739C24.1922 30.2022 21.9683 30.1108 20.5107 29.2684L3.91208 19.6846C2.45447 18.8433 2.29526 17.5593 3.55667 16.83L20.8651 6.83635C22.1275 6.10806 24.3514 6.19949 25.809 7.0418L42.4076 16.6256C43.8652 17.4669 44.0254 18.7519 42.763 19.4802Z" fill="#01FFFF"/>
<path opacity="0.7" fill-rule="evenodd" clip-rule="evenodd" d="M3.91208 19.6846L20.5107 29.2685C21.2677 29.7061 22.2302 29.9361 23.1588 29.9587V40.2708C22.2302 40.2472 21.2677 40.0171 20.5107 39.5806L3.91208 29.9978C3.00506 29.4739 2.60137 28.7785 2.72977 28.1529V18.2866C2.82119 18.7807 3.21667 19.283 3.91208 19.6846ZM43.5909 18.4715V28.3367C43.6906 28.8791 43.4235 29.4122 42.763 29.7933L25.4546 39.787C24.8486 40.1372 24.0176 40.2924 23.1588 40.2718V29.9597C24.0176 29.9813 24.8475 29.8251 25.4546 29.4749L42.763 19.4812C43.2407 19.2059 43.5129 18.8515 43.5909 18.4715Z" fill="#01FFFF"/>
</svg>
