<svg width="34" height="34" viewBox="0 0 34 34" fill="none" xmlns="http://www.w3.org/2000/svg">
<path fill-rule="evenodd" clip-rule="evenodd" d="M17.6911 12.3059L21.0737 8.71534C21.254 8.52461 21.3662 8.27555 21.3662 7.99871C21.3662 7.40337 20.8613 6.92191 20.2377 6.92191C20.2148 6.92191 20.1927 6.92376 20.1706 6.92562V6.91636H18.6918V1H15.013V6.91636H13.4928V6.92284L13.467 6.92191C12.8444 6.92191 12.3386 7.4043 12.3386 7.99871C12.3414 8.26674 12.4449 8.52376 12.6283 8.71812L16.0173 12.304C16.1251 12.4177 16.2547 12.5081 16.3982 12.5697C16.5418 12.6313 16.6963 12.6628 16.8524 12.6624C17.1853 12.6624 17.4814 12.5225 17.6911 12.3059ZM25.751 31.9472H32.0588C32.5765 31.9472 33 31.6223 33 31.2252V18.2883C33 17.8912 32.5765 17.5663 32.0588 17.5663H24.7814C24.4175 17.5663 24.1002 17.7268 23.9437 17.9601C23.8555 18.0803 23.8031 18.2287 23.8031 18.3888V21.4369L23.8031 21.4389L23.8031 21.4409V25.2089H23.231H23.084H18.3722C18.3493 25.2078 18.3263 25.2078 18.3035 25.2089H11.7874C11.7697 25.2089 11.7522 25.2096 11.7349 25.2108C11.7176 25.2096 11.7001 25.2089 11.6824 25.2089H8.19159V21.4409L8.19159 21.4389L8.19159 21.4369V18.3888C8.19159 18.166 8.09024 17.9658 7.93166 17.8327C7.7587 17.6704 7.49586 17.5663 7.20287 17.5663H1.94118C1.42353 17.5663 1 17.8912 1 18.2883V31.2252C1 31.6223 1.42353 31.9472 1.94118 31.9472H25.2058C25.2938 31.9835 25.3868 32 25.4798 32C25.5732 32 25.6654 31.9822 25.751 31.9472ZM31.1176 19.0102H25.2415V19.92C25.4714 19.8192 25.7478 19.8418 25.9617 20.0033L31.1176 23.8998V19.0102ZM30.4061 25.1727L25.2415 21.2696V21.4369L25.2415 21.4389L25.2415 21.4409V25.4502L31.1176 29.4631V25.2615C31.0296 25.2984 30.9342 25.3175 30.8376 25.3175C30.6866 25.3175 30.5355 25.2668 30.4061 25.1727ZM30.0815 30.5032L24.4493 26.6569H23.231H23.084H20.5144L25.6551 30.5032H30.0815ZM14.0186 26.6569H18.1007L23.2414 30.5032H19.0306C18.9862 30.4367 18.9303 30.3765 18.8634 30.326L14.0186 26.6569ZM16.7024 30.5032L11.6236 26.6569H7.47243C7.07689 26.6569 6.75327 26.3311 6.75327 25.9329V24.0722L2.88235 21.1494V24.4805L10.8594 30.4431C10.8843 30.4619 10.9075 30.482 10.9292 30.5032H16.7024ZM6.75327 21.4409V22.2621L2.88235 19.3394V19.0102H6.75327V21.4369L6.75327 21.4389L6.75327 21.4409ZM2.88235 26.284V30.5032H8.52705L2.88235 26.284Z" fill="white"/>
<path fill-rule="evenodd" clip-rule="evenodd" d="M33 14H1V16.5H33V14ZM22.6693 20.25H9.31497V24H22.6693V20.25Z" fill="#00FFFF"/>
</svg>
