<?xml version="1.0" encoding="UTF-8"?>
<svg width="34px" height="34px" viewBox="0 0 34 34" version="1.1" xmlns="http://www.w3.org/2000/svg" xmlns:xlink="http://www.w3.org/1999/xlink">
    <g id="icon/map/dark/淹没分析" stroke="none" stroke-width="1" fill="none" fill-rule="evenodd">
        <g id="icon" fill-rule="nonzero">
            <path d="M9.6370817,20.6251435 L9.76776695,20.7469517 L9.93933983,20.9185245 C10.4885146,21.4676993 11.357577,21.5020228 11.9467378,21.0214948 L12.0606602,20.9185245 L12.6464466,20.3327381 C12.8417088,20.137476 13.1582912,20.137476 13.3535534,20.3327381 C13.5271197,20.5063045 13.5464049,20.7757289 13.4114088,20.970597 L13.3535534,21.0398449 L12.767767,21.6256313 C11.8339045,22.5594938 10.3450416,22.6000965 9.3629183,21.7474395 L9.23223305,21.6256313 L9.06066017,21.4540585 C8.51148539,20.9048837 7.64242298,20.8705602 7.05326224,21.3510882 L6.93933983,21.4540585 L6.76776695,21.6256313 C5.83390452,22.5594938 4.34504164,22.6000965 3.3629183,21.7474395 L3.23223305,21.6256313 L2.64644661,21.0398449 C2.45118446,20.8445827 2.45118446,20.5280003 2.64644661,20.3327381 C2.82001296,20.1591718 3.08943736,20.1398866 3.2843055,20.2748827 L3.35355339,20.3327381 L3.93933983,20.9185245 C4.48851461,21.4676993 5.35757702,21.5020228 5.94673776,21.0214948 L6.06066017,20.9185245 L6.23223305,20.7469517 C7.16609548,19.8130892 8.65495836,19.7724865 9.6370817,20.6251435 Z M14.6370817,14.2819978 L14.767767,14.4038059 L14.9393398,14.5753788 C15.4885146,15.1245536 16.357577,15.158877 16.9467378,14.6783491 L17.0606602,14.5753788 L17.6464466,13.9895924 C17.8417088,13.7943302 18.1582912,13.7943302 18.3535534,13.9895924 C18.5271197,14.1631587 18.5464049,14.4325831 18.4114088,14.6274513 L18.3535534,14.6966991 L17.767767,15.2824856 C16.8339045,16.216348 15.3450416,16.2569507 14.3629183,15.4042937 L14.232233,15.2824856 L14.0606602,15.1109127 C13.5114854,14.5617379 12.642423,14.5274145 12.0532622,15.0079424 L11.9393398,15.1109127 L11.767767,15.2824856 C10.8339045,16.216348 9.34504164,16.2569507 8.3629183,15.4042937 L8.23223305,15.2824856 L8.06066017,15.1109127 C7.51148539,14.5617379 6.64242298,14.5274145 6.05326224,15.0079424 L5.93933983,15.1109127 L5.76776695,15.2824856 C4.83390452,16.216348 3.34504164,16.2569507 2.3629183,15.4042937 L2.23223305,15.2824856 L1.64644661,14.6966991 C1.45118446,14.501437 1.45118446,14.1848545 1.64644661,13.9895924 C1.82001296,13.816026 2.08943736,13.7967409 2.2843055,13.9317369 L2.35355339,13.9895924 L2.93933983,14.5753788 C3.48851461,15.1245536 4.35757702,15.158877 4.94673776,14.6783491 L5.06066017,14.5753788 L5.23223305,14.4038059 C6.16609548,13.4699435 7.65495836,13.4293408 8.6370817,14.2819978 L8.76776695,14.4038059 L8.93933983,14.5753788 C9.48851461,15.1245536 10.357577,15.158877 10.9467378,14.6783491 L11.0606602,14.5753788 L11.232233,14.4038059 C12.1660955,13.4699435 13.6549584,13.4293408 14.6370817,14.2819978 Z M19.6370817,7.93885203 L19.767767,8.06066017 L19.9393398,8.23223305 C20.4885146,8.78140783 21.357577,8.81573126 21.9467378,8.33520332 L22.0606602,8.23223305 L22.6464466,7.64644661 C22.8417088,7.45118446 23.1582912,7.45118446 23.3535534,7.64644661 C23.5271197,7.82001296 23.5464049,8.08943736 23.4114088,8.2843055 L23.3535534,8.35355339 L22.767767,8.93933983 C21.8339045,9.87320227 20.3450416,9.91380498 19.3629183,9.06114797 L19.232233,8.93933983 L19.0606602,8.76776695 C18.5114854,8.21859217 17.642423,8.18426874 17.0532622,8.66479668 L16.9393398,8.76776695 L16.767767,8.93933983 C15.8339045,9.87320227 14.3450416,9.91380498 13.3629183,9.06114797 L13.232233,8.93933983 L13.0606602,8.76776695 C12.5114854,8.21859217 11.642423,8.18426874 11.0532622,8.66479668 L10.9393398,8.76776695 L10.767767,8.93933983 C9.83390452,9.87320227 8.34504164,9.91380498 7.3629183,9.06114797 L7.23223305,8.93933983 L7.06066017,8.76776695 C6.51148539,8.21859217 5.64242298,8.18426874 5.05326224,8.66479668 L4.93933983,8.76776695 L4.76776695,8.93933983 C3.83390452,9.87320227 2.34504164,9.91380498 1.3629183,9.06114797 L1.23223305,8.93933983 L0.646446609,8.35355339 C0.451184464,8.15829124 0.451184464,7.84170876 0.646446609,7.64644661 C0.820012961,7.47288026 1.08943736,7.45359511 1.2843055,7.58859116 L1.35355339,7.64644661 L1.93933983,8.23223305 C2.48851461,8.78140783 3.35757702,8.81573126 3.94673776,8.33520332 L4.06066017,8.23223305 L4.23223305,8.06066017 C5.16609548,7.12679773 6.65495836,7.08619502 7.6370817,7.93885203 L7.76776695,8.06066017 L7.93933983,8.23223305 C8.48851461,8.78140783 9.35757702,8.81573126 9.94673776,8.33520332 L10.0606602,8.23223305 L10.232233,8.06066017 C11.1660955,7.12679773 12.6549584,7.08619502 13.6370817,7.93885203 L13.767767,8.06066017 L13.9393398,8.23223305 C14.4885146,8.78140783 15.357577,8.81573126 15.9467378,8.33520332 L16.0606602,8.23223305 L16.232233,8.06066017 C17.1660955,7.12679773 18.6549584,7.08619502 19.6370817,7.93885203 Z" id="color_g" fill="#00FFFF"></path>
            <path d="M30,0 C30.5522847,0 31,0.44771525 31,1 L31,1.5 L34,1.5 L34,2.5 L31,2.5 L31,3.5 L33,3.5 L33,4.5 L31,4.5 L31,5.5 L33,5.5 L33,6.5 L31,6.5 L31,7.5 L33,7.5 L33,8.5 L31,8.5 L31,9.5 L33,9.5 L33,10.5 L31,10.5 L31,11.5 L34,11.5 L34,12.5 L31,12.5 L31,13.5 L33,13.5 L33,14.5 L31,14.5 L31,15.5 L33,15.5 L33,16.5 L31,16.5 L31,17.5 L33,17.5 L33,18.5 L31,18.5 L31,19.5 L33,19.5 L33,20.5 L31,20.5 L31,21.5 L34,21.5 L34,22.5 L31,22.5 L31,23.5 L33,23.5 L33,24.5 L31,24.5 L31,25.5 L33,25.5 L33,26.5 L31,26.5 L31,27.5 L33,27.5 L33,28.5 L31,28.5 L31,29.5 L33,29.5 L33,30.5 L31,30.5 L31,31.5 L34,31.5 L34,32.5 L31,32.5 L31,33 C31,33.5522847 30.5522847,34 30,34 L1,34 C0.44771525,34 0,33.5522847 0,33 L0,30.8487522 C0,30.3621296 0.350258732,29.9461494 0.829779974,29.8633188 C8.87618339,28.4734136 14.9329234,25.518974 19,21 C23.0742458,16.4730602 25.7041602,9.76234021 26.889743,0.86784002 C26.9559986,0.371038621 27.379776,0 27.880976,0 L30,0 Z M30,0.99996536 L27.880976,0.99996536 C26.6708366,10.0786941 23.9684456,16.9743521 19.7432941,21.6689647 C15.6133552,26.2577857 9.5498693,29.2768079 1.58610103,30.7441296 L1,30.8487522 L1,33 L30,33 L30,0.99996536 Z" id="color_w" fill="#FFFFFF"></path>
        </g>
    </g>
</svg>