<?xml version="1.0" encoding="UTF-8"?>
<svg width="16px" height="16px" viewBox="0 0 16 16" version="1.1" xmlns="http://www.w3.org/2000/svg" xmlns:xlink="http://www.w3.org/1999/xlink">
    <g id="icon/map/dark/sideToolBar/toolbar/全屏" stroke="none" stroke-width="1" fill="none" fill-rule="evenodd">
        <g id="icon" transform="translate(1.000000, 1.000000)">
            <path d="M9.62769231,8.73982906 L12.7435897,11.8540512 L12.7435897,10.0213675 L12.749453,9.93593161 C12.7944689,9.60875888 13.0851263,9.37230576 13.4146133,9.39481593 C13.7441004,9.41732609 13.9998988,9.69111242 14,10.0213675 L14,13.5811965 L13.9932992,13.6565811 C13.9568896,13.8555529 13.7834722,14.0000674 13.5811966,14 L10.0213675,14 L9.93593162,13.9941367 C9.6249252,13.9514431 9.39317563,13.6857179 9.39316239,13.3717948 L9.39902564,13.2863589 C9.44171919,12.9753525 9.70744439,12.7436029 10.0213675,12.7435897 L11.8557265,12.7435897 L8.73982905,9.6276923 L8.67868377,9.55733333 C8.49395593,9.30724719 8.51995427,8.95965292 8.73982905,8.73982906 C8.98509503,8.49486811 9.38242633,8.49486811 9.62769231,8.73982906 Z M5.32131623,9.55733333 L5.26017095,9.6276923 L2.14427351,12.7435897 L3.97863249,12.7435897 C4.29255561,12.7436029 4.55828081,12.9753525 4.60097436,13.2863589 L4.60683761,13.3717948 C4.60682437,13.6857179 4.3750748,13.9514431 4.06406838,13.9941367 L3.97863249,14 L0.418803412,14 C0.216527803,14.0000674 0.0431104492,13.8555529 0.00670084816,13.6565811 L0,13.5811965 L0,10.0213675 C0.000101248798,9.69111242 0.255899612,9.41732609 0.585386675,9.39481593 C0.914873738,9.37230576 1.20553106,9.60875888 1.250547,9.93593161 L1.25641026,10.0213675 L1.25641026,11.8540512 L4.37230769,8.73982906 C4.61757367,8.49486811 5.01490497,8.49486811 5.26017095,8.73982906 C5.48004573,8.95965292 5.50604407,9.30724719 5.32131623,9.55733333 Z M13.9932992,0.343418933 L14,0.418803547 L14,3.97863257 C13.9998988,4.30888765 13.7441004,4.58267398 13.4146133,4.60518414 C13.0851263,4.62769431 12.7944689,4.39124119 12.749453,4.06406846 L12.7435897,3.97863257 L12.7435897,2.14594883 L9.62769231,5.26017101 C9.39491952,5.49113297 9.02365936,5.5042069 8.77521667,5.29019095 C8.52677398,5.07617501 8.48473311,4.70707124 8.67868377,4.44266674 L8.73982905,4.37230777 L11.8557265,1.25641038 L10.0213675,1.25641038 C9.70744439,1.25639714 9.44171919,1.02464757 9.39902564,0.713641156 L9.39316239,0.62820526 C9.39317563,0.314282137 9.6249252,0.0485569402 9.93593162,0.00586339563 L10.0213675,4.70368633e-08 L13.5811966,4.70368633e-08 C13.7834722,-6.72964789e-05 13.9568896,0.14444716 13.9932992,0.343418933 Z M3.97863249,9.41395366e-08 L4.06406838,0.00586339563 C4.3750748,0.0485569402 4.60682437,0.314282137 4.60683761,0.62820526 L4.60097436,0.713641156 C4.55828081,1.02464757 4.29255561,1.25639714 3.97863249,1.25641038 L2.14427351,1.25641038 L5.26017095,4.37230777 L5.32131623,4.44266674 C5.51526689,4.70707124 5.47322602,5.07617501 5.22478333,5.29019095 C4.97634064,5.5042069 4.60508048,5.49113297 4.37230769,5.26017101 L1.25641026,2.14594883 L1.25641026,3.97863257 L1.250547,4.06406846 C1.20553106,4.39124119 0.914873738,4.62769431 0.585386675,4.60518414 C0.255899612,4.58267398 0.000101248798,4.30888765 0,3.97863257 L0,0.418803547 L0.00670084816,0.343418933 C0.0431104492,0.14444716 0.216527803,-6.72964789e-05 0.418803412,9.41395366e-08 L3.97863249,9.41395366e-08 Z" id="color_g" fill="#00FFFF"></path>
            <path d="M12.7435897,11.8540512 L12.7435897,10.0213675 L12.749453,9.93593161 C12.7944689,9.60875888 13.0851263,9.37230576 13.4146133,9.39481593 C13.7441004,9.41732609 13.9998988,9.69111242 14,10.0213675 L14,13.5811965 L13.9932992,13.6565811 C13.9568896,13.8555529 13.7834722,14.0000674 13.5811966,14 L10.0213675,14 L9.93593162,13.9941367 C9.6249252,13.9514431 9.39316239,13.6857179 9.39316239,13.3717948 L9.39902564,13.2863589 C9.44171919,12.9753525 9.70744439,12.7436029 10.0213675,12.7435897 L11.8557265,12.7435897 L12.7435897,11.8540512 Z M2.14427351,12.7435897 L3.97863249,12.7435897 C4.29255561,12.7436029 4.55828081,12.9753525 4.60097436,13.2863589 L4.60683761,13.3717948 C4.60683761,13.6857179 4.3750748,13.9514431 4.06406838,13.9941367 L3.97863249,14 L0.418803412,14 C0.216527803,14.0000674 0.0431104492,13.8555529 0.00670084816,13.6565811 L-3.99680289e-14,13.5811965 L-3.99680289e-14,10.0213675 C0.000101248798,9.69111242 0.255899612,9.41732609 0.585386675,9.39481593 C0.914873738,9.37230576 1.20553106,9.60875888 1.250547,9.93593161 L1.25641026,10.0213675 L1.25641026,11.8540512 L2.14427351,12.7435897 Z M13.9932992,0.343418933 L14,0.418803547 L14,3.97863257 C13.9998988,4.30888765 13.7441004,4.58267398 13.4146133,4.60518414 C13.0851263,4.62769431 12.7944689,4.39124119 12.749453,4.06406846 L12.7435897,3.97863257 L12.7435897,2.14594883 L11.8557265,1.25641038 L10.0213675,1.25641038 C9.70744439,1.25639714 9.44171919,1.02464757 9.39902564,0.713641156 L9.39316239,0.62820526 C9.39316239,0.314282137 9.6249252,0.0485569402 9.93593162,0.00586339563 L10.0213675,2.3510224e-08 L13.5811966,2.3510224e-08 C13.7834722,-6.72964789e-05 13.9568896,0.14444716 13.9932992,0.343418933 Z M3.97863249,7.05799712e-08 L4.06406838,0.00586339563 C4.3750748,0.0485569402 4.60683761,0.314282137 4.60683761,0.62820526 L4.60097436,0.713641156 C4.55828081,1.02464757 4.29255561,1.25639714 3.97863249,1.25641038 L2.14427351,1.25641038 L1.25641026,2.14594883 L1.25641026,3.97863257 L1.250547,4.06406846 C1.20553106,4.39124119 0.914873738,4.62769431 0.585386675,4.60518414 C0.255899612,4.58267398 0.000101248798,4.30888765 -3.99680289e-14,3.97863257 L-3.99680289e-14,0.418803547 L0.00670084816,0.343418933 C0.0431104492,0.14444716 0.216527803,-6.72964789e-05 0.418803412,7.05799712e-08 L3.97863249,7.05799712e-08 Z" id="color_w" fill="#FFFFFF"></path>
        </g>
    </g>
</svg>