<svg fill="none" xmlns="http://www.w3.org/2000/svg" viewBox="0 0 16 16" class="design-iconfont">
  <g clip-path="url(#obbktlj13__clip0_1046_1273)" fill-rule="evenodd" clip-rule="evenodd">
    <path d="M1 2C1 1.44772 1.44772 1 2 1H12C12.5523 1 13 1.44772 13 2V4H13.9C14.5075 4 15 4.49246 15 5.1V13.9C15 14.5075 14.5075 15 13.9 15H5.1C4.49253 15 4 14.5075 4 13.9V13H2C1.44772 13 1 12.5523 1 12V2ZM5 12.8V13V13.35C5 13.6537 5.19626 14 5.5 14H13.3C13.6037 14 14 13.5037 14 13.2V5.5C14 5.19626 13.6537 5 13.35 5H13H11.7H6C5.44772 5 5 5.44772 5 6V12.8Z" fill="#fff"/>
    <path d="M6 9.5C6 8.50187 7.69491 7.5 9.5 7.5C11.3051 7.5 13 8.50187 13 9.5C13 10.4981 11.3051 11.5 9.5 11.5C7.69491 11.5 6 10.4981 6 9.5ZM9.00484 8.45297C9.16177 8.39601 9.32997 8.3667 9.49983 8.3667C9.84289 8.3667 10.1719 8.4861 10.4145 8.69864C10.657 8.91119 10.7933 9.19945 10.7933 9.50003C10.7933 9.80061 10.657 10.0889 10.4145 10.3014C10.1719 10.514 9.84289 10.6334 9.49983 10.6334C9.32997 10.6334 9.16177 10.6041 9.00484 10.5471C8.84791 10.4901 8.70532 10.4067 8.58521 10.3014C8.4651 10.1962 8.36982 10.0712 8.30482 9.93374C8.23981 9.79624 8.20635 9.64886 8.20635 9.50003C8.20635 9.3512 8.23981 9.20383 8.30482 9.06632C8.36982 8.92882 8.4651 8.80388 8.58521 8.69864C8.70532 8.59341 8.84791 8.50992 9.00484 8.45297ZM10.0917 8.98149C9.93469 8.84396 9.72181 8.7667 9.49983 8.7667C9.27786 8.7667 9.06498 8.84396 8.90802 8.98149C8.75106 9.11901 8.66288 9.30554 8.66288 9.50003C8.66288 9.69452 8.75106 9.88105 8.90802 10.0186C9.06498 10.1561 9.27786 10.2334 9.49983 10.2334C9.72181 10.2334 9.93469 10.1561 10.0917 10.0186C10.2486 9.88105 10.3368 9.69452 10.3368 9.50003C10.3368 9.30554 10.2486 9.11901 10.0917 8.98149Z" fill="#0FF"/>
  </g>
  <defs>
    <clipPath id="obbktlj13__clip0_1046_1273">
      <path fill="#fff" d="M0 0H16V16H0z"/>
    </clipPath>
  </defs>
</svg>
