<?xml version="1.0" encoding="UTF-8"?>
<svg width="16px" height="16px" viewBox="0 0 16 16" version="1.1" xmlns="http://www.w3.org/2000/svg" xmlns:xlink="http://www.w3.org/1999/xlink">
    <g id="icon/map/dark/sideToolBar/toolbar/帮助" stroke="none" stroke-width="1" fill="none" fill-rule="evenodd">
        <g id="icon" transform="translate(1.000000, 0.000000)" fill-rule="nonzero">
            <path d="M4.06200561,4.0003329 C4.31491979,4.0003329 4.54349099,4.03384283 4.62127088,4.40707703 L4.63864995,4.51752115 L4.97939434,8.21012062 L4.98905106,8.21884428 L4.99318966,8.24501525 L5.33393404,8.23878407 C5.69347291,8.30067075 6.01597933,8.47822278 6.24166605,8.738525 L6.29503901,8.80542074 L6.33547422,8.87934975 L6.48170461,9.22081862 L6.81141274,9.29310035 C7.25186952,9.43376181 7.62928708,9.70074461 7.88606811,10.0533048 C8.09487769,10.3458083 8.254785,10.6645364 8.36062709,10.9991985 C8.36295042,11.0090429 8.37079676,11.0170762 8.38132007,11.0203845 C9.02694101,11.1562243 9.05453165,11.9438459 8.95934395,12.2155255 C8.92714858,12.2977151 8.90133474,12.3818323 8.88209016,12.4672653 L8.52755045,13.907915 C8.48407277,14.0897326 8.41933113,14.2668619 8.33441598,14.4363194 L8.16869971,14.7576927 L7.99781019,15.0743926 L8.00608738,15.0881012 L8.05575053,15.997854 L3.37775777,15.9928691 L3.35568526,14.9360603 C3.2679888,14.7080395 3.11121593,14.5068285 2.90319879,14.355314 C2.31827725,13.9615032 1.95959895,13.4380838 1.62575223,12.8772772 C1.33743005,12.3937374 1.29880316,11.8354233 1.06980086,11.3581146 C0.985316382,11.0657524 0.864047204,10.7830922 0.708363495,10.5156586 C0.666977537,10.436211 0.634127433,10.3027858 0.584787611,10.2000297 L0.529024344,10.1106317 C0.500054174,10.0769833 0.485051764,10.0163461 0.476596742,9.94705578 L0.45452962,9.61338319 C0.429430537,9.43535929 0.390243461,9.25918882 0.337269406,9.08622505 C0.251456995,8.8758879 0.145281737,8.6727957 0.0199770633,8.47930776 C-0.0558971926,8.34596043 0.0999899151,8.14780878 0.22552732,8.08425071 C0.609037196,7.88983778 1.15257277,8.1789647 1.36640022,8.48553894 C1.47032934,8.66860136 1.5597632,8.85808881 1.63402942,9.05257666 L1.70037967,9.19797216 L1.83525205,9.52094004 C1.92989678,9.74174558 2.03902058,9.96179538 2.19273985,10.1106317 C2.39156654,10.3241793 2.68536824,10.4466076 2.9942479,10.4446231 C3.06358057,10.440194 3.12877689,10.4131811 3.17772564,10.3686027 C3.37582286,10.2264128 3.50773631,10.0223162 3.5474402,9.79657999 L3.55853263,9.71899335 L3.56123552,9.6408004 L3.50605424,4.52749105 C3.49290658,4.388756 3.54625747,4.2515896 3.65257768,4.1507758 C3.75889789,4.04996201 3.90797537,3.995184 4.06200561,4.0003329 Z M12.9999882,6.24985185 L12.9999882,9.63225621 C12.9999882,10.8877925 11.9554814,11.9148118 10.6097641,11.9949645 L10.4400344,12 L10.0031466,11.9999866 C10.020656,11.6588994 9.9576032,11.3094621 9.81045209,10.9998494 L10.4400344,11 C11.2738726,11 11.9199606,10.4459093 11.9930857,9.76192241 L11.9999882,9.63225621 L11.999,7.249 L7,7.249 L6.99902159,8.08885185 L6.88364095,7.96508797 C6.64339939,7.72646664 6.36703795,7.54295581 6.06688245,7.41707564 L5.99902159,7.39185185 L6,6.24985185 L12.9999882,6.24985185 Z M8,-5.32907052e-15 C8,0.276142375 8.22385763,0.5 8.5,0.5 C9.27969612,0.5 9.92044868,1.09488808 9.99313342,1.85553999 L10,2 L10.4400463,2 C11.8095739,2 12.9088618,3.0310513 12.9946136,4.33534322 L13,4.49974802 L13,5.55999277 L10.0708235,5.55999277 C9.73851242,5.55999277 9.70835858,5.29960806 9.70565092,5.24753111 L9.70538806,5.23853016 L9.70158897,4.879018 C10.3474264,4.879018 10.4306284,4.23770162 10.4388517,4.15219277 L10.4396439,4.14281297 L10.4400463,3.42854198 C10.4400463,2.84817137 9.88538278,2.73727961 9.73747252,2.71802617 L9.70158897,2.71427099 L9.70158897,2 L9,2 C9,1.72385763 8.77614237,1.5 8.5,1.5 C7.72030388,1.5 7.07955132,0.905111917 7.00686658,0.144460011 L7,-5.32907052e-15 L8,-5.32907052e-15 Z" id="color_w" fill="#FFFFFF"></path>
            <path d="M9.31006871,2 L9.31006871,2.69159245 C8.66384312,2.69159245 8.57163508,3.40586344 8.57163508,3.40586344 L8.57163508,3.40586344 L8.57163508,4.16511353 C8.57163508,4.8570725 9.31006871,4.87902945 9.31006871,4.87902945 L9.31006871,4.87902945 L9.31006871,5.21404191 C9.31006871,5.21404191 9.31006871,5.57098841 8.94086965,5.57098841 L8.94086965,5.57098841 L6.00001183,5.57098841 L6.00001183,4.49977092 C6.00001183,3.11876225 7.16811055,2 8.59470188,2 L8.59470188,2 L9.31006871,2 Z M9.70158897,3.07122895 C9.90566331,3.07122895 10.0708117,3.23143337 10.0708117,3.42855343 L10.0708117,3.42855343 L10.0708117,4.14282442 C10.0708117,4.33994447 9.90566332,4.49977092 9.70158897,4.49977092 L9.70158897,4.49977092 L9.33274496,4.49977092 C9.12904933,4.49977092 8.96390095,4.33994448 8.96390095,4.14282442 L8.96390095,4.14282442 L8.96390095,3.42855343 C8.96390095,3.23142192 9.12904933,3.07122895 9.33274496,3.07122895 L9.33274496,3.07122895 Z" id="color_g" fill="#00FFFF"></path>
        </g>
    </g>
</svg>