<?xml version="1.0" encoding="UTF-8"?>
<svg width="16px" height="16px" viewBox="0 0 16 16" version="1.1" xmlns="http://www.w3.org/2000/svg" xmlns:xlink="http://www.w3.org/1999/xlink">
    <title>-mockplus-</title>
    <defs>
        <filter id="filter-1">
            <feColorMatrix in="SourceGraphic" type="matrix" values="0 0 0 0 0.000000 0 0 0 0 1.000000 0 0 0 0 1.000000 0 0 0 1.000000 0"></feColorMatrix>
        </filter>
    </defs>
    <g id="Symbols" stroke="none" stroke-width="1" fill="none" fill-rule="evenodd">
        <g id="icon" transform="translate(-75.000000, -536.000000)">
            <g id="dark-&lt;v10&gt;" transform="translate(10.000000, 45.000000)">
                <g id="编组" transform="translate(0.000000, 456.000000)">
                    <g id="编组-46备份" transform="translate(62.000000, 32.000000)">
                        <g id="icon/map/dark/viewShow" transform="translate(3.000000, 3.000000)" filter="url(#filter-1)">
                            <g id="hide">
                                <rect id="矩形" fill="#000000" fill-rule="nonzero" opacity="0" x="0" y="0" width="16" height="16"></rect>
                                <path d="M14.9126562,5.54921875 C15.0628125,5.3240625 15.0128125,5.02375 14.8125,4.8484375 C14.5873437,4.67328125 14.2870312,4.72328125 14.1117187,4.94859375 C14.0867187,4.97359375 11.3071875,8.25359375 8.0021875,8.25359375 C4.79734375,8.25359375 1.89265625,4.94859375 1.86765625,4.92359375 C1.6925,4.7234375 1.3671875,4.6984375 1.166875,4.87359375 C0.96671875,5.04875 0.94171875,5.3740625 1.116875,5.574375 C1.166875,5.649375 1.7675,6.32515625 2.71859375,7.0759375 L1.421875,8.38359375 C1.22171875,8.58375 1.24671875,8.9090625 1.446875,9.084375 C1.496875,9.18453125 1.62203125,9.23453125 1.7471875,9.23453125 C1.87234375,9.23453125 1.9975,9.18453125 2.0975,9.084375 L3.49421875,7.67671875 C4.14484375,8.1271875 4.920625,8.55265625 5.773125,8.85296875 L5.2271875,10.6314062 C5.1521875,10.9067187 5.3021875,11.1820312 5.5775,11.2570312 L5.72765625,11.2570312 C5.9528125,11.2570312 6.153125,11.106875 6.203125,10.8817187 L6.7490625,9.10328125 C7.14953125,9.17828125 7.57484375,9.2284375 8.0003125,9.2284375 C8.42578125,9.2284375 8.85125,9.1784375 9.2515625,9.10328125 L9.800625,10.8582812 C9.850625,11.0834375 10.0759375,11.2335937 10.2760938,11.2335937 C10.3260938,11.2335937 10.37625,11.2335937 10.40125,11.2085937 C10.6765625,11.1335937 10.8267188,10.8582812 10.7515625,10.5829687 L10.20625,8.82921875 C11.0571875,8.52890625 11.8329687,8.1034375 12.4851562,7.65296875 L13.856875,9.035625 C13.9570312,9.13578125 14.0820312,9.18578125 14.2071875,9.18578125 C14.3323437,9.18578125 14.4575,9.13578125 14.5575,9.035625 C14.7576562,8.83546875 14.7576562,8.53515625 14.5825,8.33484375 L13.2857812,7.0271875 C14.3120312,6.275 14.9126562,5.549375 14.9126562,5.54921875 L14.9126562,5.54921875 Z" id="路径" fill="#C0C4CC"></path>
                            </g>
                        </g>
                    </g>
                </g>
            </g>
        </g>
    </g>
</svg>