<?xml version="1.0" encoding="UTF-8"?>
<svg width="12px" height="12px" viewBox="0 0 12 12" version="1.1" xmlns="http://www.w3.org/2000/svg" xmlns:xlink="http://www.w3.org/1999/xlink">
    <defs>
        <filter id="filter-1">
            <feColorMatrix in="SourceGraphic" type="matrix" values="0 0 0 0 1.000000 0 0 0 0 1.000000 0 0 0 0 1.000000 0 0 0 1.000000 0"></feColorMatrix>
        </filter>
    </defs>
    <g id="Page" stroke="none" stroke-width="1" fill="none" fill-rule="evenodd">
        <g id="2" transform="translate(-1546.000000, -69.000000)">
            <g id="box" transform="translate(1293.000000, 60.000000)">
                <g id="icon/base/closed" transform="translate(253.000000, 9.000000)" filter="url(#filter-1)">
                    <g id="路径-2" transform="translate(0.750000, 0.750000)" fill="#909399">
                        <path d="M6.06310145,5.25043614 L10.337978,0.973547434 C10.5540073,0.755201416 10.5540073,0.403768997 10.337978,0.18542298 L10.3143212,0.161779246 C10.0964507,-0.0539264154 9.74537752,-0.0539264154 9.52750702,0.161779246 L5.25177825,4.44479439 L0.977774464,0.162651519 C0.759903965,-0.0530541422 0.408830783,-0.0530541422 0.190960284,0.162651519 L0.166430738,0.184550707 C0.0600226558,0.288077513 0,0.430194659 0,0.578612934 C0,0.727031208 0.0600226558,0.869148354 0.166430738,0.97267516 L4.44218004,5.24956386 L0.166430738,9.52732484 C-0.0495986087,9.74567086 -0.0495986087,10.0971033 0.166430738,10.3154493 L0.190087529,10.3382208 C0.407958029,10.5539264 0.75903121,10.5539264 0.97690171,10.3382208 L5.25264074,6.06044952 L9.52751729,10.3382208 C9.74538657,10.5539196 10.0964519,10.5539196 10.3143212,10.3382208 L10.337978,10.314577 C10.5540073,10.096231 10.5540073,9.74479858 10.337978,9.52645257 L6.06222869,5.24956386 L6.06310145,5.25043614 Z" id="路径"></path>
                    </g>
                </g>
            </g>
        </g>
    </g>
</svg>