<?xml version="1.0" encoding="UTF-8"?>
<svg width="12px" height="12px" viewBox="0 0 12 12" version="1.1" xmlns="http://www.w3.org/2000/svg" xmlns:xlink="http://www.w3.org/1999/xlink">
    <defs>
        <filter id="filter-1">
            <feColorMatrix in="SourceGraphic" type="matrix" values="0 0 0 0 1.000000 0 0 0 0 1.000000 0 0 0 0 1.000000 0 0 0 1.000000 0"></feColorMatrix>
        </filter>
    </defs>
    <g id="Page" stroke="none" stroke-width="1" fill="none" fill-rule="evenodd">
        <g id="2" transform="translate(-1524.000000, -69.000000)">
            <g id="box" transform="translate(1293.000000, 60.000000)">
                <g id="icon/base/closed备份" transform="translate(231.000000, 9.000000)" filter="url(#filter-1)">
                    <g id="编组" transform="translate(0.750000, 0.750000)" fill="#909399">
                        <path d="M0.936152963,10.340804 L4.15224708,7.10185395 L4.15224708,9.49428925 C4.15224708,9.79997083 4.39798744,10.0477747 4.70112354,10.0477747 C5.00425964,10.0477747 5.25,9.79997083 5.25,9.49428925 L5.25,5.80452313 C5.24992613,5.65735373 5.19186902,5.51624383 5.08860479,5.41224624 C4.98534056,5.30824866 4.84533119,5.24988548 4.69938733,5.25 L1.03563107,5.25 C0.732885626,5.25 0.487461952,5.4974847 0.487461952,5.80277234 C0.487461952,6.10805998 0.732885626,6.35554451 1.03563107,6.35554451 L3.33584506,6.35554451 L0.159083479,9.55476695 C-0.0536095266,9.77158607 -0.0529417853,10.1208503 0.160578689,10.3368408 C0.374099162,10.5528313 0.72045119,10.5546013 0.936131538,10.340804 L0.936152963,10.340804 Z M5.4094796,5.08753926 C5.51261034,5.1918176 5.65275524,5.25029225 5.79881965,5.25 L9.4624099,5.25 C9.65918487,5.25122897 9.84154094,5.14610685 9.94028515,4.9745102 C10.0390294,4.80291355 10.0390294,4.59113921 9.94028515,4.41954256 C9.84154094,4.24794591 9.65918487,4.14282379 9.4624099,4.14406361 L7.16585014,4.14406361 L10.3405844,0.943770376 C10.5537411,0.727262062 10.553049,0.377728775 10.3390366,0.162080169 C10.1250242,-0.0535684364 9.77831487,-0.0540925976 9.56366189,0.160907944 L6.34768946,3.40096013 L6.34768946,1.00773043 C6.34580402,0.703495727 6.10063412,0.457868104 5.7988518,0.457868104 C5.49706948,0.457868104 5.25189959,0.703495727 5.25,1.00773043 L5.25,4.69874423 C5.24896379,4.84471983 5.30646376,4.98493018 5.40945816,5.08753926 L5.4094796,5.08753926 Z" id="形状"></path>
                    </g>
                </g>
            </g>
        </g>
    </g>
</svg>