<svg width="16" height="16" viewBox="0 0 16 16" fill="none" xmlns="http://www.w3.org/2000/svg">
<path fill-rule="evenodd" clip-rule="evenodd" d="M9.5 4C10.3284 4 11 3.32843 11 2.5C11 1.67157 10.3284 1 9.5 1C8.67157 1 8 1.67157 8 2.5C8 3.32843 8.67157 4 9.5 4ZM6.2 13.7508C6.2 13.7508 6.2 15 7.4 15C11 15 11 13.7477 11 13.7477H9.8C9.8 13.7477 8.6 13.7477 8.6 12.4985C8.6 11.8738 8.9 10.6238 9.2 9.37385C9.5 8.12385 9.8 6.87385 9.8 6.24923C9.8 5 8.6 5 8.6 5H5C5 6.24923 6.2 6.24923 6.2 6.24923C7.4 6.24923 7.4 7.49847 7.4 7.49847L6.2 13.7508Z" fill="#C0C4CC"/>
</svg>
