<svg width="14" height="11" viewBox="0 0 14 11" fill="none" xmlns="http://www.w3.org/2000/svg">
<path d="M12.3934 0.940424C12.7737 0.940424 13.082 1.25621 13.082 1.64574V8.69892C13.082 9.08845 12.7737 9.40424 12.3934 9.40424H1.60655C1.22629 9.40424 0.918029 9.08845 0.918029 8.69892V1.64574C0.918029 1.25621 1.22629 0.940424 1.60655 0.940424H12.3934ZM12.3934 0H1.60655C0.719275 0 0 0.736824 0 1.64574V8.69891C0 9.60783 0.71928 10.3447 1.60655 10.3447H12.3934C13.2807 10.3447 14 9.60783 14 8.69891V1.64574C14 0.736819 13.2807 0 12.3934 0ZM5.96722 5.17234C5.96722 5.49695 6.22411 5.7601 6.54099 5.7601C6.85788 5.7601 7.11476 5.49695 7.11476 5.17234C7.11476 4.84772 6.85788 4.58457 6.54099 4.58457C6.22411 4.58457 5.96722 4.84772 5.96722 5.17234ZM2.7541 7.5234C2.7541 7.84801 3.01099 8.11117 3.32787 8.11117C3.64476 8.11117 3.90164 7.84801 3.90164 7.5234C3.90164 7.19879 3.64476 6.93564 3.32787 6.93564C3.01099 6.93564 2.7541 7.19879 2.7541 7.5234ZM8.26231 5.17234C8.26231 5.49695 8.51919 5.7601 8.83608 5.7601C9.15296 5.7601 9.40985 5.49695 9.40985 5.17234C9.40985 4.84772 9.15296 4.58457 8.83608 4.58457C8.51919 4.58457 8.26231 4.84772 8.26231 5.17234ZM1.83608 2.82128C1.83608 3.14589 2.09297 3.40904 2.40985 3.40904C2.72674 3.40904 2.98362 3.14589 2.98362 2.82128C2.98362 2.49666 2.72674 2.23351 2.40985 2.23351C2.09297 2.23351 1.83608 2.49666 1.83608 2.82128ZM4.13117 2.82128C4.13117 3.14589 4.38805 3.40904 4.70494 3.40904C5.02182 3.40904 5.27871 3.14589 5.27871 2.82128C5.27871 2.49666 5.02182 2.23351 4.70494 2.23351C4.38805 2.23351 4.13117 2.49666 4.13117 2.82128ZM6.42625 2.82128C6.42625 3.14589 6.68314 3.40904 7.00002 3.40904C7.31691 3.40904 7.57379 3.14589 7.57379 2.82128C7.57379 2.49666 7.31691 2.23351 7.00002 2.23351C6.68314 2.23351 6.42625 2.49666 6.42625 2.82128ZM8.72134 2.82128C8.72134 3.14589 8.97822 3.40904 9.29511 3.40904C9.61199 3.40904 9.86888 3.14589 9.86888 2.82128C9.86888 2.49666 9.61199 2.23351 9.29511 2.23351C8.97822 2.23351 8.72134 2.49666 8.72134 2.82128ZM11.0164 2.82128C11.0164 3.14589 11.2733 3.40904 11.5902 3.40904C11.9071 3.40904 12.164 3.14589 12.164 2.82128C12.164 2.49666 11.9071 2.23351 11.5902 2.23351C11.2733 2.23351 11.0164 2.49666 11.0164 2.82128ZM4.24592 4.58457H2.63937C2.32249 4.58457 2.0656 4.84772 2.0656 5.17233C2.0656 5.49695 2.32249 5.7601 2.63937 5.7601H4.24592C4.56281 5.7601 4.81969 5.49695 4.81969 5.17233C4.81969 4.84772 4.56281 4.58457 4.24592 4.58457ZM7.91806 6.93563H5.39347C5.07659 6.93563 4.8197 7.19878 4.8197 7.5234C4.8197 7.84801 5.07659 8.11116 5.39347 8.11116H7.91806C8.23494 8.11116 8.49183 7.84801 8.49183 7.5234C8.49183 7.19878 8.23494 6.93563 7.91806 6.93563ZM11.1312 4.81968C10.8143 4.81968 10.5574 5.08283 10.5574 5.40745V6.93564H9.98364C9.66675 6.93564 9.40987 7.19879 9.40987 7.52341C9.40987 7.84802 9.66675 8.11117 9.98364 8.11117H11.2459C11.4994 8.11117 11.7049 7.90065 11.7049 7.64096V5.40745C11.7049 5.08284 11.4481 4.81968 11.1312 4.81968Z" fill="white"/>
</svg>
