<?xml version="1.0" encoding="UTF-8"?>
<svg width="16px" height="16px" viewBox="0 0 16 16" version="1.1" xmlns="http://www.w3.org/2000/svg" xmlns:xlink="http://www.w3.org/1999/xlink">
    <g id="icon/map/dark/tool/图层" stroke="none" stroke-width="1" fill="none" fill-rule="evenodd">
        <g id="icon" transform="translate(0.999965, 1.010163)" fill-rule="nonzero">
            <path d="M0.22805549,8.78517073 C0.371877218,8.69180464 0.554233764,8.69180464 0.698055492,8.78517073 L0.698055492,8.78517073 L7.0000555,12.8228943 L13.3020555,8.78517073 C13.4458772,8.6928453 13.6282338,8.6928453 13.7720555,8.78621138 C13.91567,8.88146521 14.0018729,9.04710845 14.0000837,9.22432519 C14.0013099,9.40137737 13.9147486,9.56658969 13.7710555,9.66139836 L13.7710555,9.66139836 L7.23405549,13.8489756 C7.09058484,13.9409912 6.90952614,13.9409912 6.76605549,13.8489756 L6.76605549,13.8489756 L0.229055492,9.66035773 C0.0870555017,9.56982113 2.73185787e-05,9.40227642 2.73185787e-05,9.22328455 C-0.00176190206,9.04606781 0.0844409462,8.88042456 0.22805549,8.78517073 Z M0.22805549,5.6632195 C0.371877218,5.56985341 0.554233764,5.56985341 0.698055492,5.6632195 L0.698055492,5.6632195 L7.0000555,9.70094309 L13.3020555,5.6632195 C13.4458772,5.57089407 13.6282338,5.57089407 13.7720555,5.66426016 C13.91567,5.75951398 14.0018729,5.92515723 14.0000837,6.10237398 C14.0013099,6.27942616 13.9147486,6.44463848 13.7710555,6.53944715 L13.7710555,6.53944715 L7.23405549,10.7270244 C7.09058484,10.81904 6.90952614,10.81904 6.76605549,10.7270244 L6.76605549,10.7270244 L0.229055492,6.5384065 C0.0870555017,6.44786991 2.73185787e-05,6.28032519 2.73185787e-05,6.10133333 C-0.00176190206,5.92411658 0.0844409462,5.75847333 0.22805549,5.6632195 Z" id="color_w" fill="#FFFFFF"></path>
            <polygon id="color_g" fill="#00FFFF" points="6.84205549 -4.4408921e-16 12.8190555 3.24058536 7.15905549 7.02439023 1.18005549 3.78484552"></polygon>
        </g>
    </g>
</svg>