<svg width="16" height="16" viewBox="0 0 16 16" fill="none" xmlns="http://www.w3.org/2000/svg">
<path d="M1.82329 13.2667L2.71662 13.64V7.62L1.09662 11.5267C0.823289 12.2067 1.14996 12.9867 1.82329 13.2667ZM4.05662 13.3333C4.05662 14.0667 4.65662 14.6667 5.38996 14.6667H6.35662L4.05662 9.10666V13.3333Z" fill="#467CF3"/>
<path fill-rule="evenodd" clip-rule="evenodd" d="M11.4675 2.82001L14.7742 10.8C15.0542 11.4733 14.7275 12.2533 14.0475 12.5333L9.14083 14.5667C8.97417 14.6333 8.80084 14.6667 8.6275 14.6667C8.1075 14.66 7.61417 14.3533 7.4075 13.8467L4.10083 5.86667C4.0275 5.69333 3.99417 5.51334 4.00083 5.33333C4.01417 4.82001 4.32083 4.34 4.82083 4.13333L9.73417 2.10001C9.9075 2.02667 10.0875 2 10.2608 2C10.7742 2.01334 11.2608 2.32001 11.4675 2.82001ZM4.67417 5.33333C4.67417 5.7 4.97417 6 5.34084 6C5.7075 6 6.0075 5.7 6.0075 5.33333C6.0075 4.96666 5.7075 4.66667 5.34084 4.66667C4.97417 4.66667 4.67417 4.96666 4.67417 5.33333ZM10.202 7.83562L13.8665 11.0156L10.5752 12.4853L7.79308 13.7276L8.10829 10.697L10.38 12.3438L10.202 7.83562Z" fill="#1DB28E"/>
</svg>
