<svg width="46" height="46" viewBox="0 0 46 46" fill="none" xmlns="http://www.w3.org/2000/svg">
<path d="M32.6116 12.3884C29.9299 9.70661 26.2926 8.20001 22.5 8.20001C18.7074 8.20001 15.0701 9.70662 12.3884 12.3884C9.7066 15.0702 8.2 18.7074 8.2 22.5C8.2 26.2926 9.7066 29.9299 12.3884 32.6116L22.5 22.5L32.6116 12.3884Z" fill="white"/>
<path fill-rule="evenodd" clip-rule="evenodd" d="M5.11429 22.5C5.11429 12.8981 12.8981 5.11429 22.5 5.11429C32.1019 5.11429 39.8857 12.8981 39.8857 22.5C39.8857 26.134 38.7719 29.5048 36.8671 32.2934L38.5186 33.4215C40.6432 30.311 41.8857 26.5491 41.8857 22.5C41.8857 11.7936 33.2064 3.11429 22.5 3.11429C11.7936 3.11429 3.11429 11.7936 3.11429 22.5C3.11429 33.2064 11.7936 41.8857 22.5 41.8857C25.2098 41.8857 27.7922 41.3291 30.1371 40.3231L29.3486 38.4851C27.2482 39.3862 24.9338 39.8857 22.5 39.8857C12.8981 39.8857 5.11429 32.1019 5.11429 22.5ZM34.7571 39.7714C36.2957 39.7714 37.5429 38.5242 37.5429 36.9857C37.5429 35.4472 36.2957 34.2 34.7571 34.2C33.2186 34.2 31.9714 35.4472 31.9714 36.9857C31.9714 38.5242 33.2186 39.7714 34.7571 39.7714Z" fill="#00FFFF"/>
</svg>
