<?xml version="1.0" encoding="UTF-8"?>
<svg width="16px" height="16px" viewBox="0 0 16 16" version="1.1" xmlns="http://www.w3.org/2000/svg" xmlns:xlink="http://www.w3.org/1999/xlink">
    <g id="icon/map/dark/select/分享地图" stroke="none" stroke-width="1" fill="none" fill-rule="evenodd">
        <g id="icon" transform="translate(1.000000, 1.000000)">
            <path d="M6.40813265,9.80008371 L9.79740006,10.8163691 C9.64134904,11.1061527 9.54081523,11.4302584 9.51003714,11.7744478 L6.04100923,10.7339165 C6.20564228,10.4457982 6.33050918,10.1320282 6.40813265,9.80008371 Z M6.91387176,3.37820184 C7.09984968,3.65914353 7.34106016,3.90032867 7.62202307,4.08627711 L5.32441356,6.38325289 C5.07005041,6.15714239 4.78249488,5.96755801 4.4699736,5.82272641 Z" id="color_w" fill="#FFFFFF" fill-rule="nonzero"></path>
            <path d="M12,10 C13.1045695,10 14,10.8954305 14,12 C14,13.1045695 13.1045695,14 12,14 C10.8954305,14 10,13.1045695 10,12 C10,10.8954305 10.8954305,10 12,10 Z M3,6 C4.65685425,6 6,7.34314575 6,9 C6,10.6568542 4.65685425,12 3,12 C1.34314575,12 0,10.6568542 0,9 C0,7.34314575 1.34314575,6 3,6 Z M9,0 C10.1045695,0 11,0.8954305 11,2 C11,3.1045695 10.1045695,4 9,4 C7.8954305,4 7,3.1045695 7,2 C7,0.8954305 7.8954305,0 9,0 Z" id="color_g" fill="#00FFFF"></path>
        </g>
    </g>
</svg>