<?xml version="1.0" encoding="UTF-8"?>
<svg width="16px" height="16px" viewBox="0 0 16 16" version="1.1" xmlns="http://www.w3.org/2000/svg" xmlns:xlink="http://www.w3.org/1999/xlink">
    <g id="icon/map/dark/select/图上量算" stroke="none" stroke-width="1" fill="none" fill-rule="evenodd">
        <g id="icon" transform="translate(1.000000, 3.000000)">
            <path d="M3,0 L3,1 L6,1 L6,3 L3,3 L3,4 L-9.9579925e-17,2 L3,0 Z M11,0 L14,2 L11,4 L11,3 L8,3 L8,1 L10.999,1 L11,0 Z" id="color_g" fill="#00FFFF"></path>
            <path d="M14,5 L14,10 L0,10 L0,5 L14,5 Z M2.5,6 L1.5,6 L1.5,8 L2.5,8 L2.5,6 Z M4.5,6 L3.5,6 L3.5,8 L4.5,8 L4.5,6 Z M6.5,6 L5.5,6 L5.5,8 L6.5,8 L6.5,6 Z M8.5,6 L7.5,6 L7.5,8 L8.5,8 L8.5,6 Z M10.5,6 L9.5,6 L9.5,8 L10.5,8 L10.5,6 Z M12.5,6 L11.5,6 L11.5,8 L12.5,8 L12.5,6 Z" id="color_w" fill="#FFFFFF"></path>
        </g>
    </g>
</svg>