<?xml version="1.0" encoding="UTF-8"?>
<svg width="34px" height="34px" viewBox="0 0 34 34" version="1.1" xmlns="http://www.w3.org/2000/svg" xmlns:xlink="http://www.w3.org/1999/xlink">
    <g id="icon/map/dark/高度测量" stroke="none" stroke-width="1" fill="none" fill-rule="evenodd">
        <g id="编组-2" transform="translate(5.000000, 0.000000)">
            <g id="icon" transform="translate(0.000000, 0.000000)">
                <path d="M24,0 L24,1 L19.547619,1 L19.547619,2.5 L22,2.5 L22,3.5 L19.547619,3.5 L19.547619,4.5 L22,4.5 L22,5.5 L19.547619,5.5 L19.547619,6.5 L22,6.5 L22,7.5 L19.547619,7.5 L19.547619,8.5 L22,8.5 L22,9.5 L19.547619,9.5 L19.547619,10.5 L22,10.5 L22,11.5 L19.547619,11.5 L19.547619,12.5 L24,12.5 L24,13.5 L19.547619,13.5 L19.547619,14.5 L22,14.5 L22,15.5 L19.547619,15.5 L19.547619,16.5 L22,16.5 L22,17.5 L19.547619,17.5 L19.547619,18.5 L22,18.5 L22,19.5 L19.547619,19.5 L19.547619,20.5 L22,20.5 L22,21.5 L19.547619,21.5 L19.547619,22.5 L24,22.5 L24,23.5 L19.547619,23.5 L19.547619,24.5 L22,24.5 L22,25.5 L19.547619,25.5 L19.547619,26.5 L22,26.5 L22,27.5 L19.547619,27.5 L19.547619,28.5 L22,28.5 L22,29.5 L19.547619,29.5 L19.547619,30.5 L22,30.5 L22,31.5 L19.547619,31.5 L19.547619,33 L24,33 L24,34 L18.547619,34 L18.547619,0 L24,0 Z M16.0714286,33 L16.0714286,34 L-7.10542736e-14,34 L-7.10542736e-14,33 L16.0714286,33 Z M5,10 L5,16 L11,16 L11,10 L15,10 L15,24 L11.069776,24 L11,19 L5,19 L4.93022396,24 L1,24 L1,10 L5,10 Z M16.0714286,0 L16.0714286,1 L-7.10542736e-14,1 L-7.10542736e-14,0 L16.0714286,0 Z" id="color_w" fill="#FFFFFF"></path>
                <path d="M7,24 L9,24 L9,28 L11,28 L8,32 L5,28 L7,28 L7,24 Z M8,2 L11,6 L9,6 L9,10 L7,10 L7,6 L5,6 L8,2 Z" id="color_g" fill="#00FFFF"></path>
            </g>
        </g>
    </g>
</svg>