<?xml version="1.0" encoding="UTF-8"?>
<svg width="34px" height="34px" viewBox="0 0 34 34" version="1.1" xmlns="http://www.w3.org/2000/svg" xmlns:xlink="http://www.w3.org/1999/xlink">
    <g id="icon/map/dark/面积测量" stroke="none" stroke-width="1" fill="none" fill-rule="evenodd">
        <g id="icon">
            <path d="M27.9996207,30.9996207 L27.9996207,31.9996207 L6.03362069,31.9996207 L6.03362069,30.9996207 L27.9996207,30.9996207 Z M31.9996207,5.99962069 L31.9996207,27.9996207 L30.9996207,27.9996207 L30.9996207,5.99962069 L31.9996207,5.99962069 Z M2.99962069,6.03362069 L2.99962069,27.9996207 L1.99962069,27.9996207 L1.99962069,6.03362069 L2.99962069,6.03362069 Z M27.9996207,1.99962069 L27.9996207,2.99962069 L6.03362069,2.99962069 L6.03362069,1.99962069 L27.9996207,1.99962069 Z" id="color_w" fill="#FFFFFF" fill-rule="nonzero"></path>
            <path d="M31.5,29 C32.8807119,29 34,30.1192881 34,31.5 C34,32.8807119 32.8807119,34 31.5,34 C30.1192881,34 29,32.8807119 29,31.5 C29,30.1192881 30.1192881,29 31.5,29 Z M2.5,29 C3.88071187,29 5,30.1192881 5,31.5 C5,32.8807119 3.88071187,34 2.5,34 C1.11928813,34 1.69088438e-16,32.8807119 0,31.5 C-1.69088438e-16,30.1192881 1.11928813,29 2.5,29 Z M29.8964483,7.33038568 L29.8964483,9.08238568 L9.08244828,29.8963857 L7.33044828,29.8963857 L29.8964483,7.33038568 Z M29.8964483,12.0203857 L29.8964483,13.7723857 L13.7714483,29.8963857 L12.0194483,29.8963857 L29.8964483,12.0203857 Z M29.8964483,16.1233857 L29.8964483,17.8753857 L17.8754483,29.8963857 L16.1234483,29.8963857 L29.8964483,16.1233857 Z M29.8964483,20.8123857 L29.8964483,22.5653857 L22.5654483,29.8963857 L20.8124483,29.8963857 L29.8964483,20.8123857 Z M29.8964483,24.9163857 L29.8964483,26.6683857 L26.6684483,29.8963857 L24.9164483,29.8963857 L29.8964483,24.9163857 Z M28.4632099,4.66116624 C28.689378,5.01212116 28.9887947,5.31141742 29.3398492,5.53744415 L5.55460546,29.3233251 C5.32533711,28.9744842 5.02360459,28.6775174 4.6708186,28.4538353 L28.4632099,4.66116624 Z M26.6694483,4.10338568 L4.10344828,26.6693857 L4.10344828,24.9173857 L24.9164483,4.10338568 L26.6694483,4.10338568 Z M21.9794483,4.10338568 L4.10344828,21.9793857 L4.10344828,20.2273857 L20.2274483,4.10338568 L21.9794483,4.10338568 Z M17.8754483,4.10338568 L4.10344828,17.8763857 L4.10344828,16.1233857 L16.1234483,4.10338568 L17.8754483,4.10338568 Z M13.1864483,4.10338568 L4.10344828,13.1863857 L4.10344828,11.4343857 L11.4344483,4.10338568 L13.1864483,4.10338568 Z M9.08244828,4.10338568 L4.10344828,9.08238568 L4.10344828,7.33038568 L7.33044828,4.10338568 L9.08244828,4.10338568 Z M2.5,0 C3.88071187,-2.53632657e-16 5,1.11928813 5,2.5 C5,3.88071187 3.88071187,5 2.5,5 C1.11928813,5 1.69088438e-16,3.88071187 0,2.5 C-1.69088438e-16,1.11928813 1.11928813,2.53632657e-16 2.5,0 Z M31.5,0 C32.8807119,-2.53632657e-16 34,1.11928813 34,2.5 C34,3.88071187 32.8807119,5 31.5,5 C30.1192881,5 29,3.88071187 29,2.5 C29,1.11928813 30.1192881,2.53632657e-16 31.5,0 Z" id="color_g" fill="#00FFFF"></path>
        </g>
    </g>
</svg>