<?xml version="1.0" encoding="UTF-8"?>
<svg width="34px" height="34px" viewBox="0 0 34 34" version="1.1" xmlns="http://www.w3.org/2000/svg" xmlns:xlink="http://www.w3.org/1999/xlink">
    <title>icon/map/dark/坐标捕捉</title>
    <g id="icon/map/dark/坐标捕捉" stroke="none" stroke-width="1" fill="none" fill-rule="evenodd">
        <g id="icon">
            <path d="M7.10542736e-15,27.9655172 L1,28 L1,33 L6,33 L6.03448276,34 L7.10542736e-15,34 L7.10542736e-15,27.9655172 Z M34,27.9655172 L34,34 L27.9655172,34 L28,33 L33,33 L33,28 L34,27.9655172 Z M17,13 C19.209139,13 21,14.790861 21,17 C21,19.209139 19.209139,21 17,21 C14.790861,21 13,19.209139 13,17 C13,14.790861 14.790861,13 17,13 Z M6.03448276,7.10542736e-15 L6,1 L1,1 L1,6 L7.10542736e-15,6.03448276 L7.10542736e-15,7.10542736e-15 L6.03448276,7.10542736e-15 Z M34,7.10542736e-15 L34,6.03448276 L33,6 L33,1 L28,1 L27.9655172,7.10542736e-15 L34,7.10542736e-15 Z" id="color_g" fill="#00FFFF" fill-rule="nonzero"></path>
            <path d="M18.0004669,28.9588877 L18,34 L16,34 L16.0005348,28.9589703 C16.330094,28.9861437 16.6634288,29 17,29 C17.3369122,29 17.6705815,28.9861156 18.0004669,28.9588877 Z M17,8 C21.9705627,8 26,12.0294373 26,17 C26,21.9705627 21.9705627,26 17,26 C12.0294373,26 8,21.9705627 8,17 C8,12.0294373 12.0294373,8 17,8 Z M17,9 C12.581722,9 9,12.581722 9,17 C9,21.418278 12.581722,25 17,25 C21.418278,25 25,21.418278 25,17 C25,12.581722 21.418278,9 17,9 Z M34,16 L34,18 L28.9588877,18.0004669 C28.9861156,17.6705815 29,17.3369122 29,17 C29,16.6634288 28.9861437,16.330094 28.9589703,16.0005348 L34,16 Z M5.04102967,16.0005348 C5.01385633,16.330094 5,16.6634288 5,17 C5,17.3369122 5.01388443,17.6705815 5.0411123,18.0004669 L0,18 L0,16 L5.04102967,16.0005348 Z M18,-6.123234e-17 L18.0004669,5.0411123 C17.6705815,5.01388443 17.3369122,5 17,5 C16.6634288,5 16.330094,5.01385633 16.0005348,5.04102967 L16,6.123234e-17 L18,-6.123234e-17 Z" id="color_w" fill="#FFFFFF"></path>
        </g>
    </g>
</svg>