<?xml version="1.0" encoding="UTF-8"?>
<svg width="34px" height="34px" viewBox="0 0 34 34" version="1.1" xmlns="http://www.w3.org/2000/svg" xmlns:xlink="http://www.w3.org/1999/xlink">
    <g id="icon/map/dark/方位测量" stroke="none" stroke-width="1" fill="none" fill-rule="evenodd">
        <g id="编组">
            <path d="M30,29 L34,31.5 L30,34 L30,29 Z M19.6708239,15.7596695 C19.9513699,16.0647676 20.2241164,16.3771507 20.488747,16.6965026 L5.183,31.9997895 L3.529,31.9997895 L3.48,31.9513618 L19.6708239,15.7596695 Z M21.4689704,17.9627645 C21.7150013,18.3034006 21.9523122,18.650751 22.180576,19.0044883 L9.183,31.9997895 L7.529,31.9997895 L7.48,31.9513618 L21.4689704,17.9627645 Z M23.0214866,20.4107848 C23.2306263,20.7893319 23.429838,21.1741296 23.6187708,21.5648267 L13.183,31.9997895 L11.529,31.9997895 L11.48,31.9513618 L23.0214866,20.4107848 Z M24.3060147,23.1259485 C24.4740341,23.5479183 24.6304264,23.975779 24.774796,24.4091349 L17.183,31.9997895 L15.529,31.9997895 L15.48,31.9513618 L24.3060147,23.1259485 Z M25.2820445,26.1502439 C25.4007743,26.6242977 25.5054053,27.1039417 25.5954658,27.5887044 L21.183,31.9997895 L19.529,31.9997895 L19.48,31.9513618 L25.2820445,26.1502439 Z M25.8769784,29.554896 C25.9318372,30.0970521 25.9686514,30.6445384 25.9868111,31.1967451 L25.183,31.9997895 L23.529,31.9997895 L23.48,31.9513618 L25.8769784,29.554896 Z M17.6380608,13.7936474 C17.9519327,14.0634906 18.2587487,14.3413111 18.5581941,14.6267943 L2,31.1837895 L2,29.4317895 L17.6380608,13.7936474 Z M15.367176,12.0641592 C15.7155394,12.2982021 16.0574314,12.5411345 16.3925271,12.7926314 L2,27.1837895 L2,25.4317895 L15.367176,12.0641592 Z M12.846902,10.5852383 C13.2318764,10.7806205 13.6108745,10.9860784 13.9835491,11.201265 L2,23.1837895 L2,21.4317895 L12.846902,10.5852383 Z M10.0484708,9.38283653 C10.4753445,9.53475245 10.8966497,9.69841067 11.3119978,9.8734225 L2,19.1837895 L2,17.4307895 L10.0484708,9.38283653 Z M6.92526892,8.50586482 C7.40191167,8.60528034 7.87336533,8.71883505 8.33917133,8.84607035 L2,15.1837895 L2,13.4307895 L6.92526892,8.50586482 Z M3.39365357,8.03978951 C3.93441918,8.07075173 4.47038916,8.1196176 5.00097988,8.18580347 L2,11.1867895 L2,9.43378951 L3.39365357,8.03978951 Z M2.5,-5.68434189e-14 L5,4 L0,4 L2.5,-5.68434189e-14 Z" id="color_g" fill="#00FFFF" fill-rule="nonzero"></path>
            <path d="M2.5004202,6.50416731 C9.64524205,6.62320454 15.8378557,9.29479061 20.2717713,13.7288781 C24.7057278,18.1630064 27.377111,24.3558253 27.4958534,31.5008232 L27.4958534,31.5008232 L2.5,31.5 Z" id="color_w" stroke="#FFFFFF"></path>
        </g>
    </g>
</svg>