<svg width="16" height="16" viewBox="0 0 16 16" fill="none" xmlns="http://www.w3.org/2000/svg">
<path fill-rule="evenodd" clip-rule="evenodd" d="M2.2482 14.7877L6.53633 10.4691V13.6591C6.53633 14.0666 6.86398 14.397 7.26816 14.397C7.67235 14.397 8 14.0666 8 13.6591V8.73936C7.9999 8.54314 7.92249 8.35499 7.78481 8.21633C7.64712 8.07766 7.46044 7.99985 7.26585 8H2.38084C1.97718 8 1.64995 8.32998 1.64995 8.73703C1.64995 9.14408 1.97718 9.47406 2.38084 9.47406H5.44779L1.21211 13.7397C0.928521 14.0288 0.929411 14.4945 1.2141 14.7825C1.4988 15.0704 1.9606 15.0728 2.24818 14.7877H2.2482ZM8.21264 7.78339C8.35015 7.92242 8.53701 8.00039 8.73176 8H13.6165C13.8789 8.00164 14.1221 7.86148 14.2537 7.63268C14.3854 7.40388 14.3854 7.12152 14.2537 6.89272C14.1221 6.66393 13.8789 6.52377 13.6165 6.52542H10.5545L14.7874 2.25836C15.0717 1.96968 15.0707 1.50364 14.7854 1.21611C14.5 0.928575 14.0378 0.927877 13.7515 1.21454L9.46359 5.53461V2.34364C9.46107 1.93799 9.13418 1.61049 8.7318 1.61049C8.32943 1.61049 8.00253 1.93799 8 2.34364V7.26499C7.99862 7.45963 8.07528 7.64657 8.21261 7.78339H8.21264Z" fill="#909399"/>
</svg>
