<svg width="46" height="46" viewBox="0 0 46 46" fill="none" xmlns="http://www.w3.org/2000/svg">
<path fill-rule="evenodd" clip-rule="evenodd" d="M23.3189 24.8511C23.1913 24.8505 23.0661 24.8171 22.9551 24.7542L13.9387 19.6737C13.825 19.6097 13.7304 19.5165 13.6648 19.4038C13.5992 19.291 13.5649 19.1628 13.5654 19.0323L13.5418 8.55826C13.5418 8.29012 13.6847 8.04561 13.9163 7.91213L22.9823 2.79028C23.0925 2.72663 23.2176 2.69312 23.3449 2.69312C23.4722 2.69312 23.5973 2.72663 23.7075 2.79028L32.783 7.91213C33.0133 8.04206 33.1574 8.29012 33.1574 8.55354V19.0276C33.1575 19.1591 33.1225 19.2883 33.0561 19.4019C32.9896 19.5155 32.8941 19.6093 32.7794 19.6737L23.6792 24.753C23.5699 24.8171 23.4456 24.8509 23.3189 24.8511ZM15.042 18.5988L23.3236 23.2635L31.6891 18.5941V8.98705L23.3473 4.28101L15.0195 8.98705L15.042 18.5988ZM12.448 43.3315C12.3203 43.3306 12.1951 43.2968 12.0842 43.2335L3.06782 38.1577C2.95411 38.0937 2.85956 38.0006 2.79393 37.8878C2.72831 37.775 2.694 37.6468 2.69455 37.5163L2.67093 27.0423C2.67093 26.7753 2.81386 26.5308 3.0442 26.3961L12.1114 21.2743C12.2215 21.2109 12.3463 21.1775 12.4734 21.1775C12.6005 21.1775 12.7254 21.2109 12.8355 21.2743L21.9121 26.3961C22.1424 26.5261 22.2854 26.7741 22.2854 27.0376V37.5116C22.2854 37.6432 22.2504 37.7724 22.184 37.8859C22.1176 37.9995 22.0221 38.0933 21.9074 38.1577L12.8083 43.2382C12.6986 43.3004 12.5742 43.3323 12.448 43.3304V43.3315ZM4.1711 37.0828L12.4528 41.7487L20.8183 37.0781V27.4711L12.4811 22.765L4.14747 27.4711L4.1711 37.0828ZM33.7989 43.2335C33.9097 43.2968 34.035 43.3306 34.1627 43.3315V43.3304C34.2887 43.3311 34.4128 43.2994 34.523 43.2382L43.622 38.1577C43.7367 38.0933 43.8322 37.9995 43.8987 37.8859C43.9651 37.7724 44.0001 37.6432 44 37.5116V27.0376C44 26.7741 43.8571 26.5261 43.6267 26.3961L34.5501 21.2743C34.44 21.2109 34.3152 21.1775 34.1881 21.1775C34.061 21.1775 33.9361 21.2109 33.826 21.2743L24.7589 26.3961C24.5285 26.5308 24.3844 26.7753 24.3844 27.0423L24.408 37.5163C24.4076 37.6469 24.4421 37.7752 24.5079 37.888C24.5738 38.0008 24.6685 38.0939 24.7825 38.1577L33.7989 43.2335ZM34.1627 41.7487L25.8798 37.0828L25.8621 27.4711L34.191 22.765L42.5282 27.4711V37.0781L34.1627 41.7487Z" fill="white"/>
<path fill-rule="evenodd" clip-rule="evenodd" d="M23.3745 21.5932L30.4111 17.7129V9.94623L23.3792 13.8183L23.3745 21.5932ZM12.5035 40.0725L19.5402 36.198V28.4267L12.5083 32.3023L12.5035 40.0725ZM41.2501 36.198L34.2135 40.0725L34.2182 32.3023L41.2501 28.4267V36.198Z" fill="#00FFFF"/>
</svg>
