<?xml version="1.0" encoding="UTF-8"?>
<svg width="16px" height="16px" viewBox="0 0 16 16" version="1.1" xmlns="http://www.w3.org/2000/svg" xmlns:xlink="http://www.w3.org/1999/xlink">
    <g id="icon/map/dark/tool/地区导航" stroke="none" stroke-width="1" fill="none" fill-rule="evenodd">
        <g id="icon" transform="translate(1.000000, 1.000000)" fill-rule="nonzero">
            <path d="M8.04608458,14 C7.87833252,14 7.71259937,13.9703491 7.55732777,13.9104983 C7.16033903,13.7721276 6.84098611,13.4172324 6.67947428,12.9342161 L6.67360111,12.9155471 L5.39527171,8.5810299 L1.06840655,7.31189968 C0.709960416,7.23154949 0.394645284,6.98738744 0.200096939,6.63816614 C0.0207821057,6.31639935 -0.0419872611,5.93221931 0.0279400244,5.5840962 L0.0347308507,5.5506017 L0.0455594948,5.51820538 C0.202115848,5.05001457 0.535050451,4.78187557 0.807785192,4.60067584 L0.855137529,4.56919467 L11.9948652,0.107105576 C12.3725827,-0.0435281375 12.7943488,-0.0349257228 13.1522443,0.130716453 C13.4967417,0.290135607 13.7582807,0.581153358 13.8918951,0.95288735 C14.0315661,1.26165901 14.036338,1.66194569 13.9036414,2.05912084 L13.8981353,2.07559356 L13.8917115,2.09170019 L9.43912409,13.0564802 C9.3001872,13.4018579 9.02194637,13.6937908 8.67561362,13.8574196 C8.47482506,13.9520461 8.25898652,14 8.04608458,14 Z M7.72691517,12.5950615 C7.78124188,12.7524673 7.86695328,12.8560623 7.92109644,12.8739993 L7.93651348,12.8791241 L7.95156345,12.8851641 C8.02369316,12.9138998 8.11582832,12.9065786 8.20429275,12.8648478 C8.30138338,12.8189072 8.38103808,12.7376419 8.41719471,12.6474081 L8.41811239,12.6452117 L12.8637254,1.6974535 C12.9164003,1.53071314 12.896762,1.42473876 12.8883193,1.40497152 L12.8708833,1.37001278 L12.859137,1.3341389 C12.8253664,1.23328936 12.7681031,1.16373794 12.688999,1.12713194 C12.6049394,1.08832957 12.5012415,1.08814655 12.4045179,1.12658285 L1.37381074,5.5445617 C1.20569162,5.66206698 1.13888445,5.7457117 1.10291135,5.83118673 C1.09391808,5.91867508 1.11575889,6.02043978 1.16274415,6.1046336 C1.20440685,6.17949289 1.26020186,6.23037523 1.31195905,6.2406249 L1.33581875,6.24538369 L1.35931137,6.25233883 L6.28211846,7.69626274 L7.72691517,12.5950615 L7.72691517,12.5950615 Z" id="color_w" fill="#FFFFFF"></path>
            <path d="M7.51433714,7 C7.38266683,7 7.25099652,6.94976309 7.15070078,6.84928999 C6.94976641,6.64834379 6.94976641,6.32274921 7.15070078,6.12180301 L10.121855,3.15064536 C10.322618,2.94987061 10.6483648,2.94969916 10.8492992,3.15064536 C11.0502336,3.35159156 11.0502336,3.67718614 10.8492992,3.87813234 L7.87814496,6.84946144 C7.78169707,6.94599472 7.65079133,7.00016154 7.51433714,7 L7.51433714,7 Z" id="color_g" fill="#00FFFF"></path>
        </g>
    </g>
</svg>