<svg width="16" height="16" viewBox="0 0 16 16" fill="none" xmlns="http://www.w3.org/2000/svg">
<path d="M13.3978 3.40195H12.5982C12.3527 3.40195 12.1539 3.2031 12.1539 2.95769C12.1539 2.71228 12.3527 2.51343 12.5982 2.51343H13.3978C13.6432 2.51343 13.8421 2.71228 13.8421 2.95769C13.8421 3.2031 13.6432 3.40195 13.3978 3.40195ZM11.9499 15H10.3349C10.0895 15 9.89066 14.8011 9.89066 14.5557C9.89066 14.3103 10.0895 14.1114 10.3349 14.1114H11.9499C12.1953 14.1114 12.3941 14.3103 12.3941 14.5557C12.3941 14.8011 12.1951 15 11.9499 15ZM8.71976 15H7.10479C6.85938 15 6.66053 14.8011 6.66053 14.5557C6.66053 14.3103 6.85938 14.1114 7.10479 14.1114H8.71976C8.96517 14.1114 9.16402 14.3103 9.16402 14.5557C9.16402 14.8011 8.96517 15 8.71976 15ZM5.48982 15H4.06908C3.9772 15 3.88498 14.9916 3.79506 14.9749C3.55374 14.9303 3.39434 14.6986 3.43894 14.4573C3.48354 14.2159 3.71527 14.0567 3.95659 14.1011C3.99337 14.1079 4.03105 14.1114 4.0689 14.1114H5.48964C5.73505 14.1114 5.9339 14.3103 5.9339 14.5557C5.9339 14.8011 5.73523 15 5.48982 15V15ZM13.5645 14.9996C13.325 14.9996 13.1275 14.8089 13.1206 14.5678C13.1137 14.3226 13.3068 14.118 13.5522 14.1113C13.8821 14.102 14.1474 13.8364 14.1563 13.5067C14.163 13.2615 14.3667 13.0678 14.6124 13.0747C14.8577 13.0815 15.0512 13.2857 15.0444 13.5309C15.0226 14.3318 14.3782 14.977 13.5773 14.9996C13.573 14.9994 13.5688 14.9996 13.5645 14.9996V14.9996ZM14.6009 12.3479C14.3555 12.3479 14.1566 12.1491 14.1566 11.9037V10.2887C14.1566 10.0433 14.3555 9.84442 14.6009 9.84442C14.8463 9.84442 15.0451 10.0433 15.0451 10.2887V11.9037C15.0451 12.1491 14.8461 12.3479 14.6009 12.3479ZM14.6009 9.11797C14.3555 9.11797 14.1566 8.91912 14.1566 8.67371V7.05874C14.1566 6.81333 14.3555 6.61448 14.6009 6.61448C14.8463 6.61448 15.0451 6.81333 15.0451 7.05874V8.67371C15.0451 8.91912 14.8461 9.11797 14.6009 9.11797ZM14.6009 5.88802C14.3555 5.88802 14.1566 5.68917 14.1566 5.44376V4.02409C14.1566 3.98606 14.1531 3.94803 14.1463 3.91107C14.1015 3.66992 14.2607 3.43802 14.5019 3.39306C14.743 3.34828 14.9749 3.5075 15.0199 3.74865C15.0368 3.8391 15.0451 3.93168 15.0451 4.02409V5.44376C15.0451 5.689 14.8461 5.88802 14.6009 5.88802V5.88802ZM3.00285 13.7971C2.75744 13.7971 2.55859 13.5982 2.55859 13.3528V12.5532C2.55859 12.3078 2.75744 12.1089 3.00285 12.1089C3.24826 12.1089 3.44711 12.3078 3.44711 12.5532V13.3528C3.44711 13.5981 3.24826 13.7971 3.00285 13.7971Z" fill="#909399"/>
<path d="M11.5318 0.955078H2.06622C1.4798 0.955078 1 1.43488 1 2.0213V11.4869C1 12.0733 1.4798 12.5531 2.06622 12.5531H11.5318C12.1182 12.5531 12.598 12.0733 12.598 11.4869V2.0213C12.598 1.43488 12.1182 0.955078 11.5318 0.955078ZM7.08369 9.61974H3.56569C3.32028 9.61974 3.12143 9.42089 3.12143 9.17548C3.12143 8.93007 3.32028 8.73122 3.56569 8.73122H7.08369C7.3291 8.73122 7.52795 8.93007 7.52795 9.17548C7.52795 9.42089 7.32892 9.61974 7.08369 9.61974V9.61974ZM10.0325 7.19834H3.56569C3.32028 7.19834 3.12143 6.99949 3.12143 6.75408C3.12143 6.50868 3.32028 6.30983 3.56569 6.30983H10.0325C10.2779 6.30983 10.4768 6.50868 10.4768 6.75408C10.4768 6.99949 10.2779 7.19834 10.0325 7.19834ZM10.0325 4.77678H3.56569C3.32028 4.77678 3.12143 4.57792 3.12143 4.33252C3.12143 4.08711 3.32028 3.88826 3.56569 3.88826H10.0325C10.2779 3.88826 10.4768 4.08711 10.4768 4.33252C10.4768 4.57792 10.2779 4.77678 10.0325 4.77678Z" fill="#909399"/>
</svg>
