<svg width="16" height="16" viewBox="0 0 16 16" fill="none" xmlns="http://www.w3.org/2000/svg">
<path fill-rule="evenodd" clip-rule="evenodd" d="M15 8C15 11.866 11.866 15 8 15C4.13401 15 1 11.866 1 8C1 4.13403 4.13401 1 8 1C11.866 1 15 4.13403 15 8ZM6 5.79999C6 5.35815 6.35817 5 6.8 5C7.24183 5 7.6 5.35815 7.6 5.79999V10.2C7.6 10.6418 7.24183 11 6.8 11C6.35817 11 6 10.6418 6 10.2V5.79999ZM9.2 5C8.75817 5 8.4 5.35815 8.4 5.79999V10.2C8.4 10.6418 8.75817 11 9.2 11C9.64183 11 10 10.6418 10 10.2V5.79999C10 5.35815 9.64183 5 9.2 5Z" fill="white"/>
</svg>
