<svg width="16" height="16" viewBox="0 0 16 16" fill="none" xmlns="http://www.w3.org/2000/svg">
<path fill-rule="evenodd" clip-rule="evenodd" d="M11.4643 2.41568C10.2628 2.41568 9.28436 3.39464 9.28436 4.59686H9.28436H9.28426V6.86803L9.94873 6.86798V6.86966H10.9503C11.4332 6.86966 11.8237 7.26095 11.8239 7.74385V14.125C11.8239 14.6088 11.434 15 10.9512 15H1.87363C1.3911 15 1 14.6088 1 14.125V7.74395C1 7.26104 1.39119 6.86976 1.87363 6.86976H2.87442V6.86808H4.2332V6.86976H8.59174V6.86808L7.92549 6.86808V4.53911C7.92549 2.58734 9.51303 1 11.4638 1C13.4145 1 14.9999 2.58734 14.9999 4.53911V6.86808H13.6427V4.59686C13.6427 3.39464 12.6662 2.41568 11.4643 2.41568ZM6.90307 12.4942V11.1006C7.25592 10.9201 7.50045 10.5582 7.49961 10.1342C7.49961 9.53385 7.0126 9.04562 6.41177 9.04562C5.81187 9.04562 5.32477 9.53385 5.32477 10.1342C5.32477 10.5581 5.56921 10.92 5.92206 11.1006V12.4942C5.92262 12.5576 5.97408 12.6088 6.03746 12.6089H6.78841C6.85157 12.6089 6.90307 12.5564 6.90307 12.4942Z" fill="white"/>
</svg>
