<?xml version="1.0" encoding="UTF-8"?>
<svg width="16px" height="16px" viewBox="0 0 16 16" version="1.1" xmlns="http://www.w3.org/2000/svg" xmlns:xlink="http://www.w3.org/1999/xlink">
    <g id="icon/map/dark/sideToolBar/toolbar/定位" stroke="none" stroke-width="1" fill="none" fill-rule="evenodd">
        <g id="icon" transform="translate(1.000000, 1.000000)">
            <path d="M7.5,11 L7.5,14 L6.5,14 L6.5,11 L7.5,11 Z M2.22904576,8.50046036 C2.71760837,10.0554576 3.94540874,11.2830276 5.50054746,11.7712708 L5.50025754,12.8110401 C3.39197035,12.2685048 1.73210332,10.6088843 1.18921631,8.50073831 L2.22904576,8.50046036 Z M12.8107837,8.50073831 C12.2679822,10.6085523 10.6085523,12.2679822 8.50073831,12.8107837 L8.50046036,11.7709542 C10.0551217,11.2824972 11.2824972,10.0551217 11.7709542,8.50046036 L12.8107837,8.50073831 Z M3,6.5 L3,7.5 L0,7.5 L0,6.5 L3,6.5 Z M14,6.5 L14,7.5 L11,7.5 L11,6.5 L14,6.5 Z M8.50073831,1.18921631 C10.6088843,1.73210332 12.2685048,3.39197035 12.8110401,5.50025754 L11.7712708,5.50054746 C11.2830276,3.94540874 10.0554576,2.71760837 8.50046036,2.22904576 L8.50073831,1.18921631 Z M5.50025754,1.18895995 L5.50054746,2.22872923 C3.94507278,2.7170779 2.7170779,3.94507278 2.22872923,5.50054746 L1.18895995,5.50025754 C1.73158062,3.39163839 3.39163839,1.73158062 5.50025754,1.18895995 Z M7.5,0 L7.5,3 L6.5,3 L6.5,0 L7.5,0 Z" id="color_w" fill="#FFFFFF" fill-rule="nonzero"></path>
            <circle id="color_g" fill="#00FFFF" cx="7" cy="7" r="2"></circle>
        </g>
    </g>
</svg>