<svg width="46" height="46" viewBox="0 0 46 46" fill="none" xmlns="http://www.w3.org/2000/svg">
<path fill-rule="evenodd" clip-rule="evenodd" d="M2 17.8259C2 10.2035 8.28004 4 15.9965 4C23.72 4 30 10.2035 30 17.8327C30 21.4817 27.079 26.8742 21.3052 33.8547L16.9612 38.7677C16.7286 39.0379 16.3866 39.2 16.0309 39.2H16.0035C15.6546 39.2 15.3194 39.0581 15.0799 38.8081C14.5463 38.254 2 25.1848 2 17.8259ZM6.00003 17.1999C6.00003 22.7269 10.4731 27.2 15.9999 27.2C21.5269 27.2 26 22.7269 26 17.1999C26 11.6731 21.5269 7.20001 15.9999 7.20001C10.4731 7.20001 6.00003 11.6731 6.00003 17.1999Z" fill="white"/>
<path d="M4 41.5H43M25 36.5H43M30 31.5H43" stroke="#00FFFF"/>
</svg>
