<svg width="46" height="46" viewBox="0 0 46 46" fill="none" xmlns="http://www.w3.org/2000/svg">
<g clip-path="url(#clip0)">
<path d="M29.2502 7H9.74975L0 23.9995L9.74975 41H29.2502L39 23.9995L29.2502 7Z" fill="#8FD3F4"/>
<path d="M34.9933 4.75861H14.7793L4.67289 22.0135L14.7793 39.2693H34.9933L45.0997 22.0135L34.9933 4.75861Z" stroke="white" stroke-miterlimit="10"/>
<mask id="mask0" mask-type="alpha" maskUnits="userSpaceOnUse" x="5" y="5" width="39" height="34">
<path d="M33.7607 5.74463H15.0259L5.65891 22.1116L15.0259 38.4795H33.7607L43.1277 22.1116L33.7607 5.74463Z" fill="#C4C4C4"/>
</mask>
<g mask="url(#mask0)">
<path fill-rule="evenodd" clip-rule="evenodd" d="M27.2279 1.35782L0.247641 20.5705L-0.0423889 20.1632L26.9379 0.950531L27.2279 1.35782ZM28.8153 2.9592L1.83408 22.1719L1.54405 21.7646L28.5253 2.5519L28.8153 2.9592ZM3.42146 23.7733L30.4018 4.56058L30.1117 4.15329L3.13143 23.366L3.42146 23.7733ZM31.9892 6.16099L5.00891 25.3737L4.71889 24.9664L31.6992 5.75371L31.9892 6.16099ZM6.59537 26.9751L33.5766 7.76238L33.2866 7.35509L6.30534 26.5678L6.59537 26.9751ZM35.163 9.36377L8.18276 28.5764L7.89273 28.1692L34.873 8.95648L35.163 9.36377ZM9.7702 30.1769L36.7505 10.9642L36.4605 10.5569L9.48017 29.7696L9.7702 30.1769ZM38.3379 12.5656L11.3567 31.7782L11.0666 31.371L38.0479 12.1583L38.3379 12.5656ZM12.944 33.3796L39.9243 14.1669L39.6343 13.7596L12.654 32.9723L12.944 33.3796ZM41.5118 15.7673L14.5315 34.98L14.2415 34.5727L41.2218 15.3601L41.5118 15.7673ZM16.118 36.5814L43.0992 17.3687L42.8092 16.9614L15.8279 36.1741L16.118 36.5814ZM44.6866 18.9701L17.7053 38.1828L17.4153 37.7755L44.3965 18.5628L44.6866 18.9701ZM19.2928 39.7832L46.2731 20.5705L45.983 20.1632L19.0028 39.3759L19.2928 39.7832ZM47.8605 22.1719L20.8792 41.3846L20.5892 40.9773L47.5704 21.7646L47.8605 22.1719ZM22.4666 42.986L49.4479 23.7733L49.1578 23.366L22.1766 42.5787L22.4666 42.986Z" fill="#00FFFF"/>
</g>
</g>
<defs>
<clipPath id="clip0">
<rect width="46" height="46" fill="white"/>
</clipPath>
</defs>
</svg>
