<svg width="46" height="46" viewBox="0 0 46 46" fill="none" xmlns="http://www.w3.org/2000/svg">
<path d="M35.5515 44H6.44847C4.54368 44 3 42.5017 3 40.653V11.347C3 9.49829 4.54368 8 6.44847 8H35.5515C37.4563 8 39 9.49829 39 11.347V40.653C39.0011 42.5017 37.4563 44 35.5515 44Z" fill="#8FD3F4"/>
<path d="M39.2958 40.9783H9.4894C7.53858 40.9783 5.9576 39.3973 5.9576 37.4465V6.52278C5.9576 4.57197 7.53858 2.99097 9.4894 2.99097H39.2958C41.2466 2.99097 42.8276 4.57197 42.8276 6.52278V37.4465C42.8287 39.3973 41.2466 40.9783 39.2958 40.9783Z" stroke="white" stroke-miterlimit="10"/>
<path fill-rule="evenodd" clip-rule="evenodd" d="M26.1875 14.5665C26.1875 13.1491 27.3365 12 28.754 12C30.1714 12 31.3204 13.1491 31.3204 14.5665C31.3204 15.3151 30.9999 15.9889 30.4885 16.4581L35.907 31.6845C37.2552 31.7615 38.3248 32.8791 38.3248 34.2467C38.3248 35.6641 37.1758 36.8131 35.7583 36.8131C34.3409 36.8131 33.1919 35.6641 33.1919 34.2467C33.1919 33.4984 33.5121 32.8249 34.023 32.3558L28.6043 17.1287C28.1292 17.1013 27.6888 16.9448 27.3176 16.6937L12.0244 22.1374C11.7065 23.1937 10.7263 23.963 9.56646 23.963C8.14907 23.963 7 22.814 7 21.3966C7 19.9792 8.14904 18.8301 9.56646 18.8301C10.5112 18.8301 11.3367 19.3406 11.7822 20.1007L26.2178 14.9623C26.1979 14.8333 26.1875 14.7011 26.1875 14.5665ZM28.754 14C28.4411 14 28.1875 14.2536 28.1875 14.5665C28.1875 14.8793 28.4411 15.1329 28.754 15.1329C29.0668 15.1329 29.3204 14.8793 29.3204 14.5665C29.3204 14.2536 29.0668 14 28.754 14ZM9.56646 20.8301C9.25362 20.8301 9 21.0837 9 21.3966C9 21.7094 9.25359 21.963 9.56646 21.963C9.87934 21.963 10.1329 21.7094 10.1329 21.3966C10.1329 21.0837 9.87931 20.8301 9.56646 20.8301ZM35.1919 34.2467C35.1919 33.9338 35.4455 33.6802 35.7583 33.6802C36.0712 33.6802 36.3248 33.9338 36.3248 34.2467C36.3248 34.5595 36.0712 34.8131 35.7583 34.8131C35.4455 34.8131 35.1919 34.5595 35.1919 34.2467Z" fill="#00FFFF"/>
</svg>
