<?xml version="1.0" encoding="UTF-8"?>
<svg width="16px" height="16px" viewBox="0 0 16 16" version="1.1" xmlns="http://www.w3.org/2000/svg" xmlns:xlink="http://www.w3.org/1999/xlink">
    <g id="icon/map/dark/position" stroke="none" stroke-width="1" fill="none" fill-rule="evenodd">
        <g id="icon" transform="translate(2.000000, 1.000000)" fill-rule="nonzero">
            <path d="M5.96628587,0.5 C7.47635973,0.5 8.84416298,1.09266033 9.83400153,2.05295271 C10.8181838,3.00775759 11.4282974,4.32645579 11.4282982,5.78496656 C11.4308659,7.1833667 10.8566199,8.52429919 9.83422497,9.51495506 L9.83422497,9.51495506 L5.96628586,13.267039 L2.09858424,9.51518558 C1.11495494,8.55975405 0.504283815,7.24124859 0.504283815,5.78404848 C0.504283815,4.32656032 1.11443304,3.00783634 2.09865509,2.0529913 C3.08848383,1.09270693 4.45625051,0.5 5.96628587,0.5 Z" id="color_w" stroke="#FFFFFF"></path>
            <path d="M2.96628586,5.89575758 C2.96619197,6.96752306 3.5379682,7.95791536 4.46620999,8.4938252 C5.39445178,9.02973504 6.53811993,9.02973504 7.46636172,8.4938252 C8.39460351,7.95791536 8.96637975,6.96752306 8.96628586,5.89575758 C8.96637975,4.82399211 8.39460351,3.8335998 7.46636172,3.29768996 C6.53811993,2.76178012 5.39445178,2.76178012 4.46620999,3.29768996 C3.5379682,3.8335998 2.96619197,4.82399211 2.96628586,5.89575758 L2.96628586,5.89575758 Z" id="color_g" fill="#00FFFF"></path>
        </g>
    </g>
</svg>