<svg width="46" height="46" viewBox="0 0 46 46" fill="none" xmlns="http://www.w3.org/2000/svg">
<g clip-path="url(#clip0)">
<path d="M43.265 30.4777C43.265 31.345 42.6372 32.0548 41.8701 32.0548H5.72043C4.95338 32.0548 4.32594 31.345 4.32594 30.4777V21.6238L15.8735 8.54421C16.1524 8.23662 16.5222 8.07089 16.9126 8.09456C17.3033 8.11824 17.6657 8.31525 17.9168 8.65431L25.5945 18.9749C26.9821 20.8433 29.3738 21.214 31.1521 19.8421L33.7461 17.8474C34.2831 17.4297 35.0223 17.5003 35.4894 18.0049L42.8533 25.9604L43.265 26.4017V30.4777Z" fill="#8FD3F4"/>
<path d="M35.0958 9.57671C37.0269 9.57671 38.5904 11.14 38.5904 13.0713C38.5904 15.0021 37.0269 16.5658 35.0958 16.5658C33.1649 16.5658 31.6014 15.0021 31.6014 13.0713C31.6014 11.14 33.1649 9.57671 35.0958 9.57671Z" fill="white"/>
<path fill-rule="evenodd" clip-rule="evenodd" d="M16.2318 10.5774C15.8414 10.5538 15.4716 10.7195 15.1927 11.0271L3.64512 24.1066V32.9606C3.64512 33.8279 4.27257 34.5377 5.03962 34.5377H41.1892C41.9564 34.5377 42.5842 33.8279 42.5842 32.9606V28.8846L42.1725 28.4432L34.8086 20.4878C34.3415 19.9832 33.6023 19.9126 33.0653 20.3303L30.4713 22.325C28.693 23.6968 26.3013 23.3262 24.9137 21.4578L17.236 11.1372C16.9848 10.7981 16.6225 10.6011 16.2318 10.5774ZM24.1109 22.054L16.4324 11.7324C16.3494 11.6204 16.2541 11.5806 16.1713 11.5756C16.1202 11.5725 16.036 11.5875 15.9369 11.6951L4.64512 24.4849V32.9606C4.64512 33.1541 4.7153 33.3118 4.8039 33.412C4.89123 33.5108 4.97754 33.5377 5.03962 33.5377H41.1892C41.2514 33.5377 41.3379 33.5107 41.4253 33.4119C41.514 33.3116 41.5842 33.1539 41.5842 32.9606V29.2786L41.4386 29.1225L34.0748 21.1672C34.0067 21.0936 33.9328 21.0646 33.8716 21.059C33.8116 21.0535 33.7454 21.0682 33.6793 21.1196L33.6749 21.123L31.0821 23.1168C28.8355 24.8494 25.8124 24.3452 24.1109 22.054Z" fill="white"/>
<path fill-rule="evenodd" clip-rule="evenodd" d="M40.9316 37.533H5.29769C2.73075 37.533 0.649803 35.4399 0.649803 32.8579V9.25967C0.649803 6.67769 2.73075 4.58456 5.29769 4.58456H40.9316C43.4985 4.58456 45.5795 6.67769 45.5795 9.25967V32.858C45.5796 35.4399 43.4986 37.533 40.9316 37.533ZM40.9316 36.533H5.29769C3.28853 36.533 1.6498 34.8931 1.6498 32.8579V9.25967C1.6498 7.22447 3.28853 5.58456 5.29769 5.58456H40.9316C42.9407 5.58456 44.5795 7.22447 44.5795 9.25967V32.858C44.5795 34.8931 42.9409 36.533 40.9316 36.533Z" fill="white"/>
<mask id="mask0" mask-type="alpha" maskUnits="userSpaceOnUse" x="-11" y="5" width="81" height="53">
<path fill-rule="evenodd" clip-rule="evenodd" d="M-9.68899 29.6221L52.0687 5.96094L51.6058 5.07454L-10.1519 28.7357L-9.68899 29.6221ZM-8.55051 31.4963L53.2072 7.83509L52.7443 6.94869L-9.01342 30.6099L-8.55051 31.4963ZM54.3457 9.70928L-7.412 33.3705L-7.87492 32.4841L53.8828 8.82287L54.3457 9.70928ZM-6.27346 35.2446L55.4842 11.5834L55.0213 10.697L-6.73637 34.3582L-6.27346 35.2446ZM56.6227 13.4576L-5.13497 37.1187L-5.59788 36.2323L56.1598 12.5712L56.6227 13.4576ZM-3.99647 38.9929L57.7612 15.3317L57.2983 14.4453L-4.45938 38.1065L-3.99647 38.9929ZM58.8996 17.2059L-2.85804 40.8671L-3.32095 39.9807L58.4367 16.3195L58.8996 17.2059ZM-1.71956 42.7412L60.0381 19.0801L59.5752 18.1937L-2.18247 41.8548L-1.71956 42.7412ZM61.1766 20.9542L-0.581061 44.6154L-1.04397 43.729L60.7137 20.0678L61.1766 20.9542ZM0.557434 46.4895L62.3151 22.8283L61.8522 21.9419L0.0945205 45.6031L0.557434 46.4895ZM63.4536 24.7025L1.69592 48.3637L1.23301 47.4773L62.9907 23.8161L63.4536 24.7025ZM2.83441 50.2378L64.5921 26.5767L64.1292 25.6903L2.3715 49.3514L2.83441 50.2378ZM65.7305 28.4508L3.97283 52.112L3.50992 51.2256L65.2676 27.5644L65.7305 28.4508ZM5.11133 53.9862L66.869 30.325L66.4061 29.4386L4.64842 53.0998L5.11133 53.9862ZM68.0076 32.1991L6.2499 55.8603L5.78699 54.9739L67.5447 31.3127L68.0076 32.1991ZM7.38832 57.7345L69.146 34.0733L68.6831 33.1869L6.9254 56.8481L7.38832 57.7345Z" fill="#00FFFF"/>
</mask>
<g mask="url(#mask0)">
<path d="M40.72 31.7892C40.7301 32.4407 40.1853 32.9825 39.5095 32.993L6.66261 32.4892C5.98682 32.4997 5.42575 31.9751 5.41563 31.3236L5.31234 24.6724L15.3333 14.689C15.5755 14.4541 15.8993 14.3246 16.2435 14.337C16.588 14.3495 16.9096 14.4925 17.1348 14.7438L24.0194 23.39C25.2637 24.7746 28.3736 26.0187 29.9243 24.9639L32.1864 23.4299C32.6546 23.1088 33.3067 23.1518 33.7241 23.5244L40.3046 29.3998L40.6724 29.7257L40.72 31.7892Z" fill="#00FFFF"/>
</g>
</g>
<defs>
<clipPath id="clip0">
<rect width="46" height="46" fill="white"/>
</clipPath>
</defs>
</svg>
