<?xml version="1.0" encoding="UTF-8"?>
<svg width="16px" height="16px" viewBox="0 0 16 16" version="1.1" xmlns="http://www.w3.org/2000/svg" xmlns:xlink="http://www.w3.org/1999/xlink">
    <g id="icon/map/dark/sideToolBar/toolbar/复位视图" stroke="none" stroke-width="1" fill="none" fill-rule="evenodd">
        <g id="icon" transform="translate(1.000000, 1.000000)" fill-rule="nonzero">
            <path d="M10.4674286,13.9001296 L10.2354286,13.8989445 L4.384,13.8977593 C2.88571428,13.8977593 1.712,13.0088704 1.712,11.8746482 L1.712,8.05835186 C1.712,7.73111027 1.96787418,7.46585725 2.28342857,7.46585725 C2.59898296,7.46585725 2.85480496,7.73111027 2.85485714,8.05835186 L2.85485714,11.8758333 C2.85485714,12.2716852 3.50857142,12.7137593 4.384,12.7137593 L10.2457143,12.7149444 C10.72,12.7232407 11.2045714,12.7232407 11.3645714,12.5596852 C11.4628571,12.4577593 11.5165714,12.2159815 11.5165714,11.8758333 C11.5165714,11.5485535 11.7724087,11.2832407 12.088,11.2832407 C12.4035913,11.2832407 12.6594286,11.5485535 12.6594286,11.8758333 C12.6594286,12.5620555 12.4982857,13.0610185 12.1691429,13.4011667 C11.7245714,13.8562778 11.0971429,13.9001296 10.4674286,13.9001296 L10.4674286,13.9001296 Z M13.4285714,7.08531842 C13.2719029,7.08588399 13.1220511,7.0189152 13.0148571,6.90042592 L8.33942858,1.79464816 C7.99569872,1.40920275 7.51310871,1.18901588 7.00685714,1.18664815 L7.00228572,1.18664815 C6.496,1.18664815 6.01942858,1.40235185 5.65942858,1.79583333 L0.986285719,6.90042592 C0.76891088,7.13745375 0.407622764,7.14752265 0.178285719,6.92294444 C-0.0502768282,6.69751868 -0.0599861319,6.32284953 0.156571422,6.08501851 L4.83085714,0.979240743 C5.39330775,0.356186224 6.17929494,0.00226216853 7.00228572,0.00146296759 L7.00914286,0.00146296759 C7.82896239,0.00271527275 8.61138667,0.357328418 9.16914286,0.980425931 L13.8422857,6.08383334 C14.0001227,6.255467 14.0439805,6.50811203 13.9539382,6.72607809 C13.863896,6.94404415 13.6572281,7.08531842 13.4285714,7.08531842 L13.4285714,7.08531842 Z" id="color_w" fill="#FFFFFF"></path>
            <path d="M5.35428572,11.5558333 L5.35428572,7.79524074 C5.35428572,7.22872221 5.77828572,6.76887037 6.30057142,6.76887037 L7.97142858,6.76887037 C8.48914286,6.76887037 8.90857142,7.2299074 8.90857142,7.79524074 L8.90857142,11.5558333 L5.35428572,11.5558333 Z" id="color_g" fill="#00FFFF"></path>
        </g>
    </g>
</svg>