<?xml version="1.0" encoding="UTF-8"?>
<svg width="16px" height="16px" viewBox="0 0 16 16" version="1.1" xmlns="http://www.w3.org/2000/svg" xmlns:xlink="http://www.w3.org/1999/xlink">
    <g id="icon/map/dark/select/飞行漫游" stroke="none" stroke-width="1" fill="none" fill-rule="evenodd">
        <g id="icon" transform="translate(1.000000, 1.000000)" fill-rule="nonzero">
            <path d="M12.3288701,0 C12.7568412,0 13.1676934,0.165053943 13.4556013,0.45234123 L13.5341923,0.531753976 C14.1551395,1.15304193 14.1551395,2.16438661 13.5349704,2.78645312 L10.6022012,5.72005339 L11.8853364,12.099544 C11.9134099,12.2368994 11.8704038,12.3791608 11.7709514,12.4779224 L10.883884,13.3654766 C10.7887792,13.4598946 10.6543746,13.5032747 10.5220539,13.48226 C10.3907985,13.4607347 10.2775764,13.3780835 10.2170272,13.2595929 L7.85773929,8.66299633 L5.99645407,10.5253031 L6.17698006,12.5791347 C6.1873603,12.7021882 6.14294087,12.823554 6.05559189,12.9107997 L5.08993347,13.8777667 C5.01212054,13.9556223 4.9047387,14 4.79424434,14 C4.62543042,13.9998168 4.47324474,13.8982017 4.40829223,13.7422979 L3.1555041,10.7316205 L0.266310116,9.59337115 C0.134635036,9.54228957 0.0377399656,9.42800727 0.00883595426,9.28969482 C-0.0200680571,9.15138238 0.0229457705,9.00783034 0.12313433,8.90824157 L1.0102017,8.02146591 C1.08801463,7.94361028 1.19617459,7.89923257 1.30589082,7.89923257 L1.33545973,7.90001112 L3.49087782,8.06350795 L5.40507582,6.14825937 L0.68883431,3.84217551 C0.567601903,3.78287188 0.482456298,3.66863929 0.460221273,3.53546491 C0.437986249,3.40229054 0.481399249,3.26657001 0.576783695,3.17105995 L1.4436197,2.30296964 C1.54181513,2.20579055 1.68128172,2.16276475 1.81712175,2.1877433 L4.02564912,2.60593816 C4.0087295,2.73489363 4,2.86642737 4,3 C4,3.15710356 4.0120761,3.31138659 4.03535067,3.46197148 L1.87859397,3.05116227 L1.58212671,3.34779224 L4.6279111,4.83685715 C5.0849784,5.42624886 5.75685577,5.84070577 6.52609563,5.96278031 C6.54901393,6.0925362 6.50573896,6.22844249 6.41041884,6.3242131 L3.94608344,8.78990101 C3.85972414,8.87710689 3.73920526,8.92157796 3.61693476,8.9113558 L1.46540732,8.74863753 L1.16504942,9.04916027 L3.62627231,10.0176844 L3.62705044,10.0169058 C3.73225446,10.058731 3.81614077,10.1412598 3.85971109,10.2458014 L4.93975452,12.8438438 L5.32648477,12.4569013 L5.14595878,10.4038483 C5.13545151,10.2805463 5.17987278,10.1588906 5.26734694,10.0714047 L7.67176639,7.66566567 C7.76652314,7.57172734 7.90023001,7.52838601 8.03204024,7.54888222 C8.16354409,7.56912468 8.27792909,7.65243021 8.33862318,7.77077077 L10.6979111,12.3673674 L11.0208348,12.0442665 L9.73847773,5.66477589 C9.71068212,5.52767032 9.75366736,5.38577045 9.85286274,5.28717606 L12.9435922,2.19475031 C13.2384839,1.898296 13.2384839,1.41913254 12.9435922,1.12267823 L12.8650011,1.04404404 C12.7212501,0.905210081 12.5286537,0.828576724 12.3288701,0.830675848 C12.1242221,0.830675848 11.9296898,0.908575242 11.7935171,1.04404404 L9.995,2.844 L9.99490731,2.82372721 C9.97556185,2.48984714 9.90161456,2.17061558 9.78186187,1.87482896 L11.2021389,0.453119786 C11.4900467,0.165053943 11.900899,0 12.3288701,0 Z" id="color_w" fill="#FFFFFF"></path>
            <path d="M8.61462649,1.56870202 C8.61462649,1.22338124 8.36597955,1 7.99313444,1 C7.63164841,1 7.37165909,1.21968468 7.37104103,1.56870202 C7.37104103,1.94714922 7.99313444,2.74296083 7.99313444,2.74296083 C7.99313444,2.74296083 8.61462649,1.94375408 8.61462649,1.56870202 L8.61462649,1.56870202 Z M7.75821863,1.50122755 C7.75821863,1.3852692 7.84747094,1.28942785 7.96355072,1.27414973 C7.9781639,1.27105539 7.9930965,1.26952807 8.00806829,1.26959423 C8.13281773,1.26959423 8.23399706,1.36569162 8.23399706,1.48398214 C8.23399706,1.48596528 8.23372979,1.48737729 8.23372979,1.48877342 C8.23399706,1.49327912 8.23399706,1.49726128 8.23399706,1.50124343 C8.23399706,1.62772038 8.12773954,1.73060584 7.99615795,1.73060584 C7.86511091,1.73058998 7.75821863,1.62795834 7.75821863,1.50122755 L7.75821863,1.50122755 Z M7.00006682,5 C8.10447014,5 9,4.14946951 9,3.1007992 C9,2.6987288 8.86806763,2.32539018 8.64357544,2.0180347 C8.57375051,2.16750025 8.48388014,2.32339117 8.39340839,2.46770054 L8.60059468,2.46770054 C8.67129797,2.6290342 8.71442078,2.80005621 8.72833422,2.97430639 L8.19758119,2.97430639 C8.19462449,2.90970352 8.19039824,2.84706792 8.18329882,2.78433712 C8.07196312,2.94379771 7.98984365,3.04949131 7.98984365,3.04949132 C7.98984365,3.04949134 7.96749299,3.02055329 7.93072631,2.97151413 L7.93072631,2.97459196 L7.13370306,2.97459196 L7.13370306,2.46770054 L7.5847922,2.46770054 C7.53345918,2.38582052 7.48246024,2.3004819 7.43495255,2.21420724 L7.13341908,2.21420724 L7.13341908,1.47286068 C7.15642123,1.47938126 7.17938995,1.48766287 7.2024422,1.4972454 C7.20957504,1.39431233 7.23550046,1.30135843 7.27729521,1.21941496 C7.1854289,1.20732696 7.0927939,1.20129691 7.00005012,1.20129691 C5.89519579,1.20129691 5,2.05179574 5,3.1007992 C5,4.1494695 5.89522919,5 7.00006682,5 L7.00006682,5 Z M8.19759789,3.22776797 L8.72835094,3.22776797 C8.71428572,3.40217353 8.67168916,3.57223203 8.60059468,3.73380267 L8.13134773,3.73380267 C8.16712884,3.57423103 8.19016438,3.40380763 8.19759789,3.22776797 L8.19759789,3.22776797 Z M8.06142256,3.98735944 L8.46116197,3.98735944 C8.39374248,4.08708776 8.3148971,4.17954982 8.22536082,4.26482499 C8.08663319,4.39742987 7.9248469,4.50629755 7.74712683,4.58663361 C7.87667047,4.4239048 7.98332889,4.21978384 8.06142256,3.98735944 L8.06142256,3.98735944 Z M7.1334358,3.22776797 L7.93037553,3.22776797 C7.92302553,3.40217353 7.8985868,3.57223203 7.85854604,3.73380267 L7.1334358,3.73380267 L7.1334358,3.22776797 Z M7.1334358,3.98735944 L7.78033542,3.98735944 C7.73580115,4.10672881 7.68209608,4.21608725 7.62030603,4.31367377 C7.53016839,4.45593655 7.42447881,4.56989589 7.31352734,4.64390679 C7.2543933,4.68360138 7.19429039,4.71146058 7.1334525,4.72864254 L7.1334525,3.98735944 L7.1334358,3.98735944 Z M6.86629694,4.72864254 L6.86629694,4.72859494 C6.80552586,4.71131781 6.74527263,4.68349033 6.68632234,4.64390679 C6.57548777,4.56989589 6.46953094,4.45592067 6.38006147,4.31367377 C6.31790392,4.21583342 6.26449954,4.10672881 6.21936389,3.98735944 L6.86631364,3.98735944 L6.86631364,4.72861081 C6.86641387,4.7286584 6.86646399,4.7286584 6.86659762,4.7286584 L6.86629694,4.7286584 L6.86629694,4.72864254 Z M6.86656422,3.73378681 L6.14115329,3.73378681 C6.10116264,3.57221617 6.07735869,3.40217353 6.06927369,3.2277521 L6.86656422,3.2277521 L6.86656422,3.73378681 Z M6.86656422,2.97435399 L6.06927369,2.97435399 C6.07734198,2.7993297 6.10116264,2.62960436 6.14115329,2.46770054 L6.86656422,2.46770054 L6.86656422,2.97435399 Z M6.68653949,1.55794546 C6.74570695,1.51821913 6.80565951,1.49018541 6.86688161,1.47316212 L6.86688161,2.21450868 L6.21973139,2.21450868 C6.26449954,2.09545661 6.3181879,1.98598712 6.38022852,1.88817847 C6.46986503,1.74613782 6.57578846,1.6322102 6.68653949,1.55794546 L6.68653949,1.55794546 Z M5.77438862,1.93670996 C5.91340943,1.80446994 6.07509826,1.69564884 6.25253908,1.61490133 C6.12326272,1.77793156 6.01613658,1.9817511 5.93824335,2.21450868 L5.53852064,2.21450868 C5.60630893,2.11406305 5.68539642,2.02091602 5.77438862,1.93670996 L5.77438862,1.93670996 Z M5.39938862,2.46771641 L5.8683516,2.46771641 C5.83253709,2.62787506 5.81018642,2.79744175 5.80300347,2.97436985 L5.27159897,2.97436985 C5.28534679,2.79942489 5.32839437,2.62930292 5.39938862,2.46771641 L5.39938862,2.46771641 Z M5.27141521,3.22776797 L5.8026861,3.22776797 C5.80985234,3.40380764 5.83255379,3.57423104 5.86808432,3.73380267 L5.39938862,3.73380267 C5.32849603,3.57271461 5.28528862,3.40186312 5.27141521,3.22776797 L5.27141521,3.22776797 Z M5.93852734,3.98735944 C6.01642057,4.21978384 6.12356342,4.42392068 6.2525558,4.58663361 C6.0749411,4.50616715 5.91320456,4.39731395 5.77440532,4.26482499 C5.68568251,4.18057707 5.60669991,4.08755972 5.53880463,3.98735944 L5.93852734,3.98735944 L5.93852734,3.98735944 Z" id="color_g" fill="#00FFFF"></path>
        </g>
    </g>
</svg>