<svg fill="none" xmlns="http://www.w3.org/2000/svg" viewBox="0 0 16 16" class="design-iconfont">
  <g clip-path="url(#mysxe7gq2__clip0_1151_1775)" fill-rule="evenodd" clip-rule="evenodd">
    <path d="M1 8C1 8.36615 1.02854 8.72585 1.08238 9.07692H1.62785C1.56915 8.72692 1.53846 8.36669 1.53846 8C1.53846 4.43162 4.43162 1.53846 8 1.53846C11.5684 1.53846 14.4615 4.43162 14.4615 8C14.4615 8.36669 14.4314 8.72692 14.3722 9.07692H14.9176C14.972 8.72585 15 8.36615 15 8C15 4.13492 11.8662 1 8.00054 1C4.13385 1 1 4.13492 1 8ZM9.40545 9.0769H12.0418C11.9847 8.92451 11.9055 8.75866 11.8038 8.57451C11.8038 8.57451 11.6885 7.7959 12.353 7.60097C12.8952 7.44213 13.3357 6.61397 13.2334 5.6932C12.2243 3.80913 10.3241 2.53566 8.14006 2.53566C6.12783 2.53566 4.35252 3.61528 3.29768 5.26136C3.22499 5.63774 3.13937 6.18859 3.19645 6.43251C3.28691 6.82128 4.45537 6.28605 4.66052 5.84774C4.69199 5.78131 4.72446 5.70642 4.75724 5.63085C4.94045 5.20845 5.13302 4.76445 5.20975 5.65282C5.30183 6.69959 5.71429 6.94405 5.94368 6.04266C6.17199 5.14074 6.53814 4.1182 7.59029 4.67928C8.64406 5.2382 8.25475 6.3092 7.95752 6.23759C7.66029 6.16436 6.85852 6.38351 6.85852 7.0162C6.85852 7.62212 7.23568 7.69361 7.71025 7.78357C7.73164 7.78762 7.75322 7.79172 7.77499 7.7959C7.7801 7.7969 7.78535 7.79792 7.79071 7.79896C8.1233 7.86366 8.92004 8.01865 9.40545 9.0769Z" fill="#0FF"/>
    <path d="M1 9.61542H15V11.2308H1V9.61542ZM1 14.4615H15V14.9999H1V14.4615ZM15 12.3076H1V13.3845H15V12.3076Z" fill="#fff"/>
  </g>
  <defs>
    <clipPath id="mysxe7gq2__clip0_1151_1775">
      <path fill="#fff" d="M0 0H16V16H0z"/>
    </clipPath>
  </defs>
</svg>
