<svg xmlns="http://www.w3.org/2000/svg" fill="none" viewBox="0 0 16 16" class="design-iconfont">
  <path d="M8.53111 1.09529L6.21577 3.45729C6.1547 3.5196 6.12049 3.60337 6.12049 3.69062C6.12049 3.77787 6.1547 3.86164 6.21577 3.92395L8.52577 6.28062C8.58253 6.33875 8.65857 6.37415 8.73959 6.38017C8.82062 6.38618 8.90105 6.3624 8.96577 6.31329L9.00244 6.28062L9.42511 5.84929C9.48618 5.78698 9.52039 5.7032 9.52039 5.61595C9.52039 5.5287 9.48618 5.44493 9.42511 5.38262L8.33311 4.26795C9.22886 4.32001 10.0917 4.6242 10.822 5.14542C11.5524 5.66665 12.1205 6.38369 12.461 7.21387C12.8014 8.04404 12.9003 8.95354 12.7462 9.83747C12.5921 10.7214 12.1913 11.5438 11.59 12.2098C10.9887 12.8758 10.2114 13.3582 9.34776 13.6016C8.48411 13.8449 7.56928 13.8392 6.70875 13.585C5.84822 13.3309 5.07704 12.8387 4.48415 12.1652C3.89125 11.4918 3.50079 10.6644 3.35777 9.77862L3.34177 9.67195C3.33797 9.64268 3.33463 9.61334 3.33177 9.58395C3.323 9.49897 3.28193 9.42061 3.21705 9.36503C3.15217 9.30945 3.06842 9.28091 2.98311 9.28529L2.31644 9.32062C2.2727 9.32284 2.22984 9.33366 2.19028 9.35245C2.15073 9.37124 2.11527 9.39764 2.08592 9.43015C2.05657 9.46265 2.03392 9.50062 2.01925 9.54188C2.00459 9.58314 1.99819 9.62689 2.00044 9.67062L2.00177 9.68662L2.02044 9.85062C2.17734 10.9907 2.65392 12.0631 3.395 12.9436C4.13609 13.8241 5.11138 14.4767 6.20799 14.8259C7.3046 15.1752 8.47768 15.2067 9.59145 14.9168C10.7052 14.627 11.7141 14.0276 12.5014 13.1882C13.2887 12.3487 13.8221 11.3035 14.04 10.1734C14.2579 9.04339 14.1513 7.87474 13.7325 6.80276C13.3138 5.73078 12.6 4.79931 11.6738 4.11617C10.7476 3.43303 9.64693 3.02614 8.4991 2.94262L9.42577 1.99795C9.48685 1.93564 9.52106 1.85187 9.52106 1.76462C9.52106 1.67737 9.48685 1.59359 9.42577 1.53129L9.00244 1.09995C8.94055 1.03684 8.85613 1.00089 8.76774 1.00002C8.67935 0.999141 8.59423 1.03341 8.53111 1.09529V1.09529Z" fill="#1DB28E"/>
  <path fill="#467CF3" d="M6 7H10V11H6z"/>
</svg>
