<svg width="16" height="16" viewBox="0 0 16 16" fill="none" xmlns="http://www.w3.org/2000/svg">
<path d="M11.7781 1H10.4891V5.56406C10.4891 5.75625 10.3328 5.9125 10.1406 5.9125H3.34687C3.15469 5.9125 2.99844 5.75625 2.99844 5.5625L3.02656 1H1.94531C1.42344 1 1 1.42344 1 1.94531V13.8719C1 14.3938 1.42344 14.8172 1.94531 14.8172H13.4719C13.9937 14.8172 14.4172 14.3938 14.4172 13.8719V3.97813L11.7781 1ZM12.6687 12.9609C12.6687 13.2375 12.4422 13.4656 12.1641 13.4656H3.47031C3.19375 13.4656 2.96562 13.2391 2.96562 12.9609V7.76875C2.96562 7.49219 3.19219 7.26406 3.47031 7.26406H12.1641C12.4406 7.26406 12.6687 7.49063 12.6687 7.76875V12.9609Z" fill="#1DB28E"/>
<path fill-rule="evenodd" clip-rule="evenodd" d="M8.57811 5.26865H4.99843C4.67499 5.26865 4.40936 5.00303 4.40936 4.67803V1.95771C4.40936 1.63428 4.67499 1.36865 4.99843 1.36865H8.57811C8.90155 1.36865 9.16718 1.63428 9.16718 1.95771V4.67959C9.16718 5.00303 8.90155 5.26865 8.57811 5.26865ZM4.44218 9.08594H11.0234C11.2734 9.08594 11.4781 9.29062 11.4781 9.54062C11.4781 9.79062 11.2734 9.99531 11.0234 9.99531H4.44218C4.19218 9.99531 3.98749 9.79062 3.98749 9.54062C3.98749 9.29062 4.19218 9.08594 4.44218 9.08594ZM4.44218 11.45H11.0234C11.2734 11.45 11.4781 11.6547 11.4781 11.9047C11.4781 12.1547 11.2734 12.3594 11.0234 12.3594H4.44218C4.19218 12.3594 3.98749 12.1547 3.98749 11.9047C3.98749 11.6547 4.19218 11.45 4.44218 11.45Z" fill="#467CF3"/>
</svg>
