<svg width="16" height="16" viewBox="0 0 16 16" fill="none" xmlns="http://www.w3.org/2000/svg">
<path fill-rule="evenodd" clip-rule="evenodd" d="M6.86819 6.00525L6.77575 6.00003C6.34711 5.99625 5.99624 6.34802 6.00003 6.77355L6.00509 6.8697C5.99482 6.96993 6.00009 7.07147 6.02091 7.17037L6.129 9.22459C6.129 9.65012 6.47798 9.99811 6.90661 10L7.76861 9.13993L12.345 13.7163C12.7232 14.0946 13.3381 14.0946 13.7163 13.7163C14.0946 13.3381 14.0946 12.7232 13.7163 12.345L9.14145 7.77014L10 6.9135C10 6.48797 9.65102 6.13998 9.22239 6.13809L7.1791 6.02279C7.07696 6.00031 6.97186 5.99446 6.86819 6.00525Z" fill="#467CF3"/>
<path d="M14.5389 1.46112C14.8357 1.75577 15 2.1503 15 2.57146V5.30155C15 5.62283 14.7368 5.88419 14.4132 5.88419C14.0896 5.88419 13.8263 5.62283 13.8263 5.30155V2.5698C13.8263 2.46159 13.7844 2.35838 13.709 2.28347C13.6319 2.20856 13.5279 2.16528 13.4206 2.16528H2.58275C2.47377 2.16528 2.3715 2.2069 2.29605 2.28181C2.21725 2.36005 2.17365 2.46492 2.17365 2.57146V13.4302C2.17365 13.6533 2.35641 13.8347 2.58275 13.8347H5.34251C5.66611 13.8347 5.92934 14.0961 5.92934 14.4174C5.92934 14.7386 5.66611 15 5.34251 15H2.58275C1.70922 15 1 14.2958 1 13.4302V2.57146C1 2.15363 1.16431 1.76076 1.46108 1.46278C1.75952 1.1648 2.15689 1 2.58275 1H13.4206C13.8364 1 14.2438 1.16813 14.5389 1.46112Z" fill="#1DB28E"/>
</svg>
