<?xml version="1.0" encoding="UTF-8"?>
<svg width="34px" height="34px" viewBox="0 0 34 34" version="1.1" xmlns="http://www.w3.org/2000/svg" xmlns:xlink="http://www.w3.org/1999/xlink">
    <g id="icon/map/dark/天际线" stroke="none" stroke-width="1" fill="none" fill-rule="evenodd">
        <g id="icon" fill-rule="nonzero">
            <path d="M19,2 L19,4 L21,4 L21,21 L26,21 L26,15 L29,15 L29,9 L34,9 L34,34 L0,34 L0,17 L2,17 L2,13 L4,13 L4,10 L8,10 L8,13 L10,13 L10,16 L13,16 L13,4 L15,4 L15,2 L19,2 Z M18,3 L16,3 L16,5 L14,5 L14,17 L9,17 L9,14 L7,14 L7,11 L5,11 L5,14 L3,14 L3,18 L1,18 L1,33 L33,33 L33,10 L30,10 L30,16 L27,16 L27,22 L20,22 L20,5 L18,5 L18,3 Z M19,15.136 L19,16.549 L3.55,32 L2.136,32 L19,15.136 Z M19,17.964 L19,19.378 L6.378,32 L4.965,32 L19,17.964 Z M19,20.792 L19,22.206 L9.206,32 L7.792,32 L19,20.792 Z M21.034,23 L12.034,32 L10.62,32 L19.62,23 L21.034,23 Z M23.863,23 L14.863,32 L13.449,32 L22.449,23 L23.863,23 Z M26.692,23 L17.692,32 L16.277,32 L25.277,23 L26.692,23 Z M32,19.106 L32,20.52 L20.52,32 L19.106,32 L32,19.106 Z M32,21.934 L32,23.348 L23.348,32 L21.934,32 L32,21.934 Z M32,24.762 L32,26.176 L26.176,32 L24.762,32 L32,24.762 Z M32,27.591 L32,29.005 L29.005,32 L27.591,32 L32,27.591 Z M32,30.42 L32,31.834 L31.834,32 L30.42,32 L32,30.42 Z M14.722,18 L2,30.722 L2,29.307 L13.307,18 L14.722,18 Z M11.893,18 L2,27.893 L2,26.479 L10.479,18 L11.893,18 Z M8,17.651 L8,18 L9.065,18 L2,25.065 L2,23.651 L8,17.651 Z M8,15 L8,16.237 L2,22.237 L2,20.823 L3.823,19 L4,19 L4,18.823 L7.823,15 L8,15 Z M32,16.277 L32,17.692 L28,21.692 L28,20.277 L32,16.277 Z M29.863,17 L28,18.863 L28,17.449 L28.449,17 L29.863,17 Z M19,12.307 L19,13.722 L15,17.722 L15,16.307 L19,12.307 Z M6.408,15 L4,17.408 L4,15.994 L4.994,15 L6.408,15 Z M32,13.449 L32,14.863 L31,15.863 L31,14.449 L32,13.449 Z M19,9.479 L19,10.893 L15,14.893 L15,13.479 L19,9.479 Z M32,11 L32,12.034 L31,13.034 L31,11.62 L31.62,11 L32,11 Z M19,6.651 L19,8.065 L15,12.065 L15,10.651 L19,6.651 Z M18.237,6 L15,9.237 L15,7.823 L16.823,6 L18.237,6 Z" id="color_w" fill="#FFFFFF"></path>
            <polygon id="color_g" fill="#00FFFF" points="21 5.689893e-14 21 2 23 2 23 19 24 19 24 13 27 13 27 7 34 7 34 8 28 8 28 14 25 14 25 20 22 20 22 3 20 3 20 1 14 1 14 3 12 3 12 12 9 12 9 9 3 9 3 12 1 12 1 16 0 16 0 11 2 11 2 8 10 8 10 11 11 11 11 2 13 2 13 5.689893e-14"></polygon>
        </g>
    </g>
</svg>