<svg width="34" height="34" viewBox="0 0 34 34" fill="none" xmlns="http://www.w3.org/2000/svg">
<path d="M16 7L31 19.5L16 32L1 19.5L16 7Z" fill="#8FD3F4"/>
<path d="M17 2L34 15.6548L17 29.3095L0 15.6548L17 2ZM17 3.282L1.596 15.654L16.999 28.026L32.403 15.654L17 3.282Z" fill="white"/>
<path d="M0 20.5383L4.55012 21.8403L3.36436 22.6132L12.6449 30.5403L13.6053 29.8154L15.0629 33L10.0818 32.4744L11.3408 31.5228L1.97439 23.5236L0.918192 24.2141L0 20.5383ZM33.3704 20.4524L32.4522 24.1282L31.3974 23.4377L22.0296 31.4386L23.2886 32.3885L18.3075 32.9141L19.7651 29.7313L20.7255 30.4544L30.006 22.529L28.8202 21.7544L33.3704 20.4524ZM17 10.0869L23.4483 15.4782L17 20.8696L10.5517 15.4782L17 10.0869Z" fill="#00FFFF"/>
</svg>
