<svg width="16" height="16" viewBox="0 0 16 16" fill="none" xmlns="http://www.w3.org/2000/svg">
<path fill-rule="evenodd" clip-rule="evenodd" d="M9.07039 12.656H12.9515C13.7551 12.656 14.4091 12.0022 14.4092 11.1985V4.68518C14.4092 3.94565 13.8076 3.34401 13.0681 3.34401H9.07039V12.656ZM2.93179 12.656H6.92927L6.92929 3.34399H3.04823C2.24447 3.34399 1.59058 3.99787 1.59058 4.8016V11.3149C1.59058 12.0544 2.19225 12.656 2.93179 12.656ZM2.66015 4.80181C2.66015 4.58785 2.83424 4.4138 3.04821 4.4138H5.85968V11.5865H2.9316C2.78193 11.5865 2.66015 11.4647 2.66015 11.315V4.80181ZM12.9515 11.5863H10.14V4.41381H13.0681C13.2177 4.41381 13.3395 4.53555 13.3395 4.68518V11.1983C13.3395 11.4122 13.1654 11.5863 12.9515 11.5863Z" fill="#467CF3"/>
<path fill-rule="evenodd" clip-rule="evenodd" d="M7 13.8428C7 14.3423 7.40639 14.7487 7.90594 14.7487C8.40548 14.7487 8.81187 14.3423 8.81187 13.8428C8.81187 13.5523 8.67096 13.2796 8.43872 13.1103V2.63852C8.67098 2.46912 8.81187 2.19631 8.81187 1.90593C8.81187 1.4064 8.40548 1 7.90594 1C7.40639 1 7 1.4064 7 1.90593C7 2.19602 7.14088 2.4687 7.37307 2.63815V13.1106C7.14088 13.2801 7 13.5527 7 13.8428Z" fill="#1DB28E"/>
</svg>
