<svg width="34" height="34" viewBox="0 0 34 34" fill="none" xmlns="http://www.w3.org/2000/svg">
<path fill-rule="evenodd" clip-rule="evenodd" d="M24.8194 16.4947L24.8182 18.1818C24.8182 18.6337 24.4519 19 24 19C23.5983 19 23.2643 18.7106 23.195 18.3289L23.1818 18.1818L23.1822 16.4949C23.4501 16.5283 23.7231 16.5455 24 16.5455C24.2775 16.5455 24.551 16.5282 24.8194 16.4947ZM29.1715 14.0128L30.364 15.2069C30.6835 15.5264 30.6835 16.0444 30.364 16.364C30.0799 16.648 29.6391 16.6795 29.3202 16.4586L29.2069 16.364L28.0128 15.1715C28.4456 14.8352 28.8352 14.4456 29.1715 14.0128ZM18.8285 14.0128C19.1648 14.4456 19.5544 14.8352 19.9872 15.1715L18.7931 16.364C18.4736 16.6835 17.9556 16.6835 17.636 16.364C17.352 16.0799 17.3205 15.6391 17.5414 15.3202L17.636 15.2069L18.8285 14.0128ZM24 5.09091C26.7112 5.09091 28.9091 7.28878 28.9091 10C28.9091 12.7112 26.7112 14.9091 24 14.9091C21.2888 14.9091 19.0909 12.7112 19.0909 10C19.0909 7.28878 21.2888 5.09091 24 5.09091ZM32.1818 9.18182C32.6337 9.18182 33 9.54813 33 10C33 10.4017 32.7106 10.7357 32.3289 10.805L32.1818 10.8182L30.4947 10.8194C30.5282 10.551 30.5455 10.2775 30.5455 10C30.5455 9.72305 30.5283 9.45012 30.4949 9.18221L32.1818 9.18182ZM17.5051 9.18221C17.4717 9.45012 17.4545 9.72305 17.4545 10C17.4545 10.2775 17.4718 10.551 17.5053 10.8194L15.8182 10.8182C15.3663 10.8182 15 10.4519 15 10C15 9.59834 15.2894 9.26428 15.6711 9.195L15.8182 9.18182L17.5051 9.18221ZM18.6798 3.54137L18.7931 3.63604L19.9872 4.82847C19.5544 5.16484 19.1648 5.55436 18.8285 5.98724L17.636 4.79312C17.3165 4.4736 17.3165 3.95556 17.636 3.63604C17.9201 3.35202 18.3609 3.32046 18.6798 3.54137ZM30.364 3.63604C30.648 3.92006 30.6795 4.36093 30.4586 4.67981L30.364 4.79312L29.1715 5.98724C28.8352 5.55436 28.4456 5.16484 28.0128 4.82847L29.2069 3.63604C29.5264 3.31652 30.0444 3.31652 30.364 3.63604ZM24 1C24.4017 1 24.7357 1.28943 24.805 1.67111L24.8182 1.81818L24.8194 3.50534C24.551 3.47182 24.2775 3.45455 24 3.45455C23.7231 3.45455 23.4501 3.47175 23.1822 3.50514L23.1818 1.81818C23.1818 1.36631 23.5481 1 24 1Z" fill="#00FFFF"/>
<!-- <path fill-rule="evenodd" clip-rule="evenodd" d="M14 6L4 8.11109V32H14V6ZM30 19L24 20.0147V29L30 29V19Z" fill="#8FD3F4"/> -->
<path fill-rule="evenodd" clip-rule="evenodd" d="M2 7.65715L12.2857 5.17144V11.6159V12.5365V18.0603V18.981V30.6714L22 28.6675L23 24.6079V24.1714V21.5524V21.1159V19.2389L27.9286 18.0603V21.1159V21.5524V24.1714V24.6079V29.0603H27.9122L12.2857 31.5429V32.3714H2V18.981V18.0603V12.5365V11.6159V7.65715ZM11.4572 30.8038V18.981H2.82859V31.5429H5.5H6.7619V26.6635H9.52381L9.5 31.1714L11.4572 30.8038ZM8.90393 31.5429V27.248H7.34978V31.5429H8.90393ZM2.82859 12.5365V18.0603H11.4572V12.5365H2.82859ZM11.4572 11.6159H2.82859V8.48573L11.4572 6.4143V11.6159ZM6.68254 14.3778H4.84127V16.2191H6.68254V14.3778ZM6.22224 14.8381H5.30161V15.7587H6.22224V14.8381ZM7.60317 14.3778H9.44444V16.2191H7.60317V14.3778ZM8.06352 14.8381H8.98415V15.7587H8.06352V14.8381ZM23.3929 21.5524V24.1714H27.5357V21.5524H23.3929ZM27.5357 21.1159H23.3929V19.6318L27.5357 18.6496V21.1159ZM23.3929 28.6675V24.6079H27.5357V28.6675H26.6191V26.354H24.8126V28.6675H23.3929ZM26.3251 28.6675H25.0913V26.6311H26.3251V28.6675ZM25.373 22.5603H24.5V23.4333H25.373V22.5603ZM25.1548 22.7786H24.7183V23.2151H25.1548V22.7786ZM25.8095 22.5603H26.6826V23.4333H25.8095V22.5603ZM26.0278 22.7786H26.4643V23.2151H26.0278V22.7786Z" fill="white"/>
</svg>
