<?xml version="1.0" encoding="UTF-8"?>
<svg width="34px" height="34px" viewBox="0 0 34 34" version="1.1" xmlns="http://www.w3.org/2000/svg" xmlns:xlink="http://www.w3.org/1999/xlink">
    <g id="icon/map/dark/三角测量" stroke="none" stroke-width="1" fill="none" fill-rule="evenodd">
        <g id="icon" fill-rule="nonzero">
            <path d="M0,34 L0,0 L34,34 L0,34 Z M1,2.414 L1,5 L3,5 L3,6 L1,6 L1,7 L3,7 L3,8 L1,8 L1,9 L3,9 L3,10 L1,10 L1,11 L4,11 L4,12 L1,12 L1,13 L3,13 L3,14 L1,14 L1,15 L3,15 L3,16 L1,16 L1,17 L3,17 L3,18 L1,18 L1,19 L4,19 L4,20 L1,20 L1,21 L3,21 L3,22 L1,22 L1,23 L3,23 L3,24 L1,24 L1,25 L3,25 L3,26 L1,26 L1,27 L4,27 L4,28 L1,28 L1,29 L3,29 L3,30 L1,30 L1,33 L2,33 L2,31 L3,31 L3,33 L4,33 L4,31 L5,31 L5,33 L6,33 L6,31 L7,31 L7,33 L8,33 L8,30 L9,30 L9,33 L10,33 L10,31 L11,31 L11,33 L12,33 L12,31 L13,31 L13,33 L14,33 L14,31 L15,31 L15,33 L16,33 L16,30 L17,30 L17,33 L18,33 L18,31 L19,31 L19,33 L20,33 L20,31 L21,31 L21,33 L22,33 L22,31 L23,31 L23,33 L24,33 L24,30 L25,30 L25,33 L26,33 L26,31 L27,31 L27,33 L28,33 L28,31 L29,31 L29,33 L31.585,33 L1,2.414 Z M6,12 L22,28 L6,28 L6,12 Z M7,14.415 L7,27 L19.585,27 L7,14.415 Z" id="color_w" fill="#FFFFFF"></path>
            <path d="M32,23 C33.1045695,23 34,23.8954305 34,25 C34,26.1045695 33.1045695,27 32,27 C30.8954305,27 30,26.1045695 30,25 C30,23.8954305 30.8954305,23 32,23 Z M11.4454976,3.73809361 L30.2618047,22.5545749 C29.9884905,22.7491954 29.7491954,22.9884905 29.5545749,23.2618047 L10.7380936,4.44549756 C11.011484,4.25083986 11.2508399,4.011484 11.4454976,3.73809361 Z M9,0 C10.1045695,0 11,0.8954305 11,2 C11,3.1045695 10.1045695,4 9,4 C7.8954305,4 7,3.1045695 7,2 C7,0.8954305 7.8954305,0 9,0 Z" id="color_g" fill="#00FFFF"></path>
        </g>
    </g>
</svg>