<?xml version="1.0" encoding="UTF-8"?>
<svg width="34px" height="34px" viewBox="0 0 34 34" version="1.1" xmlns="http://www.w3.org/2000/svg" xmlns:xlink="http://www.w3.org/1999/xlink">
    <g id="icon/map/dark/地形分析" stroke="none" stroke-width="1" fill="none" fill-rule="evenodd">
        <g id="icon" fill-rule="nonzero">
            <path d="M30,0 C32.209139,0 34,1.790861 34,4 L34,30 C34,32.209139 32.209139,34 30,34 L4,34 C1.790861,34 0,32.209139 0,30 L0,4 C0,1.790861 1.790861,0 4,0 L30,0 Z M15.2497099,1.00095802 L4,1 C2.40231912,1 1.09633912,2.24891996 1.00509269,3.82372721 L1,4 L1,19.444 L1.31780442,19.8397048 L2.18756927,20.9054471 L2.99965442,21.8848111 L3.75398539,22.7777291 L4.45048764,23.5841328 L4.88265862,24.0736382 L5.669708,24.9371254 L6.02454223,25.3110668 L6.35355339,25.6464466 L6.53736699,25.8227259 L6.75170743,26.0144658 L6.996548,26.2216429 L7.27186199,26.4442342 L7.57762268,26.6822163 L7.91380335,26.9355661 L8.2803773,27.2042603 L8.88716718,27.6360216 L9.56219166,28.1021771 L10.5682112,28.7770845 L11.4020992,29.3231885 L12.3039212,29.9034254 L13.61187,30.7300348 L14.6718543,31.3896104 L15.7994721,32.0830577 L17.3105656,32.999 L15.3815656,32.999 L14.4871937,32.451053 L12.6999478,31.3386158 L11.4068753,30.516837 L10.5166865,29.9401473 L9.6946394,29.3973515 L8.94064388,28.8883711 L8.25460976,28.4131278 L7.8349655,28.115003 L7.26200005,27.6958138 L6.7567556,27.3101527 L6.45750421,27.0716332 L6.06492773,26.7416779 L5.73983181,26.4450415 L5.30985777,26.0105332 L4.947892,25.6292746 L4.56052723,25.2097576 L4.14774138,24.7519618 L3.48084977,23.9934516 L2.75663654,23.1487009 L2.24194558,22.5375889 L1.70172315,21.8880973 L1,21.032 L1,30 C1,31.5976809 2.24891996,32.9036609 3.82372721,32.9949073 L4,33 L30,33 C31.5976809,33 32.9036609,31.75108 32.9949073,30.1762728 L33,30 L33,4 C33,2.40231912 31.75108,1.09633912 30.1762728,1.00509269 L30,1 L18.023,1 L19.2313111,1.47984923 C20.8558691,2.13104906 22.5110829,2.81790886 24.1969596,3.54042748 C27.2306198,4.84056755 30.1651025,6.279926 33.0003394,7.85849298 L32.999068,9.00652938 L32.6832704,8.8267414 C29.8257448,7.22785714 26.8656924,5.77213766 23.8030404,4.45957252 C20.8570978,3.19702572 18.0059749,2.0441563 15.2497099,1.00095802 Z M13.5652797,10.687236 C14.2508734,10.4643786 14.9885589,10.458663 15.6775234,10.6708703 C16.5461976,10.9384298 17.3801865,11.225903 18.1794895,11.5333272 C19.3905506,11.9991199 20.5720161,12.5299566 21.7238096,13.125804 C23.4239529,14.005325 24.3816308,15.864118 24.1109264,17.7590489 L24.1109264,17.7590489 L23.9949747,18.5707107 C23.6509371,20.9789739 21.4197565,22.6523594 19.0114933,22.3083218 C18.9180835,22.2949775 18.8250315,22.2786216 18.7323112,22.259254 C16.5853416,21.8100303 14.8736197,20.8293686 13.6158894,19.3200922 C12.6965818,18.2169231 11.979883,16.9521779 11.4636268,15.5208914 L11.4636268,15.5208914 L11.3186903,15.0977754 C10.721132,13.25946 11.7269644,11.2847943 13.5652797,10.687236 Z M15.1971263,11.5770184 C14.7598953,11.4784316 14.3029114,11.4989681 13.8744153,11.638254 C12.5613327,12.0650814 11.8428809,13.4755572 12.2671947,14.7811108 L12.2671947,14.7811108 L12.4069546,15.1891261 C12.881574,16.5048026 13.5404605,17.6675276 14.3841106,18.6799078 C15.4925757,20.0100659 17.003995,20.8759723 18.9369464,21.2804157 C19.0086359,21.2953904 19.0806616,21.3080504 19.1529147,21.3183723 C21.0144439,21.584305 22.7390925,20.2908185 23.0050253,18.4292893 L23.0050253,18.4292893 L23.1209769,17.6176276 C23.3315248,16.1437924 22.5866642,14.6980645 21.2643305,14.0139926 C20.1451867,13.4350356 18.9972723,12.9192735 17.8205105,12.4666728 C17.0428182,12.1675604 16.2303686,11.8875117 15.3831611,11.6265642 L15.3831611,11.6265642 Z" id="color_w" fill="#FFFFFF"></path>
            <path d="M7.06108559,4.27113488 L7.76388582,4.2830664 C11.2533837,4.3646735 14.3753379,4.77555591 17.1299867,5.51719212 C20.8748464,6.52542356 24.1159807,8.12855669 26.8534494,10.3305701 L26.8534494,10.3305701 L27.2765533,10.6792165 C28.0699986,11.34878 28.6075182,12.2721014 28.7980053,13.2926823 C29.3539576,16.2713328 29.2491325,19.2179847 28.4835373,22.1272466 L28.4835373,22.1272466 L28.0118964,23.9339393 L27.4500995,26.1330587 C26.8433076,28.5431319 24.3976552,30.0049802 21.987582,29.3981883 C21.8661718,29.3676205 21.7460902,29.3319992 21.6276505,29.2914173 C16.4958079,27.5330561 12.4864795,24.8742496 9.61102941,21.3141686 C7.29469684,18.4463282 5.21251062,15.1873705 3.36263338,11.534868 L3.36263338,11.534868 L2.97192695,10.7504406 C1.87864522,8.51854514 2.80167407,5.8229564 5.03356957,4.72967468 C5.66435942,4.42068575 6.35872246,4.2636497 7.06108559,4.27113488 L7.06108559,4.27113488 Z M7.05042907,5.2710781 L6.816815,5.27638888 C6.35085285,5.30256514 5.89399876,5.42172754 5.4734722,5.62772015 C3.73755352,6.47805036 3.01964221,8.57461933 3.86850394,10.3075652 L3.86850394,10.3075652 L4.25624055,11.0860306 C6.07366547,14.674433 8.11802083,17.8741794 10.3889706,20.6858314 C13.1401596,24.0920655 16.9906443,26.6455339 21.9517888,28.3454076 C22.0439086,28.3769713 22.1373055,28.4046768 22.2317357,28.4284518 C24.1062382,28.9004013 26.0084134,27.7634075 26.4804716,25.8884743 L26.4804716,25.8884743 L26.8956966,24.2574365 L27.5164627,21.8727534 C28.2443491,19.1067852 28.3438528,16.3097178 27.8149813,13.4761595 C27.6668247,12.6823742 27.2487537,11.9642351 26.6361491,11.447232 L26.6361491,11.447232 L26.2221199,11.1060625 C23.6002547,8.99708275 20.4843842,7.45590776 16.8700133,6.48280788 C14.0179938,5.71495649 10.7447027,5.31044844 7.05042907,5.2710781 L7.05042907,5.2710781 Z M16.0276354,13.4404152 L19.7021374,15.0152018 C20.6995224,15.4426525 21.1615455,16.5977101 20.7340948,17.5950951 C20.672463,17.7389026 20.5938747,17.8748337 20.5,18 L20.0816654,18.5577795 C19.4748107,19.366919 18.341556,19.5610373 17.5,19 C16.5098049,18.3398699 15.6601301,17.4901951 15,16.5 L14.6201737,15.9302605 C14.2366739,15.3550108 14.1908126,14.6183748 14.5,14 C14.7807686,13.4384628 15.4505799,13.1931057 16.0276354,13.4404152 Z M15.3944272,14.4472136 C15.2643132,14.7074417 15.2649361,15.0112162 15.3906864,15.2684361 L15.452224,15.3755603 L15.8320503,15.9452998 C16.4189455,16.8256427 17.1743573,17.5810545 18.0547002,18.1679497 C18.4213291,18.412369 18.9044484,18.3552159 19.2045748,18.0477896 L19.2816654,17.9577795 L19.7,17.4 C19.7460962,17.3385384 19.7846861,17.2717909 19.8149497,17.2011758 C20.0098523,16.7464031 19.8281552,16.2248724 19.4090786,15.9846345 L19.3082181,15.9343468 L15.6337161,14.3595602 C15.5433261,14.3208216 15.4384068,14.3592544 15.3944272,14.4472136 Z" id="color_g" fill="#00FFFF"></path>
        </g>
    </g>
</svg>