<svg width="46" height="46" viewBox="0 0 46 46" fill="none" xmlns="http://www.w3.org/2000/svg">
<rect x="6.27739" y="11.9873" width="37.9352" height="26.0127" rx="2" fill="#8FD3F4"/>
<path d="M20.6207 14.2069H6.13792V16.4936H12.2359V30.9764H14.5227V16.4936H20.6207V14.2069Z" fill="#00FFFF"/>
<path d="M15.4482 19.3793H28.5647V21.0907H23.042V31.9293H20.971V21.0907H15.4482V19.3793Z" fill="white"/>
<path fill-rule="evenodd" clip-rule="evenodd" d="M5.86616 8H36.6237C38.7501 8 40.4899 9.45136 40.4899 11.2252V32.2825C40.4899 34.0564 38.7501 35.5077 36.6237 35.5077H5.86616C3.73976 35.5077 1.99998 34.0564 1.99998 32.2825V11.2252C1.99998 9.45136 3.73976 8 5.86616 8ZM37.8351 10.2147C37.5086 9.94231 37.0791 9.7918 36.6237 9.7918H5.86616C5.41081 9.7918 4.98123 9.94231 4.65476 10.2147C4.32828 10.487 4.14786 10.8454 4.14786 11.2252V32.2825C4.14786 32.6623 4.32828 33.0207 4.65476 33.2931C4.98123 33.5654 5.41081 33.7159 5.86616 33.7159H36.6237C37.0791 33.7159 37.5086 33.5654 37.8351 33.2931C38.1616 33.0207 38.342 32.6623 38.342 32.2825V11.2252C38.342 10.8454 38.1616 10.487 37.8351 10.2147Z" fill="white"/>
</svg>
