<?xml version="1.0" encoding="UTF-8"?>
<svg width="16px" height="16px" viewBox="0 0 16 16" version="1.1" xmlns="http://www.w3.org/2000/svg" xmlns:xlink="http://www.w3.org/1999/xlink">
    <g id="icon/map/dark/sideToolBar/toolbar/三维视图" stroke="none" stroke-width="1" fill="none" fill-rule="evenodd">
        <g id="icon" transform="translate(1.000000, 1.000000)">
            <path d="M2.38836027,5.91718439 C2.99362586,5.91718439 3.41099307,5.84658737 3.64101617,5.70430722 C3.87159353,5.56311318 3.98688222,5.23402247 3.98688222,4.71812117 L3.98688222,2.93907629 C3.98688222,2.65560211 3.89819861,2.42317499 3.72083141,2.24288107 C3.54290993,2.06258714 3.30235565,1.97244018 3.00027713,1.97244018 C2.64443417,1.97244018 2.39113164,2.0821371 2.23981524,2.30098785 C2.08849885,2.52038166 2.01311778,2.73325882 2.01311778,2.93907629 L2.01311778,4.06102583 L0,4.06102583 L0,2.9200694 C0,2.51983861 0.0787067054,2.13970081 0.236674369,1.77911296 C0.386639088,1.42917996 0.608301007,1.11312035 0.887944581,0.85049063 C1.16993592,0.589360996 1.49754936,0.380032571 1.85515012,0.23249519 C2.22959223,0.0764501196 2.63273286,-0.00265698335 3.03963049,0 C3.59224018,0 4.04951501,0.106506664 4.41090069,0.319383829 C4.77284064,0.531717945 5.046097,0.747853426 5.23011548,0.96670419 C5.36147806,1.12147457 5.47676674,1.27624497 5.57542726,1.43101536 C5.67408776,1.58578574 5.75667437,1.77259631 5.82207853,1.99199013 C5.94069285,2.41720141 5.99944573,3.04877319 5.99944573,3.88724855 C5.99944573,4.3635069 5.9900231,4.7507044 5.97006928,5.04721188 C5.95066974,5.34371936 5.90133948,5.58863671 5.82207853,5.78196393 C5.7300693,5.98832445 5.60203234,6.16210173 5.43741339,6.30383882 C5.27279446,6.4455759 5.046097,6.60034629 4.75621247,6.76814998 C5.07214781,6.9614772 5.31214781,7.14177113 5.47676674,7.30957481 C5.64138568,7.47683544 5.76277136,7.67016266 5.84203234,7.88955647 C5.92073903,8.12144053 5.96674365,8.39568279 5.98060046,8.71119718 C5.99334873,9.02725461 6,9.43020066 6,9.92003536 C6,10.3707702 5.99002309,10.7449344 5.97006928,11.0414418 C5.95066974,11.3379493 5.92073903,11.5828667 5.88138569,11.7761939 C5.84203234,11.9825544 5.78937646,12.1563317 5.72341801,12.2986118 C5.46167433,12.853304 5.03963917,13.3206078 4.5095612,13.6426705 C4.12157044,13.8805281 3.61163973,14 2.97976906,14 C2.664388,14 2.32905313,13.9484099 1.97376443,13.8452296 C1.62015751,13.7429669 1.29120871,13.5719404 1.00655889,13.3423616 C0.717228644,13.1104776 0.477228633,12.8074534 0.28600462,12.4338323 C0.0953348728,12.0596681 0,11.6024166 0,11.0609918 L0,9.93904225 L2.01311778,9.93904225 L2.01311778,10.9643282 C2.01311778,11.273869 2.10180139,11.5280182 2.27916859,11.7278621 C2.45709007,11.927706 2.69709008,12.0276279 2.99972287,12.0276279 C3.30235565,12.0276279 3.54290993,11.927706 3.72027714,11.7278621 C3.89764435,11.5280182 3.98632795,11.2608357 3.98632795,10.9252283 L3.98632795,8.9528562 C3.98632795,8.41143137 3.88101616,8.05681712 3.67094689,7.88955647 C3.55233256,7.78637621 3.39159354,7.7217528 3.18762125,7.69622925 C2.92226249,7.66730046 2.65533609,7.65442377 2.38836027,7.65767243 L2.38836027,5.91718439 Z" id="color_w" fill="#FFFFFF"></path>
            <path d="M10.3419845,0.0755040447 C11.5405924,0.0755040447 12.4508559,0.41284752 13.0699481,1.08753445 C13.690925,1.76127909 14,2.71582918 14,3.95212704 L14,3.95212704 L14,9.89157118 C14,11.2965407 13.6692521,12.3321287 13.0096409,12.9992772 C12.348145,13.6664257 11.3983048,14 10.159178,14 L10.159178,14 L7.25688853,14 L7.25688853,0.0755040447 Z M10.3024078,2.09862255 L9.34126003,2.09862255 L9.34126003,11.9768815 L10.3014656,11.9768815 C10.886635,11.9768815 11.3031323,11.8261135 11.5481308,11.5245774 C11.7931293,11.222099 11.9156285,10.7481221 11.9156285,10.1026464 L11.9156285,10.1026464 L11.9156285,3.95212704 C11.9156285,3.3622471 11.8006677,2.90617383 11.5688614,2.58296485 C11.3370552,2.25975588 10.914904,2.09862255 10.3024078,2.09862255 L10.3024078,2.09862255 Z" id="color_g" fill="#00FFFF" fill-rule="nonzero"></path>
        </g>
    </g>
</svg>