<svg width="46" height="46" viewBox="0 0 46 46" fill="none" xmlns="http://www.w3.org/2000/svg">
<path fill-rule="evenodd" clip-rule="evenodd" d="M28.4309 6.9162L29.2307 5.46098H29.2291L23.335 2L23.3126 2.07391L23.2964 2.00336V2.00168L17.5581 5.30152L18.3579 6.75674L23.2608 3.81746L28.4309 6.9162ZM37.5894 10.4707L37.5901 10.4695V10.4712L37.5894 10.4707ZM36.7919 11.9264L37.5894 10.4707L32.0172 7.13104L31.219 8.58626L36.7919 11.9264ZM40.9242 18.521H42.5303V13.4303L42.1272 13.1886L40.9242 14.6438V18.521ZM36.5398 34.7635L37.4151 36.17L42.5303 32.6956L41.655 31.289L36.5398 34.7635ZM28.0953 40.5491L28.9705 41.9573V41.9556L34.3572 38.2966L33.4819 36.8901L28.0953 40.5491ZM12.801 36.7071L11.9274 38.1136V38.1153L17.3188 41.766L18.1925 40.3577L12.801 36.7071ZM9.73995 34.5855L4.87368 31.289V31.2874L4 32.6973L8.86627 35.9938L9.73995 34.5855ZM5.60603 21.5658H4V28.2796H5.60603V21.5658ZM5.60603 18.2088V14.6455V14.6438L4.40151 13.1886L4 13.4303V18.2088H5.60603ZM14.7727 6.97357L14.7716 6.97158L14.7732 6.97326L14.7727 6.97357ZM15.5714 8.42848L14.7727 6.97357L9.20033 10.3134L9.99852 11.7686L15.5714 8.42848ZM22.5774 7.3729C23.0056 7.13737 23.5246 7.13737 23.9529 7.3729L35.36 13.6468C36.3247 14.1774 36.3506 15.5544 35.4065 16.1209L23.9993 22.9652C23.5474 23.2363 22.9828 23.2363 22.5309 22.9652L11.1238 16.1209C10.1797 15.5544 10.2055 14.1774 11.1703 13.6468L22.5774 7.3729ZM8.28114 18.7909C8.28114 17.6817 9.49124 16.9965 10.4424 17.5672L21.8588 24.417C22.2886 24.6749 22.5516 25.1395 22.5516 25.6407V38.0098C22.5516 39.1191 21.3415 39.8042 20.3904 39.2335L8.97398 32.3837C8.54414 32.1258 8.28114 31.6613 8.28114 31.16V18.7909ZM38.2491 18.7909C38.2491 17.6817 37.039 16.9965 36.0879 17.5672L24.6715 24.417C24.2417 24.6749 23.9787 25.1395 23.9787 25.6407V38.0098C23.9787 39.1191 25.1887 39.8042 26.1399 39.2335L37.5563 32.3837C37.9861 32.1258 38.2491 31.6613 38.2491 31.16V18.7909Z" fill="white"/>
<path fill-rule="evenodd" clip-rule="evenodd" d="M8.28114 11.9893C8.28114 12.7775 7.64223 13.4164 6.85409 13.4164C6.06596 13.4164 5.42705 12.7775 5.42705 11.9893C5.42705 11.2012 6.06596 10.5623 6.85409 10.5623C7.64223 10.5623 8.28114 11.2012 8.28114 11.9893ZM25.4057 42.6708C25.4057 43.853 24.4474 44.8114 23.2651 44.8114C22.0829 44.8114 21.1246 43.853 21.1246 42.6708C21.1246 41.4886 22.0829 40.5303 23.2651 40.5303C24.4474 40.5303 25.4057 41.4886 25.4057 42.6708ZM42.8065 21.9787H41.1032V28.9244H42.8065V21.9787Z" fill="#00FFFF"/>
</svg>
