<svg width="16" height="16" viewBox="0 0 16 16" fill="none" xmlns="http://www.w3.org/2000/svg">
<path d="M14 3.256H1.632C1.288 3.256 1 2.976 1 2.624C1 2.272 1.28 2 1.632 2H14C14.344 2 14.632 2.28 14.632 2.632C14.632 2.984 14.352 3.256 14 3.256Z" fill="#1DB28E"/>
<path d="M8.67996 4.28814C8.65697 4.26516 8.63282 4.24342 8.60769 4.22281C8.59654 4.21365 8.58473 4.20568 8.57328 4.19708C8.55911 4.18643 8.54519 4.17545 8.53041 4.16555C8.5166 4.15631 8.50221 4.14828 8.48801 4.13979C8.47468 4.13183 8.46161 4.12347 8.44788 4.11611C8.43338 4.10836 8.41844 4.10177 8.40362 4.0948C8.38934 4.08805 8.37532 4.08095 8.3607 4.07488C8.34627 4.0689 8.33157 4.0641 8.31694 4.05887C8.30131 4.05321 8.28586 4.04723 8.26987 4.0424C8.25521 4.03797 8.24031 4.03473 8.22553 4.031C8.20922 4.02688 8.19317 4.02234 8.17657 4.01903C8.15947 4.01565 8.14218 4.01364 8.12493 4.01116C8.11044 4.00908 8.09616 4.00633 8.08145 4.00488C8.04927 4.00173 8.017 4.00002 7.9847 4C7.98002 4 7.97508 4.00059 7.97041 4.00066C7.71406 3.99704 7.45658 4.09245 7.261 4.28803L2.28801 9.26098C1.904 9.64502 1.904 10.2676 2.28801 10.6517C2.48002 10.8437 2.73171 10.9397 2.98336 10.9397C3.23501 10.9397 3.4867 10.8437 3.67871 10.6517L7.00112 7.32926V14.1989C7.00112 14.742 7.44138 15.1822 7.98446 15.1822C8.52757 15.1822 8.96783 14.742 8.96783 14.1989V7.35739L12.2622 10.6517C12.4542 10.8437 12.7058 10.9397 12.9575 10.9397C13.2091 10.9397 13.4608 10.8437 13.6528 10.6517C14.0369 10.2676 14.0369 9.64502 13.6528 9.26098L8.67996 4.28814Z" fill="#467CF3"/>
</svg>
