<?xml version="1.0" encoding="UTF-8"?>
<svg width="16px" height="16px" viewBox="0 0 16 16" version="1.1" xmlns="http://www.w3.org/2000/svg" xmlns:xlink="http://www.w3.org/1999/xlink">
    <title>icon/base/trash2</title>
    <g id="icon/base/trash2" stroke="none" stroke-width="1" fill="none" fill-rule="evenodd">
        <g id="形状结合-2" transform="translate(3.000000, 1.000000)" fill="#FF5E67" fill-rule="nonzero">
            <path d="M8.95843853,4.37496449 C9.41649234,4.37496449 9.75792878,4.76719703 9.71645147,5.24653625 L9.71645147,5.24653625 L9.03369881,13.1284282 C8.99258217,13.6077675 8.58321912,14 8.12504508,14 L8.12504508,14 L1.87507514,14 C1.4169011,14 1.00753805,13.6078937 0.96642141,13.1284282 L0.96642141,13.1284282 L0.283668759,5.24653625 C0.242191445,4.76719703 0.583507658,4.37496449 1.04168169,4.37496449 L1.04168169,4.37496449 Z M8.33339345,6.12505129 L6.66672678,6.12505129 L6.66672678,12.2500395 L7.91669672,12.2500395 L8.33339345,6.12505129 Z M5.83333333,6.12505129 L4.16678689,6.12505129 L4.16678689,12.2500395 L5.83333333,12.2500395 L5.83333333,6.12505129 Z M3.33339345,6.12505129 L1.66672678,6.12505129 L2.08330328,12.2500395 L3.33339345,12.2500395 L3.33339345,6.12505129 Z M6.66666667,1.42108547e-14 C7.01050759,1.42108547e-14 7.33042391,0.292249219 7.37803265,0.649765326 L7.37803265,0.649765326 L7.5244656,1.74996055 L8.75003006,1.74996055 C9.44047705,1.74996055 10,2.33748878 10,3.06249408 L10,3.06249408 L10,3.50004734 L0,3.50004734 L0,3.06249408 C0,2.33748878 0.559522951,1.74996055 1.24996994,1.74996055 L1.24996994,1.74996055 L2.47529395,1.74996055 L2.6217269,0.650270292 C2.66969631,0.292249219 2.98961264,1.42108547e-14 3.33333333,1.42108547e-14 L3.33333333,1.42108547e-14 Z M6.56664022,0.874980275 L3.43348001,0.874980275 L3.31698286,1.74996055 L6.68313737,1.74996055 L6.56664022,0.874980275 Z" id="形状结合"></path>
        </g>
    </g>
</svg>