<?xml version="1.0" encoding="UTF-8"?>
<svg width="16px" height="16px" viewBox="0 0 16 16" version="1.1" xmlns="http://www.w3.org/2000/svg" xmlns:xlink="http://www.w3.org/1999/xlink">
    <g id="icon/map/dark/sideToolBar/toolbar/二维视图" stroke="none" stroke-width="1" fill="none" fill-rule="evenodd">
        <g id="icon" transform="translate(1.000000, 1.000000)">
            <path d="M9.47223141e-05,13.544869 L5.98748019,13.544869 L5.98748019,11.4670971 L2.36338757,11.4670971 L5.31750363,6.65935548 C5.45131049,6.39833832 5.57569432,6.13355197 5.69159742,5.86499642 C5.78394298,5.64826738 5.84990411,5.43059604 5.88948079,5.21292469 C5.92811515,4.99619566 5.95544192,4.7691013 5.96769185,4.53069935 C5.98088407,4.2932397 5.98653788,3.99829973 5.98653788,3.64493716 C5.98653788,3.15682567 5.93188437,2.69509857 5.82069277,2.25975588 C5.71743278,1.84512474 5.54027413,1.45250353 5.29771529,1.10072665 C5.05200712,0.764065972 4.73217995,0.488408951 4.36295192,0.295059982 C3.98791582,0.0990615569 3.53843787,5.86623105e-05 3.01357579,5.86623105e-05 C2.60581918,-0.00258667185 2.20244081,0.0842649841 1.83192937,0.254541088 C1.47668161,0.414732113 1.15535669,0.647480268 0.886800683,0.936766412 C0.312047105,1.53220324 -0.00630740308,2.32927229 9.47223141e-05,3.15682567 L9.47223141e-05,4.29700891 L2.0090821,4.29700891 L2.0090821,3.11630675 C2.0090821,2.77707868 2.09765847,2.51794614 2.2748112,2.341736 C2.45196392,2.16552585 2.69130859,2.07789194 2.99378746,2.07789196 C3.24255512,2.07789196 3.43384238,2.12783386 3.56482233,2.23054459 C3.69297538,2.32760152 3.79474397,2.45669663 3.86070508,2.60746465 C3.92855081,2.77048258 3.96530058,2.94669272 3.96812748,3.12572976 C3.9747236,3.3236128 3.97849279,3.51018824 3.97849279,3.68639838 C3.97849279,4.08027987 3.96530058,4.40820034 3.93891612,4.67392897 C3.91253166,4.93871532 3.80793617,5.24684748 3.62418734,5.60021007 L9.47223141e-05,11.5895961 L9.47223141e-05,13.544869 Z" id="color_w" fill="#FFFFFF"></path>
            <path d="M10.3419845,0.0755040447 C11.5405924,0.0755040447 12.4508559,0.41284752 13.0699481,1.08753445 C13.690925,1.76127909 14,2.71582918 14,3.95212704 L14,3.95212704 L14,9.89157118 C14,11.2965407 13.6692521,12.3321287 13.0096409,12.9992772 C12.348145,13.6664257 11.3983048,14 10.159178,14 L10.159178,14 L7.25688853,14 L7.25688853,0.0755040447 Z M10.3024078,2.09862255 L9.34126003,2.09862255 L9.34126003,11.9768815 L10.3014656,11.9768815 C10.886635,11.9768815 11.3031323,11.8261135 11.5481308,11.5245774 C11.7931293,11.222099 11.9156285,10.7481221 11.9156285,10.1026464 L11.9156285,10.1026464 L11.9156285,3.95212704 C11.9156285,3.3622471 11.8006677,2.90617383 11.5688614,2.58296485 C11.3370552,2.25975588 10.914904,2.09862255 10.3024078,2.09862255 L10.3024078,2.09862255 Z" id="color_g" fill="#00FFFF" fill-rule="nonzero"></path>
        </g>
    </g>
</svg>