<?xml version="1.0" encoding="iso-8859-1"?>
<!-- Generator: Adobe Illustrator 23.0.2, SVG Export Plug-In . SVG Version: 6.00 Build 0)  -->
<svg version="1.1" id="&#x56FE;&#x5C42;_1" xmlns="http://www.w3.org/2000/svg" xmlns:xlink="http://www.w3.org/1999/xlink"
  x="0px" y="0px" viewBox="0 0 16 16" style="enable-background:new 0 0 16 16;" xml:space="preserve">
  <path id="color_w"
    d="M2.6,5.6c-0.552,0-1,0.448-1,1v7.6c0,0.552,0.448,1,1,1h1.6c-0.552,0-1-0.448-1-1
	v-6c0-0.552,0.448-1,1-1h7.6c0.552,0,1,0.448,1,1v6c0,0.552-0.448,1-1,1h1.6c0.552,0,1-0.448,1-1V6.6c0-0.552-0.448-1-1-1H2.6z" />
  <path id="color_g" d="M4.267,4c0.108,0,0.21-0.021,0.304-0.06
			C4.62,4.721,4.4,5.6,4.4,5.6h0.8c0,0-0.188-0.942-0.177-1.663C5.118,3.978,5.223,4,5.333,4c0.442,0,0.8-0.358,0.8-0.8
			c0-0.064-0.007-0.126-0.021-0.185C6.288,2.868,6.4,2.647,6.4,2.4c0-0.442-0.358-0.8-0.8-0.8c0-0.442-0.358-0.8-0.8-0.8
			S4,1.158,4,1.6c-0.442,0-0.8,0.358-0.8,0.8c0,0.247,0.112,0.468,0.288,0.615C3.474,3.074,3.467,3.136,3.467,3.2
			C3.467,3.642,3.825,4,4.267,4z M4.8,2.4c0,0.064,0.007,0.126,0.021,0.185L4.8,2.604C4.793,2.597,4.786,2.591,4.778,2.585
			C4.793,2.526,4.8,2.464,4.8,2.4z M6.933,4.4c0,0.221,0.179,0.4,0.4,0.4c0.054,0,0.105-0.011,0.152-0.03C7.51,5.16,7.4,5.6,7.4,5.6
			h0.4c0,0-0.094-0.471-0.089-0.831C7.759,4.789,7.812,4.8,7.867,4.8c0.221,0,0.4-0.179,0.4-0.4c0-0.032-0.004-0.063-0.011-0.093
			C8.344,4.234,8.4,4.124,8.4,4c0-0.221-0.179-0.4-0.4-0.4c0-0.221-0.179-0.4-0.4-0.4c-0.221,0-0.4,0.179-0.4,0.4
			C6.979,3.6,6.8,3.779,6.8,4c0,0.124,0.056,0.234,0.144,0.307C6.937,4.337,6.933,4.368,6.933,4.4z M7.6,4
			c0,0.032,0.004,0.063,0.011,0.093L7.6,4.102C7.596,4.099,7.593,4.096,7.589,4.093C7.596,4.063,7.6,4.032,7.6,4z M12.4,2.918V2H12
			v0.571L10.878,1.6L8.8,3.4h0.478v2.2h1.2V4h0.8v1.6h1.2V3.4h0.478L12.4,2.918z M7.694,11.576c0.04,0.04,0.087,0.072,0.141,0.095
			c0.054,0.024,0.111,0.036,0.172,0.036c0.061,0,0.118-0.012,0.172-0.036c0.054-0.024,0.101-0.055,0.141-0.095
			s0.072-0.087,0.095-0.141s0.036-0.111,0.036-0.172c0-0.061-0.012-0.118-0.036-0.172c-0.024-0.054-0.055-0.101-0.095-0.141
			s-0.087-0.071-0.141-0.095c-0.054-0.024-0.111-0.035-0.172-0.035c-0.061,0-0.118,0.012-0.172,0.035
			c-0.054,0.024-0.101,0.055-0.141,0.095s-0.071,0.087-0.094,0.141c-0.023,0.054-0.034,0.111-0.034,0.172
			c0,0.061,0.011,0.118,0.034,0.172C7.623,11.489,7.655,11.536,7.694,11.576z M8.851,12.42H8.681c-0.023,0-0.041-0.003-0.055-0.008
			c-0.014-0.006-0.027-0.014-0.04-0.026c-0.012-0.011-0.026-0.025-0.04-0.04c-0.014-0.015-0.032-0.032-0.053-0.051
			c-0.026-0.023-0.054-0.056-0.081-0.101c-0.027-0.045-0.054-0.09-0.078-0.135c-0.028-0.053-0.056-0.11-0.082-0.171
			c-0.04,0.002-0.077,0.004-0.111,0.006c-0.03,0.002-0.061,0.003-0.092,0.004C8.017,11.899,7.991,11.9,7.97,11.9
			c-0.021,0-0.045,0-0.071-0.001c-0.027-0.001-0.052-0.002-0.077-0.004l-0.088-0.006c-0.051,0.032-0.1,0.062-0.148,0.088
			c-0.04,0.025-0.08,0.048-0.119,0.071c-0.04,0.023-0.07,0.042-0.091,0.057c-0.051,0.038-0.093,0.082-0.126,0.132
			c-0.033,0.05-0.05,0.101-0.05,0.152v0.281c0,0.032,0.018,0.057,0.055,0.074c0.037,0.017,0.078,0.025,0.122,0.025
			c0.044,0,0.085-0.008,0.122-0.024c0.037-0.016,0.055-0.042,0.055-0.078v-0.119c0-0.028,0.008-0.05,0.026-0.064
			c0.017-0.014,0.034-0.026,0.051-0.036c0.019-0.009,0.041-0.005,0.065,0.013c0.025,0.018,0.037,0.049,0.037,0.092v0.75
			c0,0.046-0.015,0.087-0.045,0.125c-0.03,0.038-0.067,0.073-0.111,0.105c-0.038,0.026-0.07,0.053-0.097,0.08l-0.094,0.094
			c-0.011,0.011-0.016,0.029-0.013,0.052c0.003,0.024,0.011,0.049,0.024,0.075s0.03,0.053,0.05,0.08
			c0.02,0.027,0.042,0.047,0.067,0.063C7.54,13.992,7.565,14,7.591,14s0.05-0.012,0.072-0.037l0.138-0.145
			c0.016-0.017,0.033-0.033,0.05-0.048c0.017-0.015,0.038-0.036,0.063-0.063c0.049-0.049,0.091-0.112,0.127-0.189
			c0.035-0.077,0.053-0.153,0.053-0.229v-0.23c0.023,0.028,0.042,0.051,0.058,0.068c0.016,0.017,0.035,0.046,0.055,0.085
			c0.008,0.015,0.015,0.035,0.023,0.06c0.008,0.025,0.015,0.05,0.021,0.077c0.007,0.026,0.012,0.053,0.016,0.08
			c0.004,0.026,0.006,0.049,0.006,0.068v0.236c0,0.036,0.018,0.063,0.055,0.081c0.037,0.018,0.078,0.027,0.122,0.026
			c0.044-0.001,0.085-0.011,0.122-0.031c0.037-0.02,0.055-0.05,0.055-0.09v-0.207c0-0.074-0.011-0.139-0.034-0.196
			c-0.023-0.057-0.048-0.117-0.077-0.182c-0.038-0.087-0.066-0.157-0.084-0.21c-0.018-0.053-0.032-0.09-0.041-0.111
			c-0.019-0.044-0.028-0.082-0.028-0.117v-0.091c0.021,0.013,0.038,0.026,0.053,0.037s0.034,0.032,0.058,0.063
			c0.025,0.028,0.05,0.047,0.075,0.055s0.066,0.013,0.121,0.013h0.185c0.045,0,0.079-0.018,0.101-0.055
			c0.022-0.037,0.032-0.077,0.031-0.121c-0.001-0.044-0.013-0.084-0.036-0.121C8.928,12.438,8.895,12.42,8.851,12.42z M3.549,14.65
			h8.902L8,7.528L3.549,14.65z M9.35,14.15h-2.7V12c0-0.746,0.604-1.35,1.35-1.35c0.746,0,1.35,0.604,1.35,1.35V14.15z M9.85,14.15
			V12c0-1.022-0.828-1.85-1.85-1.85S6.15,10.978,6.15,12v2.15H4.451L8,8.472l3.549,5.678H9.85z" />
</svg>