<svg width="16" height="16" viewBox="0 0 16 16" fill="none" xmlns="http://www.w3.org/2000/svg">
<path fill-rule="evenodd" clip-rule="evenodd" d="M8.37341 2.41568C7.17184 2.41568 6.19344 3.39464 6.19344 4.59686H6.19343H6.19334V6.86808L6.2332 6.86808V6.86976H10.5917V6.86808L10.5518 6.86808V4.59686C10.5518 3.39464 9.57525 2.41568 8.37341 2.41568ZM11.909 6.86798V4.53911C11.909 2.58734 10.3236 1 8.37284 1C6.4221 1 4.83456 2.58734 4.83456 4.53911V6.86808L4.87442 6.86808V6.86976H3.87363C3.39119 6.86976 3 7.26104 3 7.74395V14.125C3 14.6088 3.3911 15 3.87363 15H12.9512C13.434 15 13.8239 14.6088 13.8239 14.125V7.74385C13.8237 7.26095 13.4332 6.86966 12.9503 6.86966H11.9487V6.86798L11.909 6.86798ZM8.90307 12.4942V11.1006C9.25592 10.9201 9.50045 10.5582 9.49961 10.1342C9.49961 9.53385 9.0126 9.04563 8.41177 9.04563C7.81187 9.04563 7.32477 9.53385 7.32477 10.1342C7.32477 10.5582 7.56921 10.92 7.92206 11.1006V12.4942C7.92262 12.5576 7.97408 12.6088 8.03746 12.6089H8.78841C8.85157 12.6089 8.90307 12.5564 8.90307 12.4942Z" fill="#FF5E67"/>
</svg>
