<?xml version="1.0" encoding="UTF-8"?>
<svg width="16px" height="16px" viewBox="0 0 16 16" version="1.1" xmlns="http://www.w3.org/2000/svg" xmlns:xlink="http://www.w3.org/1999/xlink">
    <g id="icon/map/dark/viewShow" stroke="none" stroke-width="1" fill="none" fill-rule="evenodd">
        <g id="icon" transform="translate(1.000000, 3.000000)" fill-rule="nonzero">
            <path d="M7,0.6359375 C10.8682812,0.6359375 14,4.58125 14,5.000625 C14,5.41875 10.8682812,9.3640625 7,9.3640625 C3.13171875,9.3640625 0,5.48078125 0,5.00046875 C0,4.52015625 3.13171875,0.6359375 7,0.6359375 Z M7,1.43953125 C5.00875,1.43953125 3.40390625,3.0375 3.40390625,5.00859375 C3.40390625,6.98171875 5.0178125,8.57859375 7,8.57859375 C8.983125,8.57859375 10.5970312,6.9815625 10.5970312,5.00859375 C10.5970312,3.03640625 8.99125,1.43953125 7,1.43953125 Z" id="color_w" fill="#FFFFFF"></path>
            <path d="M7,2.95734375 C6.771875,2.95734375 6.5528125,2.99234375 6.34265625,3.06234375 C6.6665625,3.41171875 6.64578125,3.95734375 6.2965625,4.28125 C6.13511766,4.4309686 5.92251655,4.51325859 5.70234375,4.51125 C5.46796875,4.51 5.24375,4.415625 5.0790625,4.2490625 C4.65515625,5.3103125 5.17203125,6.51421875 6.23328125,6.938125 C6.47721789,7.03556995 6.73747661,7.08568089 7.00015625,7.08578125 C8.14078125,7.08578125 9.07140625,6.16125 9.07140625,5.0265625 C9.07015625,3.8834375 8.143125,2.95734375 7,2.95734375 L7,2.95734375 Z" id="color_g" fill="#00FFFF"></path>
        </g>
    </g>
</svg>