<?xml version="1.0" encoding="UTF-8"?>
<svg width="34px" height="34px" viewBox="0 0 34 34" version="1.1" xmlns="http://www.w3.org/2000/svg" xmlns:xlink="http://www.w3.org/1999/xlink">
    <g id="icon/map/dark/视域分析" stroke="none" stroke-width="1" fill="none" fill-rule="evenodd">
        <g id="icon" fill-rule="nonzero">
            <path d="M17,0 C26.3888407,0 34,7.61115925 34,17 C34,26.3888407 26.3888407,34 17,34 C7.61115925,34 0,26.3888407 0,17 C0,7.61115925 7.61115925,0 17,0 Z M17,1 C8.163444,1 1,8.163444 1,17 C1,25.836556 8.163444,33 17,33 C25.836556,33 33,25.836556 33,17 C33,8.163444 25.836556,1 17,1 Z M17,7 C22.5228475,7 27,11.4771525 27,17 C27,22.5228475 22.5228475,27 17,27 C11.4771525,27 7,22.5228475 7,17 C7,11.4771525 11.4771525,7 17,7 Z M17,8 C12.0294373,8 8,12.0294373 8,17 C8,21.9705627 12.0294373,26 17,26 C21.9705627,26 26,21.9705627 26,17 C26,12.0294373 21.9705627,8 17,8 Z" id="color_w" fill="#FFFFFF"></path>
            <path d="M27.9548359,5.33839094 C28.1979176,5.56682893 28.4338556,5.80278124 28.6622789,6.04587695 L19.4461233,15.2627856 C19.7948983,15.7530008 20,16.3525484 20,17 C20,17.6478836 19.7946246,18.2477991 19.4454251,18.7381953 L28.661334,27.9551285 C28.433205,28.1978694 28.1975825,28.433486 27.9548359,28.6616091 L18.7381953,19.4454251 C18.2477991,19.7946246 17.6478836,20 17,20 C15.3431458,20 14,18.6568542 14,17 C14,15.3431458 15.3431458,14 17,14 C17.6478836,14 18.2477991,14.2053754 18.7381953,14.5545749 Z" id="color_g" fill="#00FFFF"></path>
        </g>
    </g>
</svg>