<?xml version="1.0" encoding="UTF-8"?>
<svg width="34px" height="34px" viewBox="0 0 34 34" version="1.1" xmlns="http://www.w3.org/2000/svg" xmlns:xlink="http://www.w3.org/1999/xlink">
    <g id="icon/map/dark/通视分析" stroke="none" stroke-width="1" fill="none" fill-rule="evenodd">
        <g id="icon" fill-rule="nonzero">
            <path d="M15.9992988,0.0289642667 L15.9997006,1.03076045 C7.62911222,1.54710415 1,8.49939602 1,17 C1,25.836556 8.163444,33 17,33 C25.500604,33 32.4528958,26.3708878 32.9692396,18.0002994 L33.9710357,18.0007012 C33.4530709,26.9237502 26.0529088,34 17,34 C7.61115925,34 -1.42108547e-14,26.3888407 -1.42108547e-14,17 C-1.42108547e-14,7.94709118 7.0762498,0.546929065 15.9992988,0.0289642667 Z M25.5965091,7.69712498 C25.8645811,7.89796129 26.1028909,8.13635577 26.3036327,8.40450259 L21.4045026,13.3036327 L21.402463,13.302125 L15.8714301,18.8355821 C15.6598856,18.5770806 15.4229619,18.3401541 15.164463,18.1286068 L25.5965091,7.69712498 Z" id="color_w" fill="#FFFFFF"></path>
            <path d="M12,17 C14.7614237,17 17,19.2385763 17,22 C17,24.7614237 14.7614237,27 12,27 C9.23857625,27 7,24.7614237 7,22 C7,19.2385763 9.23857625,17 12,17 Z M17,0 C26.280923,0 33.824796,7.43719565 33.9969921,16.6769603 L34,17 L33,17 C33,8.2686411 26.006099,1.17079531 17.3148707,1.00303642 L17,1 L17,0 Z M23.5,7 C25.4329966,7 27,8.56700338 27,10.5 C27,12.4329966 25.4329966,14 23.5,14 C21.5670034,14 20,12.4329966 20,10.5 C20,8.56700338 21.5670034,7 23.5,7 Z" id="color_g" fill="#00FFFF"></path>
        </g>
    </g>
</svg>