<svg width="15" height="14" viewBox="0 0 15 14" fill="none" xmlns="http://www.w3.org/2000/svg">
<path fill-rule="evenodd" clip-rule="evenodd" d="M7.9668 14C11.8328 14 14.9668 10.866 14.9668 7C14.9668 3.13401 11.8328 0 7.9668 0C4.1008 0 0.966797 3.13401 0.966797 7C0.966797 10.866 4.1008 14 7.9668 14ZM7.96983 10.22C8.23617 10.22 8.46534 10.1344 8.65481 9.96216C8.85231 9.78908 8.9468 9.58228 8.9468 9.33538C8.9468 9.09395 8.85231 8.88034 8.65481 8.7086C8.46484 8.52957 8.23617 8.44349 7.96983 8.44349C7.70346 8.44349 7.46876 8.52958 7.27829 8.7086C7.08128 8.88034 6.9868 9.09395 6.9868 9.33538C6.9868 9.58228 7.08128 9.78908 7.27829 9.96216C7.46876 10.1344 7.70346 10.22 7.96983 10.22ZM7.96983 3.78C7.68538 3.78 7.44967 3.872 7.26623 4.05012C7.08181 4.23414 6.98681 4.4587 6.98681 4.72336C6.98681 4.8068 7.04233 5.08639 7.11815 5.46821C7.25052 6.13486 7.44479 7.11317 7.51349 7.90327H8.43367C8.51335 7.15454 8.6834 6.2365 8.80593 5.57501C8.88669 5.13907 8.9468 4.81456 8.9468 4.72336C8.9468 4.4528 8.85231 4.22822 8.67443 4.05012C8.49048 3.86609 8.25528 3.78 7.96983 3.78Z" fill="#F49E13"/>
</svg>
