<svg width="13" height="12" viewBox="0 0 13 12" fill="none" xmlns="http://www.w3.org/2000/svg">
<path d="M11.4148 2.4599C11.5236 2.39303 11.654 2.37036 11.779 2.39654C11.904 2.42271 12.0143 2.49576 12.0872 2.60067C12.1601 2.70559 12.19 2.83442 12.1709 2.96073C12.1518 3.08704 12.0851 3.20124 11.9844 3.2799L11.9396 3.3115L11.3648 3.6659C11.256 3.73277 11.1256 3.75544 11.0006 3.72926C10.8756 3.70309 10.7653 3.63004 10.6924 3.52513C10.6195 3.42021 10.5896 3.29138 10.6087 3.16507C10.6278 3.03876 10.6945 2.92456 10.7952 2.8459L10.84 2.8147L11.4148 2.4599ZM7.8392 0.5943C7.96292 0.598575 8.08066 0.648594 8.16962 0.734677C8.25859 0.820761 8.31246 0.936787 8.3208 1.0603L8.3216 1.1115L8.2976 1.8087C8.29371 1.93724 8.24043 2.05934 8.14885 2.14963C8.05727 2.23991 7.93442 2.29144 7.80584 2.2935C7.67725 2.29556 7.55282 2.24799 7.45839 2.16069C7.36397 2.07338 7.30681 1.95305 7.2988 1.8247L7.298 1.7739L7.322 1.0767C7.32427 1.01106 7.33945 0.946513 7.36668 0.886743C7.3939 0.826973 7.43263 0.773151 7.48066 0.728354C7.52869 0.683556 7.58508 0.64866 7.6466 0.625659C7.70812 0.602657 7.77356 0.592002 7.8392 0.5943ZM4.1528 3.4079C1.9436 3.4079 0.152802 5.1991 0.152802 7.4079C0.152802 9.6175 1.9436 11.4079 4.1528 11.4079H8.968C9.69374 11.4079 10.3898 11.1196 10.9029 10.6064C11.4161 10.0933 11.7044 9.39724 11.7044 8.6715C11.7044 7.94576 11.4161 7.24975 10.9029 6.73657C10.3898 6.2234 9.69374 5.9351 8.968 5.9351L8.8472 5.9375C8.56951 5.9495 8.29528 6.00386 8.034 6.0987L7.9448 6.1331L7.9292 6.0867C7.65479 5.30403 7.14403 4.62593 6.46752 4.14612C5.79102 3.66632 4.98218 3.4085 4.1528 3.4083V3.4079ZM4.1528 4.4079C5.6444 4.4079 6.904 5.5039 7.12 6.9643C7.13265 7.05039 7.16755 7.13169 7.22125 7.20017C7.27496 7.26864 7.3456 7.32191 7.4262 7.35472C7.50679 7.38752 7.59456 7.39872 7.68081 7.38721C7.76707 7.37571 7.84882 7.34189 7.918 7.2891C8.13746 7.12243 8.39343 7.01038 8.66476 6.96222C8.93609 6.91406 9.21498 6.93117 9.47839 7.01214C9.7418 7.09311 9.98216 7.2356 10.1796 7.42785C10.377 7.6201 10.5259 7.85658 10.6138 8.11774C10.7018 8.3789 10.7263 8.65724 10.6854 8.92976C10.6444 9.20228 10.5392 9.46114 10.3785 9.68495C10.2177 9.90876 10.006 10.0911 9.76077 10.2169C9.51558 10.3427 9.24397 10.4083 8.9684 10.4083H4.152C3.35635 10.4083 2.59329 10.0922 2.03068 9.52962C1.46807 8.96701 1.152 8.20395 1.152 7.4083C1.152 6.61265 1.46807 5.84959 2.03068 5.28698C2.59329 4.72437 3.35635 4.4083 4.152 4.4083L4.1528 4.4079Z" fill="white"/>
</svg>
