<?xml version="1.0" encoding="UTF-8"?>
<svg width="19px" height="14px" viewBox="0 0 19 14" version="1.1" xmlns="http://www.w3.org/2000/svg" xmlns:xlink="http://www.w3.org/1999/xlink">
    <!-- Generator: Sketch 59 (86127) - https://sketch.com -->
    <title>直线 19</title>
    <desc>Created with Sketch.</desc>
    <g id="页面-1" stroke="none" stroke-width="1" fill="none" fill-rule="evenodd">
        <g id="编组-52" transform="translate(-933.000000, -230.000000)" fill="#8A9DBB" fill-rule="nonzero" stroke="#00F7C7">
            <g id="编组-45备份-8" transform="translate(853.000000, 46.000000)">
                <g id="编组-44备份-4" transform="translate(15.000000, 145.000000)">
                    <g id="右双箭头" transform="translate(66.000000, 38.000000)">
                        <g id="编组-49">
                            <path d="M11.56,6.76 L9,6.76 L12.52,2 L17,6.76 L13.8,6.76 C14.6,8.92 14.3333333,10.6666667 13,12 C11.6666667,13.3333333 10.3333333,14 9,14 C6.52,13.52 4.85333333,12.8533333 4,12 C3.14666667,11.1466667 2.78666667,9.4 2.92,6.76 L0,6.76 L4.2,2 L9.04,6.76 L6.12,6.76 C5.69333333,7.64888889 5.48,8.31555556 5.48,8.76 C5.48,9.20444444 5.69333333,9.63111111 6.12,10.04 C7.4,10.8933333 8.25333333,11.32 8.68,11.32 C9.32,11.32 11.24,10.04 11.24,10.04 C11.24,10.04 11.7782555,9.80288093 11.88,8.76 C11.9103889,8.44851379 11.8037222,7.78184712 11.56,6.76 Z" id="直线-19"></path>
                        </g>
                    </g>
                </g>
            </g>
        </g>
    </g>
</svg>