<?xml version="1.0" encoding="UTF-8"?>
<svg width="14px" height="14px" viewBox="0 0 14 14" version="1.1" xmlns="http://www.w3.org/2000/svg" xmlns:xlink="http://www.w3.org/1999/xlink">
    <!-- Generator: Sketch 59 (86127) - https://sketch.com -->
    <title>扇形图</title>
    <desc>Created with Sketch.</desc>
    <g id="页面-1" stroke="none" stroke-width="1" fill="none" fill-rule="evenodd">
        <g id="编组-52" transform="translate(-1063.000000, -159.000000)" fill="#8A9DBB" fill-rule="nonzero">
            <g id="编组-45备份-8" transform="translate(853.000000, 46.000000)">
                <g id="编组-39备份-21" transform="translate(207.000000, 109.000000)">
                    <g id="扇形图" transform="translate(3.000000, 4.000000)">
                        <path d="M6.24878049,0.795998048 L6.24878049,7.73792094 L13.2060976,7.73792094 C13.1378049,8.3204002 12.987561,8.8875061 12.7587805,9.4306979 C12.4446341,10.1754514 11.9939024,10.8433382 11.4185366,11.4172767 C10.844878,11.9912152 10.1756098,12.4421669 9.43121951,12.7564666 C8.66121951,13.0827233 7.84341463,13.2467057 6.99829268,13.2467057 C6.15487805,13.2467057 5.33536585,13.0810151 4.56536585,12.7564666 C3.82097561,12.4421669 3.15341463,11.9912152 2.57804878,11.4172767 C2.00439024,10.8433382 1.55365854,10.1754514 1.2395122,9.4306979 C0.913414634,8.66032211 0.749512195,7.84211811 0.749512195,6.99829185 C0.749512195,6.15446559 0.915121951,5.33626159 1.2395122,4.5658858 C1.55365854,3.82113226 2.00439024,3.15324549 2.57804878,2.57930698 C3.15170732,2.00536847 3.82097561,1.55441679 4.56536585,1.24011713 C5.10658537,1.01464129 5.67,0.866032211 6.24878049,0.795998048" id="形状" stroke="#00FBCD"></path>
                        <path d="M8,0 C8.69420175,0.0270700637 9.37251787,0.168789809 10.0174742,0.420382166 C10.7164416,0.692675159 11.3550437,1.08598726 11.9173948,1.59076433 C13.056394,2.61146497 13.782367,4.00636943 13.9618745,5.51910828 C13.9809373,5.67675159 13.9936458,5.83757962 14,6 L8,6 L8,0" id="形状"></path>
                    </g>
                </g>
            </g>
        </g>
    </g>
</svg>