<?xml version="1.0" encoding="UTF-8"?>
<svg width="17px" height="12px" viewBox="0 0 17 12" version="1.1" xmlns="http://www.w3.org/2000/svg" xmlns:xlink="http://www.w3.org/1999/xlink">
    <!-- Generator: Sketch 59 (86127) - https://sketch.com -->
    <title>路径</title>
    <desc>Created with Sketch.</desc>
    <g id="页面-1" stroke="none" stroke-width="1" fill="none" fill-rule="evenodd">
        <g id="编组-52" transform="translate(-870.000000, -231.000000)" fill="#8A9DBB" fill-rule="nonzero" stroke="#00F7C7">
            <g id="编组-45备份-8" transform="translate(853.000000, 46.000000)">
                <g id="编组-44备份-4" transform="translate(15.000000, 145.000000)">
                    <g id="编组-43" transform="translate(0.000000, 35.000000)">
                        <path d="M8.82927756,3.67185644 C8.83086565,3.68198963 8.83136373,3.69580599 8.83008861,3.71430957 L8.83008861,11.1386064 C8.83008861,11.8115954 8.31947067,12.2624033 7.66069914,12.262041 L5.54280736,12.1810127 C5.49972012,12.1810127 5.43451752,12.4674242 5.59738345,12.657603 L10.761281,18.6880848 C10.8166263,18.7468351 10.8649834,18.7468351 10.9002165,18.7056957 L16.0799663,12.6575996 C16.267029,12.4391982 16.2362449,12.1810283 16.2506824,12.1810283 L13.9279324,12.1810283 C13.2846967,12.1810283 12.9633855,11.8058453 12.9633855,11.1385908 L12.9633855,3.71429394 C12.9633855,3.68558244 12.942226,3.67185644 12.7665574,3.67185644 L8.82927756,3.67185644 Z M13.9599519,11.1810283 C13.944104,11.2615771 13.8807698,11.1810283 13.9279324,11.1810283 L13.9599526,11.1810283 Z" id="路径" transform="translate(10.859390, 11.203103) rotate(-90.000000) translate(-10.859390, -11.203103) "></path>
                    </g>
                </g>
            </g>
        </g>
    </g>
</svg>