<?xml version="1.0" encoding="UTF-8"?>
<svg width="13px" height="12px" viewBox="0 0 13 12" version="1.1" xmlns="http://www.w3.org/2000/svg" xmlns:xlink="http://www.w3.org/1999/xlink">
    <!-- Generator: Sketch 59 (86127) - https://sketch.com -->
    <title>自由面</title>
    <desc>Created with Sketch.</desc>
    <g id="页面-1" stroke="none" stroke-width="1" fill="none" fill-rule="evenodd">
        <g id="编组-52" transform="translate(-1000.000000, -160.000000)" fill="#8A9DBB" fill-rule="nonzero" stroke="#00F7C7">
            <g id="编组-45备份-8" transform="translate(853.000000, 46.000000)">
                <g id="编组-39备份-19" transform="translate(143.000000, 109.000000)">
                    <path d="M4.5,15.5032027 C5.46927377,15.515773 6.55353978,15.5669879 8.68779237,15.6855033 C13.3287,15.9432136 15.2743753,15.9432136 15.6859149,15.610962 C16.1595996,15.2285383 16.21843,14.1476975 15.9261683,12.2200254 C15.893892,12.0071404 15.8594257,11.7928158 15.8094541,11.4908115 C15.5850936,10.1348846 15.5158039,9.66624769 15.5025485,9.1929481 C15.3654992,9.22189492 15.1725445,9.28488489 14.7748659,9.42333239 C14.6990149,9.4497021 14.6990149,9.4497021 14.6218515,9.47617579 C13.5115122,9.85512685 12.9307349,9.90195259 12.5633807,9.24364642 C12.4267294,8.99876453 12.3059517,8.73968596 12.1922088,8.45465022 C12.1170077,8.26619877 12.0465044,8.07099384 11.969086,7.84110518 C11.9231528,7.70470964 11.763604,7.21487325 11.780707,7.2669285 C11.3246016,5.87871216 10.9971312,5.5 10,5.5 C6.21867904,5.5 4.5,6.42723471 4.5,9 C4.5,9.45784085 4.5,9.45784085 4.5,9.91882119 C4.5,13.9266955 4.5,14.4126525 4.5,15.5032027 Z" id="自由面"></path>
                </g>
            </g>
        </g>
    </g>
</svg>